SplineFontDB: 3.0
FontName: NovaMono
FullName: NovaMono
FamilyName: NovaMono
Weight: Book
Copyright: wmk69\nSIL - Open Font License v.1.1
Version: 1.2
ItalicAngle: 0
UnderlinePosition: -81
UnderlineWidth: 122
Ascent: 1511
Descent: 537
LayerCount: 2
Layer: 0 1 "Warstwa t+AUIA-a"  1
Layer: 1 1 "Plan pierwszy"  0
XUID: [1021 783 23647091 6258659]
FSType: 8
OS2Version: 3
OS2_WeightWidthSlopeOnly: 0
OS2_UseTypoMetrics: 1
CreationTime: 1260698820
ModificationTime: 1296754576
PfmFamily: 49
TTFWeight: 400
TTFWidth: 5
LineGap: 0
VLineGap: 0
Panose: 2 12 5 9 2 2 2 6 2 4
OS2TypoAscent: 2215
OS2TypoAOffset: 0
OS2TypoDescent: -639
OS2TypoDOffset: 0
OS2TypoLinegap: 0
OS2WinAscent: 2215
OS2WinAOffset: 0
OS2WinDescent: 639
OS2WinDOffset: 0
HheadAscent: 2215
HheadAOffset: 0
HheadDescent: -639
HheadDOffset: 0
OS2SubXSize: 1434
OS2SubYSize: 1331
OS2SubXOff: 0
OS2SubYOff: 287
OS2SupXSize: 1434
OS2SupYSize: 1331
OS2SupXOff: 0
OS2SupYOff: 977
OS2StrikeYSize: 102
OS2StrikeYPos: 512
OS2Vendor: '    '
OS2CodePages: 20000093.00000000
OS2UnicodeRanges: 8000002f.4000204b.00000000.00000000
DEI: 91125
TtTable: prep
PUSHW_1
 511
SCANCTRL
PUSHB_1
 1
SCANTYPE
SVTCA[y-axis]
MPPEM
PUSHB_1
 8
LT
IF
PUSHB_2
 1
 1
INSTCTRL
EIF
PUSHB_2
 70
 6
CALL
IF
POP
PUSHB_1
 16
EIF
MPPEM
PUSHB_1
 20
GT
IF
POP
PUSHB_1
 128
EIF
SCVTCI
PUSHB_1
 6
CALL
NOT
IF
EIF
PUSHB_1
 20
CALL
EndTTInstrs
TtTable: fpgm
PUSHB_1
 0
FDEF
PUSHB_1
 0
SZP0
MPPEM
PUSHB_1
 42
LT
IF
PUSHB_1
 74
SROUND
EIF
PUSHB_1
 0
SWAP
MIAP[rnd]
RTG
PUSHB_1
 6
CALL
IF
RTDG
EIF
MPPEM
PUSHB_1
 42
LT
IF
RDTG
EIF
DUP
MDRP[rp0,rnd,grey]
PUSHB_1
 1
SZP0
MDAP[no-rnd]
RTG
ENDF
PUSHB_1
 1
FDEF
DUP
MDRP[rp0,min,white]
PUSHB_1
 12
CALL
ENDF
PUSHB_1
 2
FDEF
MPPEM
GT
IF
RCVT
SWAP
EIF
POP
ENDF
PUSHB_1
 3
FDEF
ROUND[Black]
RTG
DUP
PUSHB_1
 64
LT
IF
POP
PUSHB_1
 64
EIF
ENDF
PUSHB_1
 4
FDEF
PUSHB_1
 6
CALL
IF
POP
SWAP
POP
ROFF
IF
MDRP[rp0,min,rnd,black]
ELSE
MDRP[min,rnd,black]
EIF
ELSE
MPPEM
GT
IF
IF
MIRP[rp0,min,rnd,black]
ELSE
MIRP[min,rnd,black]
EIF
ELSE
SWAP
POP

StartChar: .notdef
Encoding: 65536 -1 0
Width: 1150
Flags: W
HStem: 0 68<371 779> 1443 68<371 779>
VStem: 303 68<68 1443> 779 68<68 1443>
LayerCount: 2
Fore
SplineSet
303 0 m 1,0,-1
 303 1511 l 1,1,-1
 847 1511 l 1,2,-1
 847 0 l 1,3,-1
 303 0 l 1,0,-1
371 68 m 1,4,-1
 779 68 l 1,5,-1
 779 1443 l 1,6,-1
 371 1443 l 1,7,-1
 371 68 l 1,4,-1
EndSplineSet
Validated: 1
EndChar

StartChar: exclam
Encoding: 33 33 4
Width: 1150
GlyphClass: 2
Flags: W
HStem: 0 264<484.191 665.809> 1491 20G<609.286 655>
VStem: 445 260<39.7072 224.293> 495 160<420 1441>
LayerCount: 2
Fore
SplineSet
495 1441 m 1,0,-1
 655 1511 l 1,1,-1
 655 420 l 1,2,-1
 495 350 l 1,3,-1
 495 1441 l 1,0,-1
445 132 m 128,-1,5
 445 187 445 187 483 225.5 c 128,-1,6
 521 264 521 264 575 264 c 128,-1,7
 629 264 629 264 667 225.5 c 128,-1,8
 705 187 705 187 705 132 c 128,-1,9
 705 77 705 77 667 38.5 c 128,-1,10
 629 0 629 0 575 0 c 128,-1,11
 521 0 521 0 483 38.5 c 128,-1,4
 445 77 445 77 445 132 c 128,-1,5
EndSplineSet
Validated: 1
EndChar

StartChar: quotedbl
Encoding: 34 34 5
Width: 1150
GlyphClass: 2
Flags: W
HStem: 963 550
VStem: 341 163<1033 1443> 646 163<1031 1441>
LayerCount: 2
Fore
SplineSet
504 1033 m 1,0,-1
 341 963 l 1,1,-1
 343 1443 l 1,2,-1
 504 1513 l 1,3,-1
 504 1033 l 1,0,-1
809 1031 m 1,4,-1
 646 961 l 1,5,-1
 648 1441 l 1,6,-1
 809 1511 l 1,7,-1
 809 1031 l 1,4,-1
EndSplineSet
Validated: 1
EndChar

StartChar: numbersign
Encoding: 35 35 6
Width: 1150
GlyphClass: 2
Flags: W
HStem: 515 160<127 335 495 655 815 1023> 835 160<127 335 495 655 815 1023>
VStem: 335 160<307 515 675 835 995 1203> 655 160<307 515 675 835 995 1203>
LayerCount: 2
Fore
SplineSet
495 307 m 1,0,-1
 335 237 l 1,1,-1
 335 515 l 1,2,-1
 57 515 l 1,3,-1
 127 675 l 1,4,-1
 335 675 l 1,5,-1
 335 835 l 1,6,-1
 57 835 l 1,7,-1
 127 995 l 1,8,-1
 335 995 l 1,9,-1
 335 1203 l 1,10,-1
 495 1273 l 1,11,-1
 495 995 l 1,12,-1
 655 995 l 1,13,-1
 655 1203 l 1,14,-1
 815 1273 l 1,15,-1
 815 995 l 1,16,-1
 1093 995 l 1,17,-1
 1023 835 l 1,18,-1
 815 835 l 1,19,-1
 815 675 l 1,20,-1
 1093 675 l 1,21,-1
 1023 515 l 1,22,-1
 815 515 l 1,23,-1
 815 307 l 1,24,-1
 655 237 l 1,25,-1
 655 515 l 1,26,-1
 495 515 l 1,27,-1
 495 307 l 1,0,-1
495 675 m 1,28,-1
 655 675 l 1,29,-1
 655 835 l 1,30,-1
 495 835 l 1,31,-1
 495 675 l 1,28,-1
EndSplineSet
Validated: 1
EndChar

StartChar: dollar
Encoding: 36 36 7
Width: 1150
GlyphClass: 2
Flags: W
VStem: 125 160<290.619 458> 170 161<1004.83 1263.91> 495 160<-280 14.8281 164 727 924 1321 1499.67 1791> 764 160<1125 1261.71> 867 158<289.337 598.615>
LayerCount: 2
Fore
SplineSet
495 1791 m 1,0,-1
 655 1861 l 1,1,-1
 655 1496 l 1,2,3
 744 1471 744 1471 813 1401 c 0,4,5
 924 1289 924 1289 924 1135 c 2,6,-1
 924 1125 l 1,7,-1
 764 1053 l 1,8,-1
 764 1132 l 1,9,10
 762 1225 762 1225 700 1286 c 0,11,12
 679 1307 679 1307 655 1321 c 1,13,-1
 655 894 l 1,14,15
 796 860 796 860 893 766 c 0,16,17
 1025 638 1025 638 1025 452 c 2,18,-1
 1025 449 l 2,19,20
 1025 259 1025 259 895 130 c 0,21,22
 792 28 792 28 655 6 c 1,23,-1
 655 -280 l 1,24,-1
 495 -350 l 1,25,-1
 495 6 l 1,26,27
 357 29 357 29 257 130 c 0,28,29
 125 264 125 264 125 445 c 2,30,-1
 125 458 l 1,31,-1
 285 528 l 1,32,-1
 285 442 l 2,33,34
 285 322 285 322 371 238 c 0,35,36
 426 183 426 183 495 164 c 1,37,-1
 495 755 l 1,38,39
 365 783 365 783 282 866 c 0,40,41
 170 978 170 978 170 1134 c 0,42,43
 170 1292 170 1292 280 1401 c 0,44,45
 372 1493 372 1493 495 1508 c 1,46,-1
 495 1791 l 1,0,-1
495 924 m 1,47,-1
 495 1344 l 1,48,49
 438 1332 438 1332 395 1288 c 0,50,51
 331 1223 331 1223 331 1134 c 256,52,53
 331 1045 331 1045 395 981 c 0,54,55
 433 943 433 943 495 924 c 1,47,-1
655 727 m 1,56,-1
 655 163 l 1,57,58
 726 182 726 182 782 238 c 0,59,60
 867 324 867 324 867 443 c 0,61,62
 867 568 867 568 785 646 c 0,63,64
 724 704 724 704 655 727 c 1,56,-1
EndSplineSet
Validated: 1
EndChar

StartChar: percent
Encoding: 37 37 8
Width: 1150
GlyphClass: 2
Flags: W
HStem: 0 140<720.81 917.654> 399 130<724.315 919.76> 982 140<228.81 425.654> 1381 130<232.315 427.76>
VStem: 50 143<1157.87 1343.08> 463 145<1159.38 1346.02> 542 143<175.871 361.079> 955 145<177.375 364.022>
DStem2: 50 486 142 355 0.805816 0.592166<0 1185.42>
LayerCount: 2
Fore
SplineSet
819 529 m 2,0,1
 819 529 819 529 822 529 c 0,2,3
 928 529 928 529 1013 452 c 0,4,5
 1100 374 1100 374 1100 265 c 128,-1,6
 1100 156 1100 156 1018 78 c 128,-1,7
 936 0 936 0 821 0 c 256,8,9
 706 0 706 0 624 78 c 128,-1,10
 542 156 542 156 542 265 c 128,-1,11
 542 374 542 374 624 452 c 0,12,13
 705 529 705 529 819 529 c 2,0,1
955 270 m 0,14,15
 955 320 955 320 915 360 c 0,16,17
 876 399 876 399 821 399 c 2,18,-1
 817 399 l 2,19,20
 765 399 765 399 723 360 c 1,21,22
 685 323 685 323 685 260 c 0,23,24
 685 215 685 215 723 178 c 1,25,26
 764 140 764 140 819 140 c 0,27,28
 875 140 875 140 915 178 c 128,-1,29
 955 216 955 216 955 270 c 0,14,15
327 1511 m 2,30,-1
 330 1511 l 2,31,32
 436 1511 436 1511 521 1434 c 0,33,34
 608 1356 608 1356 608 1247 c 128,-1,35
 608 1138 608 1138 526 1060 c 128,-1,36
 444 982 444 982 329 982 c 256,37,38
 214 982 214 982 132 1060 c 128,-1,39
 50 1138 50 1138 50 1247 c 128,-1,40
 50 1356 50 1356 132 1434 c 0,41,42
 213 1511 213 1511 327 1511 c 2,30,-1
463 1252 m 0,43,44
 463 1302 463 1302 423 1342 c 0,45,46
 384 1381 384 1381 329 1381 c 2,47,-1
 325 1381 l 2,48,49
 273 1381 273 1381 231 1342 c 1,50,51
 193 1305 193 1305 193 1242 c 0,52,53
 193 1197 193 1197 231 1160 c 1,54,55
 272 1122 272 1122 327 1122 c 0,56,57
 383 1122 383 1122 423 1160 c 128,-1,58
 463 1198 463 1198 463 1252 c 0,43,44
1008 1190 m 1,59,-1
 1100 1059 l 1,60,-1
 142 355 l 1,61,-1
 50 486 l 1,62,-1
 1008 1190 l 1,59,-1
EndSplineSet
Validated: 1
EndChar

StartChar: ampersand
Encoding: 38 38 9
Width: 1150
GlyphClass: 2
Flags: W
HStem: 0 21G<964.159 1019.71> 20 160<290.833 522> 762 160<341.838 462> 1331 160<362.562 670>
VStem: 0 154<316.556 621.417> 112 160<994.719 1246.23>
DStem2: 542 922 462 762 0.564058 -0.825735<86.9929 439.326 655.808 1007.26> 522 179 602 20 0.567056 0.823679<0 235.771 463.011 857.93>
LayerCount: 2
Fore
SplineSet
272 1131 m 0,0,1
 272 1041 272 1041 332 975 c 0,2,3
 380 922 380 922 484 922 c 2,4,-1
 542 922 l 1,5,-1
 788 558 l 1,6,-1
 1008 886 l 1,7,-1
 1150 816 l 1,8,-1
 874 422 l 1,9,-1
 1124 70 l 1,10,-1
 978 0 l 1,11,-1
 778 289 l 1,12,-1
 602 20 l 1,13,-1
 446 20 l 2,14,15
 263 20 263 20 132 152 c 0,16,17
 2 283 2 283 0 471 c 1,18,19
 2 662 2 662 130 790 c 0,20,21
 175 835 175 835 226 864 c 1,22,-1
 218 870 l 1,23,24
 112 980 112 980 112 1135 c 0,25,26
 112 1273 112 1273 220 1382 c 1,27,28
 330 1491 330 1491 486 1491 c 2,29,-1
 738 1491 l 1,30,-1
 670 1331 l 1,31,-1
 490 1331 l 1,32,33
 402 1329 402 1329 336 1267 c 0,34,35
 272 1208 272 1208 272 1131 c 0,0,1
154 465 m 0,36,37
 154 350 154 350 238 266 c 0,38,39
 323 181 323 181 442 180 c 2,40,-1
 522 179 l 1,41,-1
 696 421 l 1,42,-1
 462 762 l 1,43,-1
 442 762 l 2,44,45
 324 762 324 762 239 674 c 128,-1,46
 154 586 154 586 154 465 c 0,36,37
EndSplineSet
Validated: 1
EndChar

StartChar: quotesingle
Encoding: 39 39 10
Width: 1150
GlyphClass: 2
Flags: W
HStem: 961 550
VStem: 494 162<1031 1441>
LayerCount: 2
Fore
SplineSet
656 1031 m 1,0,-1
 494 961 l 1,1,-1
 496 1441 l 1,2,-1
 656 1511 l 1,3,-1
 656 1031 l 1,0,-1
EndSplineSet
Validated: 1
EndChar

StartChar: parenleft
Encoding: 40 40 11
Width: 1150
GlyphClass: 2
Flags: W
VStem: 420 183<298.455 1212.26>
LayerCount: 2
Fore
SplineSet
813 1861 m 1,0,1
 813 1861 813 1861 906 1722 c 1,2,3
 878 1704 878 1704 851 1675 c 0,4,5
 776 1597 776 1597 722 1465 c 256,6,7
 668 1333 668 1333 635 1151 c 0,8,9
 603 975 603 975 603 763 c 0,10,11
 603 541 603 541 635 359 c 0,12,13
 668 177 668 177 722 45 c 256,14,15
 776 -87 776 -87 851 -165 c 0,16,17
 877 -191 877 -191 903 -209 c 1,18,-1
 813 -350 l 1,19,20
 748 -312 748 -312 688 -239 c 0,21,22
 564 -87 564 -87 492 173 c 256,23,24
 420 433 420 433 420 768 c 0,25,26
 420 1077 420 1077 492 1337 c 256,27,28
 564 1597 564 1597 688 1749 c 0,29,30
 748 1823 748 1823 813 1861 c 1,0,1
EndSplineSet
Validated: 1
EndChar

StartChar: parenright
Encoding: 41 41 12
Width: 1150
GlyphClass: 2
Flags: W
VStem: 547 183<298.455 1212.26>
LayerCount: 2
Fore
SplineSet
337 1861 m 1,0,1
 402 1823 402 1823 462 1749 c 0,2,3
 586 1597 586 1597 658 1337 c 256,4,5
 730 1077 730 1077 730 768 c 0,6,7
 730 433 730 433 658 173 c 256,8,9
 586 -87 586 -87 462 -239 c 0,10,11
 402 -312 402 -312 337 -350 c 1,12,-1
 247 -209 l 1,13,14
 273 -191 273 -191 299 -165 c 0,15,16
 374 -87 374 -87 428 45 c 256,17,18
 482 177 482 177 515 359 c 0,19,20
 547 541 547 541 547 763 c 0,21,22
 547 975 547 975 515 1151 c 0,23,24
 482 1333 482 1333 428 1465 c 256,25,26
 374 1597 374 1597 299 1675 c 0,27,28
 272 1704 272 1704 244 1722 c 1,29,-1
 337 1861 l 1,0,1
EndSplineSet
Validated: 1
EndChar

StartChar: asterisk
Encoding: 42 42 13
Width: 1150
GlyphClass: 2
Flags: W
HStem: 1491 20G<609.286 655>
VStem: 495 160<709 936 1214 1441>
DStem2: 298 1327 157 1224 0.866165 -0.499758<0 227.107 504.626 731.734> 157 926 298 823 0.866165 0.499758<70.6541 297.761 575.281 802.388>
LayerCount: 2
Fore
SplineSet
655 709 m 1,0,-1
 495 639 l 1,1,-1
 495 936 l 1,2,-1
 298 823 l 1,3,-1
 157 926 l 1,4,-1
 415 1075 l 1,5,-1
 157 1224 l 1,6,-1
 298 1327 l 1,7,-1
 495 1214 l 1,8,-1
 495 1441 l 1,9,-1
 655 1511 l 1,10,-1
 655 1214 l 1,11,-1
 852 1327 l 1,12,-1
 993 1224 l 1,13,-1
 735 1075 l 1,14,-1
 993 926 l 1,15,-1
 852 823 l 1,16,-1
 655 936 l 1,17,-1
 655 709 l 1,0,-1
EndSplineSet
Validated: 1
EndChar

StartChar: plus
Encoding: 43 43 14
Width: 1150
GlyphClass: 2
Flags: W
HStem: 675 160<209 495 655 941>
VStem: 495 160<389 675 835 1121>
LayerCount: 2
Fore
SplineSet
655 389 m 1,0,-1
 495 319 l 1,1,-1
 495 675 l 1,2,-1
 139 675 l 1,3,-1
 209 835 l 1,4,-1
 495 835 l 1,5,-1
 495 1121 l 1,6,-1
 655 1191 l 1,7,-1
 655 835 l 1,8,-1
 1011 835 l 1,9,-1
 941 675 l 1,10,-1
 655 675 l 1,11,-1
 655 389 l 1,0,-1
EndSplineSet
Validated: 1
EndChar

StartChar: comma
Encoding: 44 44 15
Width: 1150
GlyphClass: 2
Flags: W
HStem: -248 512
VStem: 426 277<33.7644 218.136> 523 180<-84.8203 25.4575>
LayerCount: 2
Fore
SplineSet
523 4 m 1,0,1
 490 12 490 12 464 38 c 0,2,3
 426 76 426 76 426 132 c 0,4,5
 426 187 426 187 464 225.5 c 128,-1,6
 502 264 502 264 556 264 c 0,7,8
 604 264 604 264 648 228 c 0,9,10
 691 193 691 193 700 126 c 0,11,12
 703 103 703 103 703 81 c 0,13,14
 703 1 703 1 664 -76 c 0,15,16
 591 -219 591 -219 482 -242 c 0,17,18
 453 -248 453 -248 425 -248 c 0,19,20
 409 -248 409 -248 391 -246 c 1,21,22
 412 -188 412 -188 430 -137 c 1,23,24
 472 -132 472 -132 501 -87 c 0,25,26
 523 -53 523 -53 523 -17 c 0,27,28
 523 -6 523 -6 523 4 c 1,0,1
EndSplineSet
Validated: 1
EndChar

StartChar: hyphen
Encoding: 45 45 16
Width: 1150
GlyphClass: 2
Flags: W
HStem: 675 160<209 941>
LayerCount: 2
Fore
SplineSet
209 835 m 1,0,-1
 1011 835 l 1,1,-1
 941 675 l 1,2,-1
 139 675 l 1,3,-1
 209 835 l 1,0,-1
EndSplineSet
Validated: 1
EndChar

StartChar: period
Encoding: 46 46 17
Width: 1150
GlyphClass: 2
Flags: W
HStem: 0 264<484.191 665.809>
VStem: 445 260<39.7072 224.293>
LayerCount: 2
Fore
SplineSet
445 132 m 128,-1,1
 445 187 445 187 483 225.5 c 128,-1,2
 521 264 521 264 575 264 c 128,-1,3
 629 264 629 264 667 225.5 c 128,-1,4
 705 187 705 187 705 132 c 128,-1,5
 705 77 705 77 667 38.5 c 128,-1,6
 629 0 629 0 575 0 c 128,-1,7
 521 0 521 0 483 38.5 c 128,-1,0
 445 77 445 77 445 132 c 128,-1,1
EndSplineSet
Validated: 1
EndChar

StartChar: slash
Encoding: 47 47 18
Width: 1150
GlyphClass: 2
Flags: W
DStem2: 50 -282 195 -350 0.389037 0.921222<0 2320.02>
LayerCount: 2
Fore
SplineSet
955 1861 m 1,0,-1
 1100 1793 l 1,1,-1
 195 -350 l 1,2,-1
 50 -282 l 1,3,-1
 955 1861 l 1,0,-1
EndSplineSet
Validated: 1
EndChar

StartChar: zero
Encoding: 48 48 19
Width: 1150
GlyphClass: 2
Flags: W
HStem: 0 153<420.51 728.556> 1358 153<420.781 728.72>
VStem: 124 160<383.316 1221.77> 866 160<289.235 1154.66>
DStem2: 290 381 389 220 0.443767 0.896142<0 945.247>
LayerCount: 2
Fore
SplineSet
284 1069 m 2,0,-1
 284 442 l 2,1,2
 284 410 284 410 290 381 c 1,3,-1
 746 1302 l 1,4,5
 671 1358 671 1358 575 1358 c 0,6,7
 454 1358 454 1358 369 1273.5 c 128,-1,8
 284 1189 284 1189 284 1069 c 2,0,-1
1026 1066 m 2,9,-1
 1026 445 l 2,10,11
 1026 261 1026 261 894 130.5 c 128,-1,12
 762 0 762 0 575 0 c 0,13,14
 387 0 387 0 256 130 c 0,15,16
 124 261 124 261 124 445 c 2,17,-1
 124 1066 l 2,18,19
 124 1250 124 1250 256 1380.5 c 128,-1,20
 388 1511 388 1511 575 1511 c 128,-1,21
 762 1511 762 1511 894 1380.5 c 128,-1,22
 1026 1250 1026 1250 1026 1066 c 2,9,-1
853 1157 m 1,23,-1
 389 220 l 1,24,25
 468 153 468 153 575 153 c 0,26,27
 694 153 694 153 780 238 c 0,28,29
 865 322 865 322 866 442 c 1,30,-1
 866 1069 l 2,31,32
 866 1116 866 1116 853 1157 c 1,23,-1
EndSplineSet
Validated: 1
EndChar

StartChar: one
Encoding: 49 49 20
Width: 1150
GlyphClass: 2
Flags: W
HStem: 0 21G<502 547.714> 1491 20G<616.286 662>
VStem: 502 160<70 1223>
DStem2: 172 1125 266 998 0.722261 0.69162<0 306.125>
LayerCount: 2
Fore
SplineSet
502 1223 m 1,0,-1
 266 998 l 1,1,-1
 172 1125 l 1,2,-1
 502 1441 l 1,3,-1
 662 1511 l 1,4,-1
 662 70 l 1,5,-1
 502 0 l 1,6,-1
 502 1223 l 1,0,-1
EndSplineSet
Validated: 1
EndChar

StartChar: two
Encoding: 50 50 21
Width: 1150
GlyphClass: 2
Flags: W
HStem: 20 160<355 969> 1358 153<415.952 724.913>
VStem: 119 160<1053.13 1219.68> 861 159<908.607 1220.28>
LayerCount: 2
Fore
SplineSet
1020 1043 m 0,0,1
 1020 865 1020 865 872 749 c 0,2,3
 603 539 603 539 594 528 c 1,4,5
 432 363 432 363 364 198 c 1,6,-1
 355 180 l 1,7,-1
 1039 180 l 1,8,-1
 969 20 l 1,9,-1
 111 20 l 1,10,-1
 187 216 l 1,11,12
 339 551 339 551 603 741 c 1,13,14
 734 838 734 838 778 869 c 0,15,16
 861 927 861 927 861 1053 c 0,17,18
 861 1060 861 1060 861 1068 c 0,19,20
 858 1190 858 1190 776 1273 c 0,21,22
 692 1358 692 1358 570 1358 c 0,23,24
 451 1358 451 1358 365 1273 c 128,-1,25
 279 1188 279 1188 279 1074 c 0,26,27
 279 1072 279 1072 279 1069 c 2,28,-1
 280 1059 l 1,29,-1
 120 989 l 1,30,-1
 119 1066 l 1,31,32
 119 1246 119 1246 251 1380 c 0,33,34
 381 1511 381 1511 570 1511 c 256,35,36
 759 1511 759 1511 889 1381 c 1,37,38
 1020 1252 1020 1252 1020 1043 c 0,0,1
EndSplineSet
Validated: 1
EndChar

StartChar: three
Encoding: 51 51 22
Width: 1150
GlyphClass: 2
Flags: W
HStem: 0 153<421.706 730.465> 1331 160<231 699>
VStem: 125 160<290.619 458> 867 158<289.337 598.615>
DStem2: 375 798 635 897 0.501151 0.86536<215.97 623.61>
LayerCount: 2
Fore
SplineSet
545 745 m 0,0,1
 516 745 516 745 459 724 c 1,2,-1
 375 798 l 1,3,-1
 699 1331 l 1,4,-1
 161 1331 l 1,5,-1
 231 1491 l 1,6,-1
 979 1491 l 1,7,-1
 635 897 l 1,8,9
 781 875 781 875 893 766 c 0,10,11
 1025 638 1025 638 1025 452 c 2,12,-1
 1025 449 l 2,13,14
 1025 259 1025 259 895 130 c 0,15,16
 764 0 764 0 576 0 c 0,17,18
 386 0 386 0 257 130 c 0,19,20
 125 264 125 264 125 445 c 2,21,-1
 125 458 l 1,22,-1
 285 528 l 1,23,-1
 285 442 l 2,24,25
 285 322 285 322 371 238 c 0,26,27
 457 153 457 153 576 153 c 0,28,29
 697 153 697 153 782 238 c 0,30,31
 867 324 867 324 867 443 c 0,32,33
 867 568 867 568 785 646 c 0,34,35
 698 729 698 729 580 743 c 0,36,37
 563 745 563 745 545 745 c 0,0,1
EndSplineSet
Validated: 1
EndChar

StartChar: four
Encoding: 52 52 23
Width: 1150
GlyphClass: 2
Flags: W
HStem: 0 21G<758 803.714> 369 160<332 758 918 997> 1491 20G<872.286 918>
VStem: 758 160<70 369 529 1171>
LayerCount: 2
Fore
SplineSet
758 369 m 1,0,-1
 83 369 l 1,1,-1
 153 529 l 1,2,-1
 758 1441 l 1,3,-1
 918 1511 l 1,4,-1
 918 529 l 1,5,-1
 1067 529 l 1,6,-1
 997 369 l 1,7,-1
 918 369 l 1,8,-1
 918 70 l 1,9,-1
 758 0 l 1,10,-1
 758 369 l 1,0,-1
758 529 m 1,11,-1
 758 1171 l 1,12,-1
 332 529 l 1,13,-1
 758 529 l 1,11,-1
EndSplineSet
Validated: 1
EndChar

StartChar: five
Encoding: 53 53 24
Width: 1150
GlyphClass: 2
Flags: W
HStem: 0 153<421.706 730.465> 744 152<384.563 722.379> 1331 160<469 895>
VStem: 125 160<290.619 458> 867 158<289.337 610.105>
DStem2: 203 783 382 871 0.184624 0.982809<119.535 587.689>
LayerCount: 2
Fore
SplineSet
540 744 m 0,0,1
 476 744 476 744 404 717 c 1,2,-1
 323 678 l 1,3,-1
 203 783 l 1,4,-1
 336 1491 l 1,5,-1
 979 1491 l 1,6,-1
 895 1331 l 1,7,-1
 469 1331 l 1,8,-1
 382 871 l 1,9,10
 464 896 464 896 549 896 c 0,11,12
 572 896 572 896 593 894 c 0,13,14
 797 875 797 875 909 761 c 0,15,16
 1025 643 1025 643 1025 452 c 2,17,-1
 1025 449 l 2,18,19
 1025 259 1025 259 895 130 c 0,20,21
 764 0 764 0 576 0 c 0,22,23
 386 0 386 0 257 130 c 0,24,25
 125 264 125 264 125 445 c 2,26,-1
 125 458 l 1,27,-1
 285 528 l 1,28,-1
 285 442 l 2,29,30
 285 322 285 322 371 238 c 0,31,32
 457 153 457 153 576 153 c 0,33,34
 697 153 697 153 782 238 c 0,35,36
 867 324 867 324 867 443 c 0,37,38
 867 586 867 586 783 658 c 1,39,40
 699 732 699 732 580 743 c 0,41,42
 560 744 560 744 540 744 c 0,0,1
EndSplineSet
Validated: 1
EndChar

StartChar: six
Encoding: 54 54 25
Width: 1150
GlyphClass: 2
Flags: W
HStem: 0 153<420.535 727.307> 735 153<423.446 729.048> 1358 153<420.635 729.294>
VStem: 124 160<288.636 602.328 782 1221.17> 866 160<290.516 599.498 1053 1220.38>
LayerCount: 2
Fore
SplineSet
575 1358 m 0,0,1
 454 1358 454 1358 369 1274 c 0,2,3
 284 1189 284 1189 284 1069 c 2,4,-1
 284 782 l 1,5,6
 411 888 411 888 575 888 c 0,7,8
 764 888 764 888 894 757 c 1,9,10
 1026 630 1026 630 1026 443 c 1,11,12
 1025 265 1025 265 894 130 c 0,13,14
 769 0 769 0 575 0 c 0,15,16
 387 0 387 0 256 130 c 0,17,18
 124 260 124 260 124 445 c 2,19,-1
 124 1066 l 2,20,21
 124 1249 124 1249 260 1380 c 128,-1,22
 396 1511 396 1511 575 1511 c 0,23,24
 765 1511 765 1511 894 1381 c 0,25,26
 1026 1247 1026 1247 1026 1066 c 2,27,-1
 1026 1053 l 1,28,-1
 866 983 l 1,29,-1
 866 1069 l 2,30,31
 866 1189 866 1189 780 1273 c 0,32,33
 694 1358 694 1358 575 1358 c 0,0,1
866 444 m 2,34,-1
 866 446 l 2,35,36
 866 565 866 565 780 650 c 128,-1,37
 694 735 694 735 575 735 c 0,38,39
 460 735 460 735 369 650 c 1,40,41
 284 572 284 572 284 446 c 2,42,-1
 284 442 l 2,43,44
 284 323 284 323 369 238 c 128,-1,45
 454 153 454 153 575 153 c 0,46,47
 692 153 692 153 780 238 c 0,48,49
 866 322 866 322 866 444 c 2,34,-1
EndSplineSet
Validated: 1
EndChar

StartChar: seven
Encoding: 55 55 26
Width: 1150
GlyphClass: 2
Flags: W
HStem: 0 21G<134.008 186.029> 1331 160<175 790>
DStem2: 124 0 338 69 0.445197 0.895432<157.057 1488.32>
LayerCount: 2
Fore
SplineSet
338 69 m 1,0,-1
 124 0 l 1,1,-1
 790 1331 l 1,2,-1
 105 1331 l 1,3,-1
 175 1491 l 1,4,-1
 1045 1491 l 1,5,-1
 338 69 l 1,0,-1
EndSplineSet
Validated: 1
EndChar

StartChar: eight
Encoding: 56 56 27
Width: 1150
GlyphClass: 2
Flags: W
HStem: 0 153<420.297 730.123> 1352 160<419.19 730.5>
VStem: 125 160<289.117 603.059> 170 161<1004.58 1263.91> 819 162<1004.5 1265.18> 867 158<287.781 601.053>
LayerCount: 2
Fore
SplineSet
1025 458 m 1,0,-1
 1025 445 l 1,1,-1
 1025 442 l 2,2,3
 1025 250 1025 250 895 130 c 0,4,5
 754 0 754 0 576 0 c 0,6,7
 389 0 389 0 249 139 c 0,8,9
 138 250 138 250 125 457 c 1,10,-1
 125 458 l 1,11,12
 127 643 127 643 257 766 c 0,13,14
 292 799 292 799 331 825 c 1,15,16
 305 843 305 843 282 866 c 0,17,18
 170 977 170 977 170 1134 c 0,19,20
 170 1292 170 1292 280 1401 c 0,21,22
 392 1512 392 1512 575 1512 c 0,23,24
 752 1512 752 1512 860 1411 c 1,25,-1
 870 1401 l 2,26,27
 926 1345 926 1345 952 1280 c 1,28,29
 981 1213 981 1213 981 1135 c 1,30,31
 978 976 978 976 868 866 c 0,32,33
 845 843 845 843 819 825 c 1,34,35
 858 799 858 799 893 766 c 0,36,37
 1023 640 1023 640 1025 458 c 1,0,-1
867 456 m 1,38,39
 862 572 862 572 785 646 c 1,40,41
 690 735 690 735 575 744 c 1,42,43
 460 735 460 735 365 646 c 0,44,45
 285 570 285 570 285 445 c 2,46,-1
 285 442 l 2,47,48
 285 322 285 322 368 238 c 1,49,50
 454 153 454 153 576 153 c 0,51,52
 695 153 695 153 782 238 c 1,53,54
 865 322 865 322 867 438 c 0,55,56
 867 441 867 441 867 443 c 2,57,-1
 867 456 l 1,38,39
395 1288 m 1,58,59
 331 1223 331 1223 331 1134 c 128,-1,60
 331 1045 331 1045 395 981 c 0,61,62
 454 922 454 922 576 908 c 1,63,64
 695 921 695 921 755 981 c 0,65,66
 819 1045 819 1045 819 1134 c 0,67,68
 819 1221 819 1221 757 1286 c 0,69,70
 698 1347 698 1347 583 1352 c 1,71,72
 461 1352 461 1352 395 1288 c 1,58,59
EndSplineSet
Validated: 1
EndChar

StartChar: nine
Encoding: 57 57 28
Width: 1150
GlyphClass: 2
Flags: W
HStem: 0 153<420.706 729.365> 623 153<420.952 726.554> 1358 153<422.693 729.465>
VStem: 124 160<290.619 458 911.502 1220.48> 866 160<289.833 729 908.672 1222.36>
LayerCount: 2
Fore
SplineSet
575 153 m 0,0,1
 696 153 696 153 781 237 c 0,2,3
 866 322 866 322 866 442 c 2,4,-1
 866 729 l 1,5,6
 739 623 739 623 575 623 c 0,7,8
 386 623 386 623 256 754 c 1,9,10
 124 881 124 881 124 1068 c 1,11,12
 125 1246 125 1246 256 1381 c 0,13,14
 381 1511 381 1511 575 1511 c 0,15,16
 763 1511 763 1511 894 1381 c 0,17,18
 1026 1251 1026 1251 1026 1066 c 2,19,-1
 1026 445 l 2,20,21
 1026 262 1026 262 890 131 c 128,-1,22
 754 0 754 0 575 0 c 0,23,24
 385 0 385 0 256 130 c 0,25,26
 124 264 124 264 124 445 c 2,27,-1
 124 458 l 1,28,-1
 284 528 l 1,29,-1
 284 442 l 2,30,31
 284 322 284 322 370 238 c 0,32,33
 456 153 456 153 575 153 c 0,0,1
284 1067 m 2,34,-1
 284 1065 l 2,35,36
 284 946 284 946 370 861 c 128,-1,37
 456 776 456 776 575 776 c 0,38,39
 690 776 690 776 781 861 c 1,40,41
 866 939 866 939 866 1065 c 2,42,-1
 866 1069 l 2,43,44
 866 1188 866 1188 781 1273 c 128,-1,45
 696 1358 696 1358 575 1358 c 0,46,47
 458 1358 458 1358 370 1273 c 0,48,49
 284 1189 284 1189 284 1067 c 2,34,-1
EndSplineSet
Validated: 1
EndChar

StartChar: colon
Encoding: 58 58 29
Width: 1150
GlyphClass: 2
Flags: W
HStem: 0 264<484.191 665.809> 620 264<484.191 665.809>
VStem: 445 260<39.7072 224.293 659.707 844.293>
LayerCount: 2
Fore
SplineSet
445 132 m 128,-1,1
 445 187 445 187 483 225.5 c 128,-1,2
 521 264 521 264 575 264 c 128,-1,3
 629 264 629 264 667 225.5 c 128,-1,4
 705 187 705 187 705 132 c 128,-1,5
 705 77 705 77 667 38.5 c 128,-1,6
 629 0 629 0 575 0 c 128,-1,7
 521 0 521 0 483 38.5 c 128,-1,0
 445 77 445 77 445 132 c 128,-1,1
445 752 m 128,-1,9
 445 807 445 807 483 845.5 c 128,-1,10
 521 884 521 884 575 884 c 128,-1,11
 629 884 629 884 667 845.5 c 128,-1,12
 705 807 705 807 705 752 c 128,-1,13
 705 697 705 697 667 658.5 c 128,-1,14
 629 620 629 620 575 620 c 128,-1,15
 521 620 521 620 483 658.5 c 128,-1,8
 445 697 445 697 445 752 c 128,-1,9
EndSplineSet
Validated: 1
EndChar

StartChar: semicolon
Encoding: 59 59 30
Width: 1150
GlyphClass: 2
Flags: W
HStem: 620 264<484.191 665.809>
VStem: 426 277<33.7644 218.136> 445 260<659.707 844.293> 523 180<-84.8203 25.4575>
LayerCount: 2
Fore
SplineSet
523 4 m 1,0,1
 490 12 490 12 464 38 c 0,2,3
 426 76 426 76 426 132 c 0,4,5
 426 187 426 187 464 225.5 c 128,-1,6
 502 264 502 264 556 264 c 0,7,8
 604 264 604 264 648 228 c 0,9,10
 691 193 691 193 700 126 c 0,11,12
 703 103 703 103 703 81 c 0,13,14
 703 1 703 1 664 -76 c 0,15,16
 591 -219 591 -219 482 -242 c 0,17,18
 453 -248 453 -248 425 -248 c 0,19,20
 409 -248 409 -248 391 -246 c 1,21,22
 412 -188 412 -188 430 -137 c 1,23,24
 472 -132 472 -132 501 -87 c 0,25,26
 523 -53 523 -53 523 -17 c 0,27,28
 523 -6 523 -6 523 4 c 1,0,1
445 752 m 128,-1,30
 445 807 445 807 483 845.5 c 128,-1,31
 521 884 521 884 575 884 c 128,-1,32
 629 884 629 884 667 845.5 c 128,-1,33
 705 807 705 807 705 752 c 128,-1,34
 705 697 705 697 667 658.5 c 128,-1,35
 629 620 629 620 575 620 c 128,-1,36
 521 620 521 620 483 658.5 c 128,-1,29
 445 697 445 697 445 752 c 128,-1,30
EndSplineSet
Validated: 1
EndChar

StartChar: less
Encoding: 60 60 31
Width: 1150
GlyphClass: 2
Flags: W
DStem2: 385 746 143 675 0.913337 -0.407205<0 676.005> 213 835 385 746 0.906533 0.422135<118.354 800.415>
LayerCount: 2
Fore
SplineSet
385 746 m 1,0,-1
 1007 481 l 1,1,-1
 937 321 l 1,2,-1
 143 675 l 1,3,-1
 213 835 l 1,4,-1
 941 1174 l 1,5,-1
 1007 1026 l 1,6,-1
 385 746 l 1,0,-1
EndSplineSet
Validated: 1
EndChar

StartChar: equal
Encoding: 61 61 32
Width: 1150
GlyphClass: 2
Flags: W
HStem: 515 160<209 941> 835 160<209 941>
LayerCount: 2
Fore
SplineSet
209 995 m 1,0,-1
 1011 995 l 1,1,-1
 941 835 l 1,2,-1
 139 835 l 1,3,-1
 209 995 l 1,0,-1
209 675 m 1,4,-1
 1011 675 l 1,5,-1
 941 515 l 1,6,-1
 139 515 l 1,7,-1
 209 675 l 1,4,-1
EndSplineSet
Validated: 1
EndChar

StartChar: greater
Encoding: 62 62 33
Width: 1150
GlyphClass: 2
Flags: W
DStem2: 143 469 209 321 0.906533 0.422135<0 682.061> 1007 820 765 749 0.913337 -0.407205<-868.121 -192.116>
LayerCount: 2
Fore
SplineSet
765 749 m 1,0,-1
 143 1014 l 1,1,-1
 213 1174 l 1,2,-1
 1007 820 l 1,3,-1
 937 660 l 1,4,-1
 209 321 l 1,5,-1
 143 469 l 1,6,-1
 765 749 l 1,0,-1
EndSplineSet
Validated: 1
EndChar

StartChar: question
Encoding: 63 63 34
Width: 1150
GlyphClass: 2
Flags: W
HStem: 0 264<398.191 579.809> 1358 153<422.154 730.465>
VStem: 125 160<1059 1220.18> 359 260<39.7072 224.293> 406 160<468 535.843> 867 158<914.407 1221.61>
LayerCount: 2
Fore
SplineSet
867 1068 m 0,0,1
 867 1186 867 1186 782 1273 c 1,2,3
 697 1358 697 1358 576 1358 c 0,4,5
 458 1358 458 1358 371 1273 c 0,6,7
 285 1189 285 1189 285 1077 c 0,8,9
 285 1073 285 1073 285 1069 c 2,10,-1
 285 1059 l 1,11,-1
 125 989 l 1,12,-1
 125 1066 l 2,13,14
 125 1247 125 1247 257 1380 c 0,15,16
 387 1511 387 1511 576 1511 c 0,17,18
 764 1511 764 1511 895 1381 c 0,19,20
 1025 1252 1025 1252 1025 1062 c 2,21,-1
 1025 1060 l 2,22,23
 1025 875 1025 875 877 749 c 1,24,25
 865 732 865 732 635 603 c 1,26,27
 577 572 577 572 566 522 c 1,28,29
 562 510 562 510 566 468 c 1,30,-1
 406 398 l 1,31,32
 406 406 406 406 409 540 c 0,33,34
 411 655 411 655 631 774 c 0,35,36
 736 831 736 831 783 869 c 0,37,38
 867 937 867 937 867 1068 c 0,0,1
359 132 m 128,-1,40
 359 187 359 187 397 225.5 c 128,-1,41
 435 264 435 264 489 264 c 128,-1,42
 543 264 543 264 581 225.5 c 128,-1,43
 619 187 619 187 619 132 c 128,-1,44
 619 77 619 77 581 38.5 c 128,-1,45
 543 0 543 0 489 0 c 128,-1,46
 435 0 435 0 397 38.5 c 128,-1,39
 359 77 359 77 359 132 c 128,-1,40
EndSplineSet
Validated: 1
EndChar

StartChar: at
Encoding: 64 64 35
Width: 1150
GlyphClass: 2
Flags: W
HStem: -388 153<458.237 745.662> -6 157<577.499 739.159> 0 21G<829 874.714> 970 153<457.256 738.01>
VStem: 161 160<-98.8679 833.167> 829 160<70 548 734 876.347>
DStem2: 377 476 539 382 0.86848 0.495725<74.034 428.245>
LayerCount: 2
Fore
SplineSet
615 -6 m 0,0,1
 520 -6 520 -6 463 72 c 0,2,3
 377 189 377 189 377 382 c 2,4,-1
 377 476 l 1,5,-1
 829 734 l 1,6,-1
 829 741 l 2,7,8
 829 831 829 831 765 901 c 0,9,10
 701 970 701 970 613 970 c 0,11,12
 491 970 491 970 407 886 c 0,13,14
 321 801 321 801 321 681 c 2,15,-1
 321 54 l 2,16,17
 321 -65 321 -65 407 -150 c 1,18,19
 491 -235 491 -235 613 -235 c 0,20,21
 677 -235 677 -235 733 -209 c 1,22,23
 733 -209 733 -209 787 -344 c 1,24,25
 701 -388 701 -388 613 -388 c 0,26,27
 425 -388 425 -388 293 -258 c 0,28,29
 161 -127 161 -127 161 57 c 2,30,-1
 161 678 l 2,31,32
 161 861 161 861 293 992 c 128,-1,33
 425 1123 425 1123 602 1123 c 0,34,35
 608 1123 608 1123 613 1123 c 0,36,37
 764 1123 764 1123 879 1010 c 0,38,39
 989 902 989 902 989 744 c 2,40,-1
 989 70 l 1,41,-1
 829 0 l 1,42,-1
 829 548 l 1,43,-1
 539 382 l 1,44,45
 547 249 547 249 579 192 c 0,46,47
 602 151 602 151 635 151 c 0,48,49
 652 151 652 151 671 162 c 0,50,51
 720 190 720 190 722 192 c 1,52,-1
 783 41 l 1,53,54
 726 11 726 11 671 0 c 0,55,56
 642 -6 642 -6 615 -6 c 0,0,1
EndSplineSet
Validated: 1
EndChar

StartChar: A
Encoding: 65 65 36
Width: 1150
GlyphClass: 2
Flags: W
HStem: 0 21G<124 169.714 866 911.714> 675 160<284 866> 1358 153<420.983 728.556>
VStem: 124 160<70 675 835 1221.77> 866 160<70 675 835 1221.77>
LayerCount: 2
Fore
SplineSet
124 0 m 1,0,-1
 124 1066 l 2,1,2
 124 1250 124 1250 256 1380.5 c 128,-1,3
 388 1511 388 1511 575 1511 c 128,-1,4
 762 1511 762 1511 894 1380.5 c 128,-1,5
 1026 1250 1026 1250 1026 1066 c 2,6,-1
 1026 70 l 1,7,-1
 866 0 l 1,8,-1
 866 675 l 1,9,-1
 284 675 l 1,10,-1
 284 70 l 1,11,-1
 124 0 l 1,0,-1
284 835 m 1,12,-1
 866 835 l 1,13,-1
 866 1069 l 1,14,15
 865 1189 865 1189 780 1273 c 0,16,17
 694 1358 694 1358 575 1358 c 0,18,19
 455 1358 455 1358 369 1273 c 0,20,21
 284 1189 284 1189 284 1072 c 2,22,-1
 284 1069 l 1,23,-1
 284 835 l 1,12,-1
EndSplineSet
Validated: 1
EndChar

StartChar: B
Encoding: 66 66 37
Width: 1150
GlyphClass: 2
Flags: W
HStem: 20 160<286 735.158> 762 160<286 682.168> 1331 160<286 665.663>
VStem: 126 160<180 762 922 1331> 753 160<994.902 1246.28> 871 153<317.69 625.465>
LayerCount: 2
Fore
SplineSet
126 20 m 1,0,-1
 126 1421 l 1,1,-1
 286 1491 l 1,2,-1
 538 1491 l 2,3,4
 695 1491 695 1491 804 1382 c 128,-1,5
 913 1273 913 1273 913 1135 c 0,6,7
 913 979 913 979 806 870 c 1,8,-1
 800 864 l 1,9,10
 850 835 850 835 894 790 c 0,11,12
 1024 659 1024 659 1024 471 c 0,13,14
 1024 285 1024 285 893 152 c 0,15,16
 764 20 764 20 579 20 c 2,17,-1
 126 20 l 1,0,-1
286 180 m 1,18,-1
 582 180 l 2,19,20
 701 180 701 180 786 266 c 128,-1,21
 871 352 871 352 871 471 c 0,22,23
 871 592 871 592 786 677 c 128,-1,24
 701 762 701 762 582 762 c 2,25,-1
 543 762 l 1,26,-1
 286 762 l 1,27,-1
 286 180 l 1,18,-1
540 922 m 1,28,29
 642 923 642 923 692 975 c 0,30,31
 753 1039 753 1039 753 1126 c 0,32,33
 753 1131 753 1131 753 1137 c 0,34,35
 753 1209 753 1209 689 1267 c 1,36,37
 623 1329 623 1329 535 1331 c 1,38,-1
 286 1331 l 1,39,-1
 286 922 l 1,40,-1
 540 922 l 1,28,29
EndSplineSet
Validated: 1
EndChar

StartChar: C
Encoding: 67 67 38
Width: 1150
GlyphClass: 2
Flags: W
HStem: 0 153<420.535 728.556> 1358 153<420.781 729.048>
VStem: 124 160<289.132 1221.77> 866 160<289.235 454 1057 1220.67>
LayerCount: 2
Fore
SplineSet
1026 528 m 1,0,-1
 1026 445 l 2,1,2
 1026 261 1026 261 894 130.5 c 128,-1,3
 762 0 762 0 575 0 c 0,4,5
 387 0 387 0 256 130 c 0,6,7
 124 261 124 261 124 445 c 2,8,-1
 124 1066 l 2,9,10
 124 1250 124 1250 256 1380.5 c 128,-1,11
 388 1511 388 1511 575 1511 c 0,12,13
 764 1511 764 1511 894 1380 c 0,14,15
 1026 1248 1026 1248 1026 1066 c 2,16,-1
 1026 1057 l 1,17,-1
 866 984 l 1,18,-1
 866 1069 l 2,19,20
 866 1188 866 1188 780 1273 c 128,-1,21
 694 1358 694 1358 575 1358 c 0,22,23
 454 1358 454 1358 369 1273.5 c 128,-1,24
 284 1189 284 1189 284 1069 c 2,25,-1
 284 442 l 2,26,27
 284 323 284 323 369 238 c 128,-1,28
 454 153 454 153 575 153 c 0,29,30
 694 153 694 153 780 238 c 0,31,32
 866 322 866 322 866 442 c 2,33,-1
 866 454 l 1,34,-1
 1026 528 l 1,0,-1
EndSplineSet
Validated: 1
EndChar

StartChar: D
Encoding: 68 68 39
Width: 1150
GlyphClass: 2
Flags: W
HStem: 20 153<283 729.098> 1339 153<283 729.098>
VStem: 123 160<173 1338> 867 160<309.235 1202.77>
LayerCount: 2
Fore
SplineSet
283 1338 m 1,0,-1
 283 173 l 1,1,-1
 575 173 l 1,2,-1
 576 173 l 2,3,4
 694 173 694 173 781 258 c 0,5,6
 867 342 867 342 867 462 c 2,7,-1
 867 1050 l 2,8,9
 867 1169 867 1169 781 1254 c 128,-1,10
 695 1339 695 1339 576 1339 c 2,11,-1
 575 1339 l 1,12,-1
 283 1338 l 1,0,-1
575 20 m 1,13,-1
 123 20 l 1,14,-1
 123 1422 l 1,15,-1
 283 1492 l 1,16,-1
 575 1492 l 1,17,-1
 576 1492 l 2,18,19
 763 1492 763 1492 895 1361.5 c 128,-1,20
 1027 1231 1027 1231 1027 1047 c 2,21,-1
 1027 465 l 2,22,23
 1027 281 1027 281 895 150.5 c 128,-1,24
 763 20 763 20 576 20 c 2,25,-1
 575 20 l 1,13,-1
EndSplineSet
Validated: 1
EndChar

StartChar: E
Encoding: 69 69 40
Width: 1150
GlyphClass: 2
Flags: W
HStem: 20 160<364 1006> 675 160<364 876> 1331 161<364 876>
VStem: 204 160<180 675 835 1331>
LayerCount: 2
Fore
SplineSet
364 675 m 1,0,-1
 364 180 l 1,1,-1
 1076 180 l 1,2,-1
 1006 20 l 1,3,-1
 204 20 l 1,4,-1
 204 1422 l 1,5,-1
 364 1492 l 1,6,-1
 946 1491 l 1,7,-1
 876 1331 l 1,8,-1
 364 1331 l 1,9,-1
 364 835 l 1,10,-1
 946 835 l 1,11,-1
 876 675 l 1,12,-1
 364 675 l 1,0,-1
EndSplineSet
Validated: 1
EndChar

StartChar: F
Encoding: 70 70 41
Width: 1150
GlyphClass: 2
Flags: W
HStem: 0 21G<204 249.714> 675 160<364 876> 1331 161<364 876>
VStem: 204 160<70 675 835 1331>
LayerCount: 2
Fore
SplineSet
204 0 m 1,0,-1
 204 1422 l 1,1,-1
 364 1492 l 1,2,-1
 946 1491 l 1,3,-1
 876 1331 l 1,4,-1
 364 1331 l 1,5,-1
 364 835 l 1,6,-1
 946 835 l 1,7,-1
 876 675 l 1,8,-1
 364 675 l 1,9,-1
 364 70 l 1,10,-1
 204 0 l 1,0,-1
EndSplineSet
Validated: 1
EndChar

StartChar: G
Encoding: 71 71 42
Width: 1150
GlyphClass: 2
Flags: W
HStem: 0 153<420.535 727.748> 675 160<639 866> 1358 153<420.781 729.048>
VStem: 124 160<289.132 1221.77> 866 160<289.235 675 1057 1220.67>
LayerCount: 2
Fore
SplineSet
1026 835 m 1,0,-1
 1026 445 l 2,1,2
 1026 261 1026 261 894 130.5 c 128,-1,3
 762 0 762 0 575 0 c 0,4,5
 387 0 387 0 256 130 c 0,6,7
 124 261 124 261 124 445 c 2,8,-1
 124 1066 l 2,9,10
 124 1250 124 1250 256 1380.5 c 128,-1,11
 388 1511 388 1511 575 1511 c 0,12,13
 764 1511 764 1511 894 1380 c 0,14,15
 1026 1248 1026 1248 1026 1066 c 2,16,-1
 1026 1057 l 1,17,-1
 866 984 l 1,18,-1
 866 1069 l 2,19,20
 866 1188 866 1188 780 1273 c 128,-1,21
 694 1358 694 1358 575 1358 c 0,22,23
 454 1358 454 1358 369 1273.5 c 128,-1,24
 284 1189 284 1189 284 1069 c 2,25,-1
 284 442 l 2,26,27
 284 323 284 323 369 238 c 128,-1,28
 454 153 454 153 575 153 c 0,29,30
 690 153 690 153 780 238 c 0,31,32
 866 320 866 320 866 442 c 2,33,-1
 866 675 l 1,34,-1
 569 675 l 1,35,-1
 639 835 l 1,36,-1
 1026 835 l 1,0,-1
EndSplineSet
Validated: 1
EndChar

StartChar: H
Encoding: 72 72 43
Width: 1150
GlyphClass: 2
Flags: W
HStem: 0 21G<124 169.714 866 911.714> 675 160<284 866> 1491 20G<238.286 284 980.286 1026>
VStem: 124 160<70 675 835 1441> 866 160<70 675 835 1441>
LayerCount: 2
Fore
SplineSet
124 0 m 1,0,-1
 124 1441 l 1,1,-1
 284 1511 l 1,2,-1
 284 835 l 1,3,-1
 866 835 l 1,4,-1
 866 1441 l 1,5,-1
 1026 1511 l 1,6,-1
 1026 70 l 1,7,-1
 866 0 l 1,8,-1
 866 675 l 1,9,-1
 284 675 l 1,10,-1
 284 70 l 1,11,-1
 124 0 l 1,0,-1
EndSplineSet
Validated: 1
EndChar

StartChar: I
Encoding: 73 73 44
Width: 1150
GlyphClass: 2
Flags: W
HStem: 20 160<209 495 655 941> 1331 160<209 495 655 941>
VStem: 495 160<180 1331>
LayerCount: 2
Fore
SplineSet
209 1491 m 1,0,-1
 1011 1491 l 1,1,-1
 941 1331 l 1,2,-1
 655 1331 l 1,3,-1
 655 180 l 1,4,-1
 1011 180 l 1,5,-1
 941 20 l 1,6,-1
 139 20 l 1,7,-1
 209 180 l 1,8,-1
 495 180 l 1,9,-1
 495 1331 l 1,10,-1
 139 1331 l 1,11,-1
 209 1491 l 1,0,-1
EndSplineSet
Validated: 1
EndChar

StartChar: J
Encoding: 74 74 45
Width: 1150
GlyphClass: 2
Flags: W
HStem: 0 153<420.952 729.219> 1331 160<341 866>
VStem: 124 160<290.123 454> 866 160<289.235 1331>
LayerCount: 2
Fore
SplineSet
866 1331 m 1,0,-1
 271 1331 l 1,1,-1
 341 1491 l 1,2,-1
 1026 1491 l 1,3,-1
 1026 445 l 2,4,5
 1026 261 1026 261 894 130.5 c 128,-1,6
 762 0 762 0 575 0 c 0,7,8
 386 0 386 0 256 130 c 0,9,10
 124 263 124 263 124 445 c 2,11,-1
 124 454 l 1,12,-1
 284 527 l 1,13,-1
 284 442 l 2,14,15
 284 323 284 323 370 238 c 128,-1,16
 456 153 456 153 575 153 c 0,17,18
 696 153 696 153 781 237.5 c 128,-1,19
 866 322 866 322 866 442 c 2,20,-1
 866 1331 l 1,0,-1
EndSplineSet
Validated: 1
EndChar

StartChar: K
Encoding: 75 75 46
Width: 1150
GlyphClass: 2
Flags: W
HStem: 0 21G<124 169.714 866 911.714> 682 153<556.458 728.59> 1491 20G<238.286 284 822.692 879.857>
VStem: 124 160<70 547.14 738 1441> 866 160<70 545.167>
DStem2: 284 738 554 835 0.581835 0.813307<235.986 950.441>
LayerCount: 2
Fore
SplineSet
124 0 m 1,0,-1
 124 1441 l 1,1,-1
 284 1511 l 1,2,-1
 284 738 l 1,3,-1
 837 1511 l 1,4,-1
 987 1441 l 1,5,-1
 554 835 l 1,6,-1
 575 835 l 2,7,8
 763 835 763 835 894 704 c 0,9,10
 1026 573 1026 573 1026 390 c 2,11,-1
 1026 70 l 1,12,-1
 866 0 l 1,13,-1
 866 393 l 1,14,15
 865 513 865 513 780 597 c 0,16,17
 694 682 694 682 575 682 c 0,18,19
 455 682 455 682 369 597 c 0,20,21
 284 513 284 513 284 396 c 2,22,-1
 284 393 l 1,23,-1
 284 70 l 1,24,-1
 124 0 l 1,0,-1
EndSplineSet
Validated: 1
EndChar

StartChar: L
Encoding: 76 76 47
Width: 1150
GlyphClass: 2
Flags: W
HStem: 20 160<299 941> 1491 20G<253.286 299>
VStem: 139 160<180 1441>
LayerCount: 2
Fore
SplineSet
139 1441 m 1,0,-1
 299 1511 l 1,1,-1
 299 180 l 1,2,-1
 1011 180 l 1,3,-1
 941 20 l 1,4,-1
 139 20 l 1,5,-1
 139 1441 l 1,0,-1
EndSplineSet
Validated: 1
EndChar

StartChar: M
Encoding: 77 77 48
Width: 1150
GlyphClass: 2
Flags: W
HStem: 0 21G<110 155.714 495.016 540.714 880.016 925.714> 1354 157<301.35 466.631 682.156 850.925>
VStem: 110 160<70 1317.9> 496 160<70 1317.9> 880 160<70 1317.9>
LayerCount: 2
Fore
SplineSet
110 0 m 1,0,-1
 110 1239 l 2,1,2
 110 1351 110 1351 190 1431 c 128,-1,3
 270 1511 270 1511 383 1511 c 0,4,5
 500 1511 500 1511 576 1433 c 1,6,7
 656 1511 656 1511 768 1511 c 0,8,9
 888 1511 888 1511 963 1433 c 0,10,11
 1039 1354 1039 1354 1040 1238 c 1,12,-1
 1040 70 l 1,13,-1
 880 0 l 1,14,-1
 881 1234 l 2,15,16
 881 1284 881 1284 848 1319 c 128,-1,17
 815 1354 815 1354 770 1354 c 0,18,19
 723 1354 723 1354 690 1319 c 0,20,21
 656 1283 656 1283 656 1235 c 2,22,-1
 656 1234 l 1,23,-1
 655 70 l 1,24,-1
 495 0 l 1,25,-1
 496 1234 l 2,26,27
 496 1284 496 1284 463 1319 c 128,-1,28
 430 1354 430 1354 385 1354 c 0,29,30
 339 1354 339 1354 305 1319 c 128,-1,31
 271 1284 271 1284 271 1234 c 2,32,-1
 270 70 l 1,33,-1
 110 0 l 1,0,-1
EndSplineSet
Validated: 1
EndChar

StartChar: N
Encoding: 78 78 49
Width: 1150
GlyphClass: 2
Flags: W
HStem: 0 21G<124 169.714 866 911.714> 1358 153<420.983 728.556>
VStem: 124 160<70 1221.77> 866 160<70 1221.77>
LayerCount: 2
Fore
SplineSet
124 0 m 1,0,-1
 124 1066 l 2,1,2
 124 1250 124 1250 256 1380.5 c 128,-1,3
 388 1511 388 1511 575 1511 c 128,-1,4
 762 1511 762 1511 894 1380.5 c 128,-1,5
 1026 1250 1026 1250 1026 1066 c 2,6,-1
 1026 70 l 1,7,-1
 866 0 l 1,8,-1
 866 1069 l 1,9,10
 865 1189 865 1189 780 1273 c 0,11,12
 694 1358 694 1358 575 1358 c 0,13,14
 455 1358 455 1358 369 1273 c 0,15,16
 284 1189 284 1189 284 1072 c 0,17,18
 284 1070 284 1070 284 1069 c 2,19,-1
 284 70 l 1,20,-1
 124 0 l 1,0,-1
EndSplineSet
Validated: 1
EndChar

StartChar: O
Encoding: 79 79 50
Width: 1150
GlyphClass: 2
Flags: W
HStem: 0 153<420.535 728.556> 1358 153<420.781 728.556>
VStem: 124 160<289.132 1221.77> 866 160<289.235 1221.77>
LayerCount: 2
Fore
SplineSet
1026 1066 m 2,0,1
 1026 1066 1026 1066 1026 445 c 0,2,3
 1026 261 1026 261 894 130.5 c 128,-1,4
 762 0 762 0 575 0 c 0,5,6
 387 0 387 0 256 130 c 0,7,8
 124 261 124 261 124 445 c 2,9,-1
 124 1066 l 2,10,11
 124 1250 124 1250 256 1380.5 c 128,-1,12
 388 1511 388 1511 575 1511 c 128,-1,13
 762 1511 762 1511 894 1380.5 c 128,-1,14
 1026 1250 1026 1250 1026 1066 c 2,0,1
284 1069 m 2,15,-1
 284 442 l 2,16,17
 284 323 284 323 369 238 c 128,-1,18
 454 153 454 153 575 153 c 0,19,20
 694 153 694 153 780 238 c 0,21,22
 865 322 865 322 866 442 c 1,23,-1
 866 1069 l 1,24,25
 865 1189 865 1189 780 1273 c 0,26,27
 694 1358 694 1358 575 1358 c 0,28,29
 454 1358 454 1358 369 1273.5 c 128,-1,30
 284 1189 284 1189 284 1069 c 2,15,-1
EndSplineSet
Validated: 1
EndChar

StartChar: P
Encoding: 80 80 51
Width: 1150
GlyphClass: 2
Flags: W
HStem: 0 21G<126 171.714> 589 160<286 734.868> 1331 160<286 735.158>
VStem: 126 160<70 589 749 1331> 871 153<885.535 1193.31>
LayerCount: 2
Fore
SplineSet
286 1331 m 1,0,-1
 286 749 l 1,1,-1
 582 749 l 2,2,3
 701 749 701 749 786 834 c 128,-1,4
 871 919 871 919 871 1040 c 0,5,6
 871 1159 871 1159 786 1245 c 128,-1,7
 701 1331 701 1331 582 1331 c 2,8,-1
 286 1331 l 1,0,-1
126 0 m 1,9,-1
 126 1441 l 1,10,-1
 286 1491 l 1,11,-1
 579 1491 l 2,12,13
 764 1491 764 1491 893 1359 c 0,14,15
 1024 1226 1024 1226 1024 1040 c 0,16,17
 1024 852 1024 852 894 721 c 0,18,19
 763 589 763 589 579 589 c 2,20,-1
 286 589 l 1,21,-1
 286 70 l 1,22,-1
 126 0 l 1,9,-1
EndSplineSet
Validated: 1
EndChar

StartChar: Q
Encoding: 81 81 52
Width: 1150
GlyphClass: 2
Flags: W
HStem: 0 153<387.535 604.38> 1358 153<387.781 695.556>
VStem: 91 160<289.132 1221.77> 833 160<290.456 1221.77>
DStem2: 633 364 470 300 0.692329 -0.721582<0 128.539 326.76 548.646>
LayerCount: 2
Fore
SplineSet
251 1069 m 2,0,-1
 251 442 l 2,1,2
 251 323 251 323 336 238 c 128,-1,3
 421 153 421 153 542 153 c 0,4,5
 575 153 575 153 605 159 c 1,6,-1
 470 300 l 1,7,-1
 633 364 l 1,8,-1
 750 241 l 1,9,10
 832 324 832 324 833 442 c 1,11,-1
 833 1069 l 1,12,13
 832 1189 832 1189 747 1273 c 0,14,15
 661 1358 661 1358 542 1358 c 0,16,17
 421 1358 421 1358 336 1273.5 c 128,-1,18
 251 1189 251 1189 251 1069 c 2,0,-1
993 1066 m 2,19,-1
 993 445 l 2,20,21
 993 261 993 261 861 130 c 2,22,-1
 859 128 l 1,23,-1
 1059 -80 l 1,24,-1
 896 -144 l 1,25,-1
 723 36 l 1,26,27
 640 0 640 0 542 0 c 0,28,29
 354 0 354 0 223 130 c 0,30,31
 91 261 91 261 91 445 c 2,32,-1
 91 1066 l 2,33,34
 91 1250 91 1250 223 1380.5 c 128,-1,35
 355 1511 355 1511 542 1511 c 128,-1,36
 729 1511 729 1511 861 1380.5 c 128,-1,37
 993 1250 993 1250 993 1066 c 2,19,-1
EndSplineSet
Validated: 1
EndChar

StartChar: R
Encoding: 82 82 53
Width: 1150
GlyphClass: 2
Flags: W
HStem: 0 21G<120 165.714 859.662 915> 589 160<280 594> 1331 160<280 729.158>
VStem: 120 160<70 589 749 1331> 865 153<885.535 1193.31>
DStem2: 756 627 594 589 0.423054 -0.906105<-2.09433 615.933>
LayerCount: 2
Fore
SplineSet
120 0 m 1,0,-1
 120 1441 l 1,1,-1
 280 1491 l 1,2,-1
 573 1491 l 2,3,4
 758 1491 758 1491 887 1359 c 0,5,6
 1018 1226 1018 1226 1018 1040 c 0,7,8
 1018 852 1018 852 888 721 c 0,9,10
 828 660 828 660 756 627 c 1,11,-1
 1030 70 l 1,12,-1
 869 0 l 1,13,-1
 594 589 l 1,14,15
 584 589 584 589 573 589 c 2,16,-1
 280 589 l 1,17,-1
 280 70 l 1,18,-1
 120 0 l 1,0,-1
280 1331 m 1,19,-1
 280 749 l 1,20,-1
 576 749 l 2,21,22
 695 749 695 749 780 834 c 128,-1,23
 865 919 865 919 865 1040 c 0,24,25
 865 1159 865 1159 780 1245 c 128,-1,26
 695 1331 695 1331 576 1331 c 2,27,-1
 280 1331 l 1,19,-1
EndSplineSet
Validated: 1
EndChar

StartChar: S
Encoding: 83 83 54
Width: 1150
GlyphClass: 2
Flags: W
HStem: 0 153<421.706 730.465> 1350 161<414.552 675.909>
VStem: 125 160<290.619 458> 170 161<1004.58 1263.91> 764 160<1125 1261.71> 867 158<289.337 598.615>
LayerCount: 2
Fore
SplineSet
574 908 m 0,0,1
 769 886 769 886 893 766 c 0,2,3
 1025 638 1025 638 1025 452 c 2,4,-1
 1025 449 l 2,5,6
 1025 259 1025 259 895 130 c 0,7,8
 764 0 764 0 576 0 c 0,9,10
 386 0 386 0 257 130 c 0,11,12
 125 264 125 264 125 445 c 2,13,-1
 125 458 l 1,14,-1
 285 528 l 1,15,-1
 285 442 l 2,16,17
 285 322 285 322 371 238 c 0,18,19
 457 153 457 153 576 153 c 0,20,21
 697 153 697 153 782 238 c 0,22,23
 867 324 867 324 867 443 c 0,24,25
 867 568 867 568 785 646 c 0,26,27
 691 735 691 735 580 743 c 0,28,29
 390 758 390 758 282 866 c 0,30,31
 170 977 170 977 170 1134 c 0,32,33
 170 1292 170 1292 280 1401 c 0,34,35
 390 1511 390 1511 546 1511 c 0,36,37
 704 1511 704 1511 813 1401 c 0,38,39
 924 1289 924 1289 924 1135 c 2,40,-1
 924 1125 l 1,41,-1
 764 1053 l 1,42,-1
 764 1132 l 1,43,44
 762 1225 762 1225 700 1286 c 0,45,46
 635 1350 635 1350 546 1350 c 256,47,48
 457 1350 457 1350 395 1288 c 0,49,50
 331 1223 331 1223 331 1134 c 256,51,52
 331 1045 331 1045 395 981 c 0,53,54
 455 921 455 921 574 908 c 0,0,1
EndSplineSet
Validated: 1
EndChar

StartChar: T
Encoding: 84 84 55
Width: 1150
GlyphClass: 2
Flags: W
HStem: 0 21G<495 540.714> 1331 160<115 495 655 1035>
VStem: 495 160<70 1331>
LayerCount: 2
Fore
SplineSet
495 0 m 1,0,-1
 495 1331 l 1,1,-1
 45 1331 l 1,2,-1
 115 1491 l 1,3,-1
 1105 1491 l 1,4,-1
 1035 1331 l 1,5,-1
 655 1331 l 1,6,-1
 655 70 l 1,7,-1
 495 0 l 1,0,-1
EndSplineSet
Validated: 1
EndChar

StartChar: U
Encoding: 85 85 56
Width: 1150
GlyphClass: 2
Flags: W
HStem: 0 153<421.444 729.017> 1491 20G<238.286 284 980.286 1026>
VStem: 124 160<289.235 1441> 866 160<289.235 1441>
LayerCount: 2
Fore
SplineSet
124 445 m 2,0,-1
 124 1441 l 1,1,-1
 284 1511 l 1,2,-1
 284 442 l 1,3,4
 285 322 285 322 370 238 c 0,5,6
 456 153 456 153 575 153 c 0,7,8
 695 153 695 153 781 238 c 0,9,10
 866 322 866 322 866 439 c 0,11,12
 866 441 866 441 866 442 c 2,13,-1
 866 1441 l 1,14,-1
 1026 1511 l 1,15,-1
 1026 445 l 2,16,17
 1026 261 1026 261 894 130.5 c 128,-1,18
 762 0 762 0 575 0 c 128,-1,19
 388 0 388 0 256 130.5 c 128,-1,20
 124 261 124 261 124 445 c 2,0,-1
EndSplineSet
Validated: 1
EndChar

StartChar: V
Encoding: 86 86 57
Width: 1150
GlyphClass: 2
Flags: W
HStem: 0 21G<485.824 543.429> 1491 20G<151.286 199.176 952.791 1000.14>
DStem2: 193 1511 47 1441 0.295064 -0.955477<23.8041 1294.64> 575 274 672 70 0.299899 0.953971<0 1271.63>
LayerCount: 2
Fore
SplineSet
492 0 m 1,0,-1
 47 1441 l 1,1,-1
 193 1511 l 1,2,-1
 575 274 l 1,3,-1
 959 1511 l 1,4,-1
 1103 1441 l 1,5,-1
 672 70 l 1,6,-1
 492 0 l 1,0,-1
EndSplineSet
Validated: 1
EndChar

StartChar: W
Encoding: 87 87 58
Width: 1150
GlyphClass: 2
Flags: W
HStem: 0 157<299.075 467.844 683.369 848.65> 1491 20G<224.286 269.984 609.286 654.984 994.286 1040>
VStem: 110 159<193.097 1441> 494 160<193.097 1441> 879 161<193.097 1441>
LayerCount: 2
Fore
SplineSet
110 273 m 1,0,-1
 110 1441 l 1,1,-1
 270 1511 l 1,2,-1
 269 277 l 2,3,4
 269 227 269 227 302 192 c 128,-1,5
 335 157 335 157 380 157 c 0,6,7
 427 157 427 157 460 192 c 0,8,9
 494 228 494 228 494 276 c 2,10,11
 494 276 494 276 494 277 c 2,12,-1
 495 1441 l 1,13,-1
 655 1511 l 1,14,-1
 654 277 l 2,15,16
 654 227 654 227 687 192 c 128,-1,17
 720 157 720 157 765 157 c 0,18,19
 811 157 811 157 845 192 c 128,-1,20
 879 227 879 227 879 277 c 2,21,-1
 880 1441 l 1,22,-1
 1040 1511 l 1,23,-1
 1040 272 l 2,24,25
 1040 160 1040 160 960 80 c 128,-1,26
 880 0 880 0 767 0 c 0,27,28
 650 0 650 0 574 78 c 1,29,30
 494 0 494 0 382 0 c 0,31,32
 262 0 262 0 187 78 c 0,33,34
 111 157 111 157 110 273 c 1,0,-1
EndSplineSet
Validated: 1
EndChar

StartChar: X
Encoding: 88 88 59
Width: 1150
GlyphClass: 2
Flags: W
HStem: 0 21G<186.571 239.664 910.336 963.429> 595 317<416.5 733.5> 1491 20G<184.429 236.686 913.314 965.571>
DStem2: 225 1511 83 1441 0.504504 -0.863409<0 693.759 967.459 1656.25> 83 70 228 0 0.504504 0.863409<12.7145 701.506 975.207 1668.97>
LayerCount: 2
Fore
SplineSet
83 1441 m 1,0,-1
 225 1511 l 1,1,-1
 575 912 l 1,2,-1
 925 1511 l 1,3,-1
 1067 1441 l 1,4,-1
 667 754 l 1,5,-1
 1067 70 l 1,6,-1
 922 0 l 1,7,-1
 575 595 l 1,8,-1
 228 0 l 1,9,-1
 83 70 l 1,10,-1
 483 754 l 1,11,-1
 83 1441 l 1,0,-1
EndSplineSet
Validated: 1
EndChar

StartChar: Y
Encoding: 89 89 60
Width: 1150
GlyphClass: 2
Flags: W
HStem: 0 21G<495 540.714> 458 147<421.11 495 655 728.89> 1491 20G<238.286 284 980.286 1026>
VStem: 124 160<741.132 1441> 495 160<70 467.092> 866 160<741.132 1441>
CounterMasks: 1 1c
LayerCount: 2
Fore
SplineSet
495 0 m 1,0,-1
 495 458 l 1,1,2
 359 481 359 481 256 582 c 0,3,4
 124 713 124 713 124 897 c 2,5,-1
 124 1441 l 1,6,-1
 284 1511 l 1,7,-1
 284 894 l 1,8,9
 285 774 285 774 370 690 c 0,10,11
 456 605 456 605 575 605 c 0,12,13
 695 605 695 605 781 690 c 0,14,15
 866 774 866 774 866 891 c 2,16,-1
 866 894 l 1,17,-1
 866 1441 l 1,18,-1
 1026 1511 l 1,19,-1
 1026 897 l 2,20,21
 1026 713 1026 713 894 582 c 0,22,23
 791 481 791 481 655 458 c 1,24,-1
 655 70 l 1,25,-1
 495 0 l 1,0,-1
EndSplineSet
Validated: 1
EndChar

StartChar: Z
Encoding: 90 90 61
Width: 1150
GlyphClass: 2
Flags: W
HStem: 20 160<360 975> 1331 160<215 759>
DStem2: 105 20 360 180 0.448032 0.894018<257.291 1465.07>
LayerCount: 2
Fore
SplineSet
759 1331 m 1,0,-1
 145 1331 l 1,1,-1
 215 1491 l 1,2,-1
 1017 1491 l 1,3,-1
 360 180 l 1,4,-1
 1045 180 l 1,5,-1
 975 20 l 1,6,-1
 105 20 l 1,7,-1
 759 1331 l 1,0,-1
EndSplineSet
Validated: 1
EndChar

StartChar: bracketleft
Encoding: 91 91 62
Width: 1150
GlyphClass: 2
Flags: W
HStem: -350 160<600 912> 1701 160<600 912>
VStem: 440 160<-190 1701>
LayerCount: 2
Fore
SplineSet
440 1701 m 1,0,-1
 440 1791 l 1,1,-1
 600 1861 l 1,2,-1
 982 1861 l 1,3,-1
 912 1701 l 1,4,-1
 600 1701 l 1,5,-1
 600 -190 l 1,6,-1
 982 -190 l 1,7,-1
 912 -350 l 1,8,-1
 440 -350 l 1,9,-1
 440 1701 l 1,0,-1
EndSplineSet
Validated: 1
EndChar

StartChar: backslash
Encoding: 92 92 63
Width: 1150
GlyphClass: 2
Flags: W
DStem2: 195 1861 50 1793 0.389037 -0.921222<6.23276 2326.26>
LayerCount: 2
Fore
SplineSet
195 1861 m 1,0,-1
 1100 -282 l 1,1,-1
 955 -350 l 1,2,-1
 50 1793 l 1,3,-1
 195 1861 l 1,0,-1
EndSplineSet
Validated: 1
EndChar

StartChar: bracketright
Encoding: 93 93 64
Width: 1150
GlyphClass: 2
Flags: W
HStem: -350 160<238 550> 1701 160<238 550>
VStem: 550 160<-190 1701>
LayerCount: 2
Fore
SplineSet
710 -190 m 1,0,-1
 710 -280 l 1,1,-1
 550 -350 l 1,2,-1
 168 -350 l 1,3,-1
 238 -190 l 1,4,-1
 550 -190 l 1,5,-1
 550 1701 l 1,6,-1
 168 1701 l 1,7,-1
 238 1861 l 1,8,-1
 710 1861 l 1,9,-1
 710 -190 l 1,0,-1
EndSplineSet
Validated: 1
EndChar

StartChar: asciicircum
Encoding: 94 94 65
Width: 1150
GlyphClass: 2
Flags: W
HStem: 1081 430
DStem2: 175 1226 245 1080 0.808825 0.588049<0 375.13> 567 1511 569 1322 0.816968 -0.576683<110.627 499.408>
LayerCount: 2
Fore
SplineSet
567 1511 m 1,0,-1
 975 1223 l 1,1,-1
 905 1081 l 1,2,-1
 569 1322 l 1,3,-1
 245 1080 l 1,4,-1
 175 1226 l 1,5,-1
 567 1511 l 1,0,-1
EndSplineSet
Validated: 1
EndChar

StartChar: underscore
Encoding: 95 95 66
Width: 1150
GlyphClass: 2
Flags: W
HStem: 0 160<209 941>
LayerCount: 2
Fore
SplineSet
209 160 m 1,0,-1
 1011 160 l 1,1,-1
 941 0 l 1,2,-1
 139 0 l 1,3,-1
 209 160 l 1,0,-1
EndSplineSet
Validated: 1
EndChar

StartChar: grave
Encoding: 96 96 67
Width: 1150
GlyphClass: 2
Flags: W
HStem: 1007 504
VStem: 374 402
DStem2: 438 1511 374 1348 0.703976 -0.710224<70.7121 480.13>
LayerCount: 2
Fore
SplineSet
776 1170 m 1,0,-1
 712 1007 l 1,1,-1
 374 1348 l 1,2,-1
 438 1511 l 1,3,-1
 776 1170 l 1,0,-1
EndSplineSet
Validated: 1
EndChar

StartChar: a
Encoding: 97 97 68
Width: 1150
GlyphClass: 2
Flags: W
HStem: 0 162<404.015 664.038> 958 162<444.1 705.032>
VStem: 198 160<207.594 383.669 727 872.613> 792 160<70 559 734 871.695>
DStem2: 385 567 463 425 0.925148 0.379606<-100.055 373.498>
LayerCount: 2
Fore
SplineSet
359 294 m 0,0,1
 359 261 359 261 385 226 c 0,2,3
 433 162 433 162 538 162 c 0,4,5
 602 162 602 162 651 192 c 1,6,-1
 711 41 l 1,7,8
 633 0 633 0 538 0 c 0,9,10
 388 0 388 0 272 110 c 1,11,12
 194 190 194 190 194 294 c 0,13,14
 194 298 194 298 194 302 c 0,15,16
 194 489 194 489 385 567 c 2,17,-1
 792 734 l 1,18,19
 792 829 792 829 729 893.5 c 128,-1,20
 666 958 666 958 570 958 c 0,21,22
 486 958 486 958 422 895 c 0,23,24
 360 834 360 834 358 741 c 1,25,-1
 358 727 l 1,26,-1
 198 656 l 1,27,-1
 198 744 l 2,28,29
 198 884 198 884 318 1012 c 0,30,31
 420 1120 420 1120 576 1120 c 128,-1,32
 732 1120 732 1120 842 1010 c 128,-1,33
 952 900 952 900 952 744 c 2,34,-1
 952 70 l 1,35,-1
 792 0 l 1,36,-1
 792 559 l 1,37,-1
 463 425 l 1,38,39
 359 376 359 376 359 294 c 0,0,1
EndSplineSet
Validated: 1
EndChar

StartChar: b
Encoding: 98 98 69
Width: 1150
GlyphClass: 2
Flags: W
HStem: 0 162<448.638 706.824> 958 162<441.748 706.677> 1491 20G<312.286 358>
VStem: 198 160<249.305 872.979 1053 1441> 792 160<248.305 871.695>
LayerCount: 2
Fore
SplineSet
358 379 m 2,0,1
 358 287 358 287 425 225 c 0,2,3
 493 162 493 162 580 162 c 0,4,5
 664 162 664 162 728 225 c 0,6,7
 790 286 790 286 792 379 c 1,8,-1
 792 741 l 1,9,10
 790 834 790 834 728 895 c 0,11,12
 664 958 664 958 568 958 c 0,13,14
 484 958 484 958 421 895 c 0,15,16
 359 833 359 833 358 747 c 1,17,-1
 358 741 l 1,18,-1
 358 379 l 2,0,1
198 1441 m 1,19,-1
 358 1511 l 1,20,-1
 358 1053 l 1,21,22
 452 1120 452 1120 574 1120 c 0,23,24
 730 1120 730 1120 841 1010 c 128,-1,25
 952 900 952 900 952 744 c 2,26,-1
 952 376 l 2,27,28
 952 220 952 220 841 110 c 128,-1,29
 730 0 730 0 574 0 c 128,-1,30
 418 0 418 0 308 110 c 128,-1,31
 198 220 198 220 198 376 c 2,32,-1
 198 1441 l 1,19,-1
EndSplineSet
Validated: 1
EndChar

StartChar: c
Encoding: 99 99 70
Width: 1150
GlyphClass: 2
Flags: W
HStem: 0 162<448.638 705.9> 958 162<444.614 707.283>
VStem: 198 160<249.305 871.695> 792 160<247.387 393 734 871.695>
LayerCount: 2
Fore
SplineSet
358 379 m 2,0,1
 358 287 358 287 425 225 c 0,2,3
 493 162 493 162 580 162 c 0,4,5
 664 162 664 162 728 225 c 0,6,7
 790 286 790 286 792 379 c 1,8,-1
 792 393 l 1,9,-1
 952 464 l 1,10,-1
 952 376 l 2,11,12
 952 236 952 236 832 108 c 0,13,14
 730 0 730 0 574 0 c 128,-1,15
 418 0 418 0 308 110 c 128,-1,16
 198 220 198 220 198 376 c 2,17,-1
 198 744 l 2,18,19
 198 900 198 900 308 1010 c 128,-1,20
 418 1120 418 1120 574 1120 c 0,21,22
 732 1120 732 1120 841 1010 c 1,23,24
 952 900 952 900 952 744 c 2,25,-1
 952 734 l 1,26,-1
 792 662 l 1,27,-1
 792 741 l 1,28,29
 790 834 790 834 728 895 c 0,30,31
 664 958 664 958 577 958 c 0,32,33
 487 958 487 958 422 895 c 0,34,35
 358 832 358 832 358 744 c 0,36,37
 358 742 358 742 358 741 c 2,38,-1
 358 379 l 2,0,1
EndSplineSet
Validated: 1
EndChar

StartChar: d
Encoding: 100 100 71
Width: 1150
GlyphClass: 2
Flags: W
HStem: 0 162<448.638 706.824> 958 162<441.635 707.04> 1491 20G<906.286 952>
VStem: 198 160<249.305 871.695> 792 160<248.305 873.086 1052 1441>
LayerCount: 2
Fore
SplineSet
358 379 m 2,0,1
 358 287 358 287 425 225 c 0,2,3
 493 162 493 162 580 162 c 0,4,5
 664 162 664 162 728 225 c 0,6,7
 790 286 790 286 792 379 c 1,8,-1
 792 741 l 1,9,10
 790 834 790 834 728 895 c 0,11,12
 664 958 664 958 568 958 c 0,13,14
 484 958 484 958 421 895 c 0,15,16
 359 833 359 833 358 747 c 1,17,-1
 358 741 l 1,18,-1
 358 379 l 2,0,1
952 1511 m 1,19,-1
 952 376 l 2,20,21
 952 220 952 220 841 110 c 128,-1,22
 730 0 730 0 574 0 c 128,-1,23
 418 0 418 0 308 110 c 128,-1,24
 198 220 198 220 198 376 c 2,25,-1
 198 744 l 2,26,27
 198 900 198 900 308 1010 c 128,-1,28
 418 1120 418 1120 574 1120 c 0,29,30
 697 1120 697 1120 792 1052 c 1,31,-1
 792 1441 l 1,32,-1
 952 1511 l 1,19,-1
EndSplineSet
Validated: 1
EndChar

StartChar: e
Encoding: 101 101 72
Width: 1150
GlyphClass: 2
Flags: W
HStem: 0 162<444.968 705.9> 958 162<441.635 707.296>
VStem: 198 160<248.305 386 561 871.695> 792 160<247.387 393>
DStem2: 358 561 358 386 0.913812 0.406138<0 485.987>
LayerCount: 2
Fore
SplineSet
580 162 m 0,0,1
 664 162 664 162 728 225 c 0,2,3
 790 286 790 286 792 379 c 1,4,-1
 792 393 l 1,5,-1
 952 464 l 1,6,-1
 952 376 l 2,7,8
 952 236 952 236 832 108 c 0,9,10
 730 0 730 0 574 0 c 128,-1,11
 418 0 418 0 308 110 c 128,-1,12
 198 220 198 220 198 376 c 2,13,-1
 198 744 l 2,14,15
 198 900 198 900 308 1010 c 128,-1,16
 418 1120 418 1120 574 1120 c 0,17,18
 724 1120 724 1120 841 1010 c 0,19,20
 952 906 952 906 952 744 c 2,21,-1
 952 650 l 1,22,-1
 358 386 l 1,23,24
 358 291 358 291 421 226.5 c 128,-1,25
 484 162 484 162 580 162 c 0,0,1
568 958 m 0,26,27
 484 958 484 958 421 895 c 128,-1,28
 358 832 358 832 358 744 c 0,29,30
 358 742 358 742 358 741 c 2,31,-1
 358 561 l 1,32,-1
 791 754 l 1,33,34
 786 838 786 838 728 895 c 0,35,36
 664 958 664 958 568 958 c 0,26,27
EndSplineSet
Validated: 1
EndChar

StartChar: f
Encoding: 102 102 73
Width: 1150
GlyphClass: 2
Flags: W
HStem: 0 21G<198 243.714> 676 160<146 198 358 760> 1350 161<445.022 704.155>
VStem: 198 160<70 676 836 1262.7> 792 160<1131 1260.73>
LayerCount: 2
Fore
SplineSet
198 0 m 1,0,-1
 198 676 l 1,1,-1
 76 676 l 1,2,-1
 146 836 l 1,3,-1
 198 836 l 1,4,-1
 198 1135 l 2,5,6
 198 1291 198 1291 308 1401 c 128,-1,7
 418 1511 418 1511 574 1511 c 0,8,9
 733 1511 733 1511 841 1401 c 0,10,11
 952 1287 952 1287 952 1135 c 2,12,-1
 952 1131 l 1,13,-1
 792 1061 l 1,14,-1
 792 1132 l 1,15,16
 790 1225 790 1225 728 1286 c 0,17,18
 663 1350 663 1350 574 1350 c 256,19,20
 485 1350 485 1350 421 1286 c 0,21,22
 358 1223 358 1223 358 1135 c 0,23,24
 358 1133 358 1133 358 1132 c 2,25,-1
 358 836 l 1,26,-1
 830 836 l 1,27,-1
 760 676 l 1,28,-1
 358 676 l 1,29,-1
 358 70 l 1,30,-1
 198 0 l 1,0,-1
EndSplineSet
Validated: 1
EndChar

StartChar: g
Encoding: 103 103 74
Width: 1150
GlyphClass: 2
Flags: W
HStem: -400 162<448.77 706.824> 0 162<448.638 707.186> 958 162<441.635 706.677>
VStem: 198 160<249.305 871.695> 792 160<-151.695 68 246.914 871.695>
LayerCount: 2
Fore
SplineSet
792 -21 m 1,0,-1
 792 68 l 1,1,2
 697 0 697 0 574 0 c 0,3,4
 418 0 418 0 308 110 c 128,-1,5
 198 220 198 220 198 376 c 2,6,-1
 198 744 l 2,7,8
 198 900 198 900 308 1010 c 128,-1,9
 418 1120 418 1120 574 1120 c 128,-1,10
 730 1120 730 1120 841 1010 c 128,-1,11
 952 900 952 900 952 744 c 2,12,-1
 952 -24 l 2,13,14
 952 -180 952 -180 841 -290 c 128,-1,15
 730 -400 730 -400 574 -400 c 128,-1,16
 418 -400 418 -400 308 -290 c 0,17,18
 238 -220 238 -220 213 -132 c 1,19,-1
 372 -98 l 1,20,21
 388 -141 388 -141 425 -175 c 0,22,23
 494 -238 494 -238 580 -238 c 0,24,25
 664 -238 664 -238 728 -175 c 0,26,27
 790 -114 790 -114 792 -21 c 1,0,-1
358 379 m 2,28,29
 358 287 358 287 425 225 c 0,30,31
 493 162 493 162 580 162 c 0,32,33
 664 162 664 162 728 225 c 0,34,35
 790 286 790 286 792 379 c 1,36,-1
 792 741 l 1,37,38
 790 834 790 834 728 895 c 0,39,40
 664 958 664 958 568 958 c 0,41,42
 484 958 484 958 421 895 c 0,43,44
 359 833 359 833 358 747 c 1,45,-1
 358 741 l 1,46,-1
 358 379 l 2,28,29
EndSplineSet
Validated: 1
EndChar

StartChar: h
Encoding: 104 104 75
Width: 1150
GlyphClass: 2
Flags: W
HStem: 0 21G<198 243.714 792 837.714> 958 162<441.858 706.787> 1491 20G<312.286 358>
VStem: 198 160<70 872.979 1053 1441> 792 160<70 871.695>
LayerCount: 2
Fore
SplineSet
198 0 m 1,0,-1
 198 1441 l 1,1,-1
 358 1511 l 1,2,-1
 358 1053 l 1,3,4
 452 1120 452 1120 574 1120 c 0,5,6
 730 1120 730 1120 841 1010 c 128,-1,7
 952 900 952 900 952 744 c 2,8,-1
 952 70 l 1,9,-1
 792 0 l 1,10,-1
 792 741 l 1,11,12
 790 834 790 834 728 895 c 0,13,14
 664 958 664 958 577 958 c 0,15,16
 484 958 484 958 421 895 c 0,17,18
 359 833 359 833 358 747 c 1,19,-1
 358 741 l 1,20,-1
 358 70 l 1,21,-1
 198 0 l 1,0,-1
EndSplineSet
Validated: 1
EndChar

StartChar: i
Encoding: 105 105 76
Width: 1150
GlyphClass: 2
Flags: W
HStem: 0 162<443.323 704.166> 1100 20G<312.286 358> 1247 264<185.191 366.809>
VStem: 146 260<1286.71 1471.29> 198 160<248.305 1050> 792 160<252.562 386>
LayerCount: 2
Fore
SplineSet
792 386 m 1,0,-1
 952 456 l 1,1,-1
 952 376 l 2,2,3
 952 220 952 220 842 110 c 128,-1,4
 732 0 732 0 576 0 c 128,-1,5
 420 0 420 0 309 110 c 128,-1,6
 198 220 198 220 198 376 c 2,7,-1
 198 1050 l 1,8,-1
 358 1120 l 1,9,-1
 358 379 l 1,10,11
 360 286 360 286 422 225 c 0,12,13
 486 162 486 162 582 162 c 0,14,15
 666 162 666 162 729 230 c 128,-1,16
 792 298 792 298 792 386 c 1,0,-1
146 1379 m 128,-1,18
 146 1434 146 1434 184 1472.5 c 128,-1,19
 222 1511 222 1511 276 1511 c 128,-1,20
 330 1511 330 1511 368 1472.5 c 128,-1,21
 406 1434 406 1434 406 1379 c 128,-1,22
 406 1324 406 1324 368 1285.5 c 128,-1,23
 330 1247 330 1247 276 1247 c 128,-1,24
 222 1247 222 1247 184 1285.5 c 128,-1,17
 146 1324 146 1324 146 1379 c 128,-1,18
EndSplineSet
Validated: 1
EndChar

StartChar: j
Encoding: 106 106 77
Width: 1150
GlyphClass: 2
Flags: W
HStem: -400 162<444.235 708.365> 1100 20G<872 952> 1247 264<779.191 960.778>
VStem: 198 160<-150.711 386> 740 260<1287.22 1470.78> 792 160<-151.695 1050>
LayerCount: 2
Fore
SplineSet
582 -238 m 0,0,1
 666 -238 666 -238 729 -175 c 128,-1,2
 792 -112 792 -112 792 -24 c 2,3,4
 792 -21 l 2,5,-1
 792 1050 l 1,6,7
 952 1120 l 1,8,-1
 952 -24 l 2,9,10
 952 -180 952 -180 842 -290 c 128,-1,11
 732 -400 732 -400 576 -400 c 0,12,13
 416 -400 416 -400 308 -290 c 0,14,15
 198 -178 198 -178 198 -24 c 2,16,-1
 198 386 l 1,17,-1
 358 456 l 1,18,-1
 358 -21 l 1,19,20
 360 -114 360 -114 422 -175 c 0,21,22
 485 -238 485 -238 582 -238 c 0,0,1
740 1379 m 0,23,24
 740 1433 740 1433 778 1472 c 128,-1,25
 816 1511 816 1511 870 1511 c 0,26,27
 923 1511 923 1511 962 1472 c 0,28,29
 1000 1434 1000 1434 1000 1379 c 0,30,31
 1000 1325 1000 1325 962 1286 c 128,-1,32
 924 1247 924 1247 870 1247 c 128,-1,33
 816 1247 816 1247 778 1285.5 c 128,-1,34
 740 1324 740 1324 740 1379 c 0,23,24
EndSplineSet
Validated: 1
EndChar

StartChar: k
Encoding: 107 107 78
Width: 1150
GlyphClass: 2
Flags: W
HStem: 0 21G<198 243.714 792 837.714> 1100 20G<779.394 843.429> 1491 20G<312.286 358>
VStem: 198 160<70 513.303 691 1441> 792 160<70 509.695>
DStem2: 358 691 646 747 0.717581 0.696475<245.666 615.959>
LayerCount: 2
Fore
SplineSet
198 0 m 1,0,-1
 198 1441 l 1,1,-1
 358 1511 l 1,2,-1
 358 691 l 1,3,-1
 800 1120 l 1,4,-1
 952 1050 l 1,5,-1
 646 747 l 1,6,7
 765 725 765 725 841 648 c 1,8,9
 952 538 952 538 952 382 c 2,10,-1
 952 70 l 1,11,-1
 792 0 l 1,12,-1
 792 379 l 1,13,14
 790 471 790 471 728 533 c 128,-1,15
 666 595 666 595 574 596 c 0,16,17
 486 596 486 596 421 533 c 0,18,19
 358 472 358 472 358 385 c 2,20,-1
 358 379 l 1,21,-1
 358 70 l 1,22,-1
 198 0 l 1,0,-1
EndSplineSet
Validated: 1
EndChar

StartChar: l
Encoding: 108 108 79
Width: 1150
GlyphClass: 2
Flags: W
HStem: 0 162<443.323 704.166> 1491 20G<312.286 358>
VStem: 198 160<248.305 1441> 792 160<252.562 386>
LayerCount: 2
Fore
SplineSet
792 386 m 1,0,-1
 952 456 l 1,1,-1
 952 376 l 2,2,3
 952 220 952 220 842 110 c 128,-1,4
 732 0 732 0 576 0 c 128,-1,5
 420 0 420 0 309 110 c 128,-1,6
 198 220 198 220 198 376 c 2,7,-1
 198 1441 l 1,8,-1
 358 1511 l 1,9,-1
 358 379 l 1,10,11
 360 286 360 286 422 225 c 0,12,13
 486 162 486 162 582 162 c 0,14,15
 666 162 666 162 729 230 c 128,-1,16
 792 298 792 298 792 386 c 1,0,-1
EndSplineSet
Validated: 1
EndChar

StartChar: m
Encoding: 109 109 80
Width: 1150
GlyphClass: 2
Flags: W
HStem: 0 21G<110 155.714 495.024 540.714 880.024 925.714> 963 157<301.35 466.631 682.156 850.925>
VStem: 110 160<70 926.903> 496 160<70 926.903> 880 160<70 926.903>
LayerCount: 2
Fore
SplineSet
110 0 m 1,0,-1
 110 848 l 2,1,2
 110 960 110 960 190 1040 c 128,-1,3
 270 1120 270 1120 383 1120 c 0,4,5
 500 1120 500 1120 576 1042 c 1,6,7
 656 1120 656 1120 768 1120 c 0,8,9
 888 1120 888 1120 963 1042 c 0,10,11
 1039 963 1039 963 1040 847 c 1,12,-1
 1040 70 l 1,13,-1
 880 0 l 1,14,-1
 881 843 l 2,15,16
 881 893 881 893 848 928 c 128,-1,17
 815 963 815 963 770 963 c 0,18,19
 723 963 723 963 690 928 c 0,20,21
 656 892 656 892 656 844 c 2,22,-1
 656 843 l 1,23,-1
 655 70 l 1,24,-1
 495 0 l 1,25,-1
 496 843 l 2,26,27
 496 893 496 893 463 928 c 128,-1,28
 430 963 430 963 385 963 c 0,29,30
 339 963 339 963 305 928 c 128,-1,31
 271 893 271 893 271 843 c 2,32,-1
 270 70 l 1,33,-1
 110 0 l 1,0,-1
EndSplineSet
Validated: 1
EndChar

StartChar: n
Encoding: 110 110 81
Width: 1150
GlyphClass: 2
Flags: W
HStem: 0 21G<198 243.714 792 837.714> 958 162<445.693 706.787>
VStem: 198 160<70 871.695> 792 160<70 871.695>
LayerCount: 2
Fore
SplineSet
198 0 m 1,0,-1
 198 744 l 2,1,2
 198 900 198 900 308 1010 c 128,-1,3
 418 1120 418 1120 574 1120 c 128,-1,4
 730 1120 730 1120 841 1010 c 128,-1,5
 952 900 952 900 952 744 c 2,6,-1
 952 70 l 1,7,-1
 792 0 l 1,8,-1
 792 741 l 1,9,10
 790 834 790 834 728 895 c 0,11,12
 664 958 664 958 577 958 c 0,13,14
 487 958 487 958 422 894 c 0,15,16
 358 832 358 832 358 744 c 0,17,18
 358 742 358 742 358 741 c 2,19,-1
 358 70 l 1,20,-1
 198 0 l 1,0,-1
EndSplineSet
Validated: 1
EndChar

StartChar: o
Encoding: 111 111 82
Width: 1150
GlyphClass: 2
Flags: W
HStem: 0 162<448.638 706.824> 958 162<441.635 706.677>
VStem: 198 160<249.305 871.695> 792 160<248.305 871.695>
LayerCount: 2
Fore
SplineSet
358 379 m 2,0,1
 358 287 358 287 425 225 c 0,2,3
 493 162 493 162 580 162 c 0,4,5
 664 162 664 162 728 225 c 0,6,7
 790 286 790 286 792 379 c 1,8,-1
 792 741 l 1,9,10
 790 834 790 834 728 895 c 0,11,12
 664 958 664 958 568 958 c 0,13,14
 484 958 484 958 421 895 c 0,15,16
 359 833 359 833 358 747 c 1,17,-1
 358 741 l 1,18,-1
 358 379 l 2,0,1
198 744 m 2,19,20
 198 900 198 900 308 1010 c 128,-1,21
 418 1120 418 1120 574 1120 c 128,-1,22
 730 1120 730 1120 841 1010 c 128,-1,23
 952 900 952 900 952 744 c 2,24,-1
 952 376 l 2,25,26
 952 220 952 220 841 110 c 128,-1,27
 730 0 730 0 574 0 c 128,-1,28
 418 0 418 0 308 110 c 128,-1,29
 198 220 198 220 198 376 c 2,30,-1
 198 744 l 2,19,20
EndSplineSet
Validated: 1
EndChar

StartChar: p
Encoding: 112 112 83
Width: 1150
GlyphClass: 2
Flags: W
HStem: -391 21G<198 243.714> 0 162<446.599 705.604> 958 162<442.532 705.457>
VStem: 198 160<-321 68 249.305 871.695> 792 160<248.305 871.695>
LayerCount: 2
Fore
SplineSet
358 379 m 2,0,1
 358 287 358 287 425 225 c 0,2,3
 493 162 493 162 580 162 c 0,4,5
 664 162 664 162 728 225 c 0,6,7
 790 286 790 286 792 379 c 1,8,-1
 792 741 l 1,9,10
 790 834 790 834 728 895 c 0,11,12
 664 958 664 958 568 958 c 0,13,14
 484 958 484 958 421 895 c 0,15,16
 359 833 359 833 358 747 c 1,17,-1
 358 741 l 1,18,-1
 358 379 l 2,0,1
198 -391 m 1,19,-1
 198 744 l 2,20,21
 198 900 198 900 309 1010 c 128,-1,22
 420 1120 420 1120 576 1120 c 128,-1,23
 732 1120 732 1120 842 1010 c 128,-1,24
 952 900 952 900 952 744 c 2,25,-1
 952 376 l 2,26,27
 952 220 952 220 842 110 c 128,-1,28
 732 0 732 0 576 0 c 0,29,30
 453 0 453 0 358 68 c 1,31,-1
 358 -321 l 1,32,-1
 198 -391 l 1,19,-1
EndSplineSet
Validated: 1
EndChar

StartChar: q
Encoding: 113 113 84
Width: 1150
GlyphClass: 2
Flags: W
HStem: -391 21G<792 837.614> 0 162<447.414 707.608> 958 162<442.532 705.457>
VStem: 198 160<249.305 871.695> 792 160<-150 67 246.914 871.695>
LayerCount: 2
Fore
SplineSet
792 -391 m 1,0,-1
 792 67 l 1,1,2
 698 0 698 0 576 0 c 0,3,4
 420 0 420 0 309 110 c 128,-1,5
 198 220 198 220 198 376 c 2,6,-1
 198 744 l 2,7,8
 198 900 198 900 309 1010 c 128,-1,9
 420 1120 420 1120 576 1120 c 128,-1,10
 732 1120 732 1120 842 1010 c 128,-1,11
 952 900 952 900 952 744 c 2,12,-1
 952 -150 l 1,13,-1
 1122 -76 l 1,14,-1
 1182 -220 l 1,15,-1
 792 -391 l 1,0,-1
358 379 m 2,16,17
 358 287 358 287 425 225 c 0,18,19
 493 162 493 162 580 162 c 0,20,21
 664 162 664 162 728 225 c 0,22,23
 790 286 790 286 792 379 c 1,24,-1
 792 741 l 1,25,26
 790 834 790 834 728 895 c 0,27,28
 664 958 664 958 568 958 c 0,29,30
 484 958 484 958 421 895 c 0,31,32
 359 833 359 833 358 747 c 1,33,-1
 358 741 l 1,34,-1
 358 379 l 2,16,17
EndSplineSet
Validated: 1
EndChar

StartChar: r
Encoding: 114 114 85
Width: 1150
GlyphClass: 2
Flags: W
HStem: 0 21G<198 243.714> 958 162<444.482 707.53>
VStem: 198 160<70 871.695> 792 160<740 869.727>
LayerCount: 2
Fore
SplineSet
198 0 m 1,0,-1
 198 744 l 2,1,2
 198 900 198 900 308 1010 c 128,-1,3
 418 1120 418 1120 574 1120 c 0,4,5
 733 1120 733 1120 841 1010 c 0,6,7
 952 896 952 896 952 744 c 2,8,-1
 952 740 l 1,9,-1
 792 670 l 1,10,-1
 792 741 l 1,11,12
 790 834 790 834 728 895 c 0,13,14
 664 958 664 958 577 958 c 0,15,16
 486 958 486 958 422 895 c 128,-1,17
 358 832 358 832 358 744 c 0,18,19
 358 742 358 742 358 741 c 2,20,-1
 358 70 l 1,21,-1
 198 0 l 1,0,-1
EndSplineSet
Validated: 1
EndChar

StartChar: s
Encoding: 115 115 86
Width: 1150
GlyphClass: 2
Flags: W
HStem: 0 162<449.438 710.707> 954 166<480.927 675.617>
VStem: 204 160<247.128 391.871> 286 160<740.097 918.494> 787 160<238.109 471.891>
LayerCount: 2
Fore
SplineSet
582 162 m 0,0,1
 671 162 671 162 729 222 c 1,2,3
 787 284 787 284 787 360 c 0,4,5
 787 427 787 427 729 487 c 0,6,7
 670 547 670 547 569 552 c 0,8,9
 445 558 445 558 372 627 c 0,10,11
 301 694 301 694 287 819 c 0,12,13
 286 828 286 828 286 837 c 0,14,15
 291 946 291 946 374 1031 c 1,16,17
 459 1120 459 1120 581 1120 c 0,18,19
 710 1120 710 1120 788 1031 c 0,20,21
 840 971 840 971 869 872 c 1,22,-1
 724 808 l 1,23,24
 708 874 708 874 675 913 c 1,25,26
 638 954 638 954 580 954 c 0,27,28
 525 954 525 954 484 913 c 0,29,30
 446 875 446 875 446 827 c 0,31,32
 446 825 446 825 446 822 c 0,33,34
 446 774 446 774 482 739 c 0,35,36
 515 706 515 706 578 699 c 0,37,38
 752 679 752 679 845 592 c 1,39,40
 947 494 947 494 947 353 c 2,41,-1
 947 350 l 1,42,43
 945 216 945 216 848 110 c 0,44,45
 746 0 746 0 582 0 c 0,46,47
 425 0 425 0 324 108 c 1,48,49
 211 227 211 227 204 376 c 1,50,-1
 203 386 l 1,51,-1
 363 456 l 1,52,-1
 364 379 l 2,53,54
 365 286 365 286 427 225 c 0,55,56
 491 162 491 162 582 162 c 0,0,1
EndSplineSet
Validated: 1
EndChar

StartChar: t
Encoding: 116 116 87
Width: 1150
GlyphClass: 2
Flags: W
HStem: 0 162<443.357 704.321> 940 160<144 198 358 796> 1491 20G<312.286 358>
VStem: 198 160<248.305 940 1100 1441> 792 160<248.376 386>
LayerCount: 2
Fore
SplineSet
792 386 m 1,0,1
 792 386 792 386 952 456 c 1,2,-1
 952 376 l 2,3,4
 952 220 952 220 842 110 c 128,-1,5
 732 0 732 0 576 0 c 128,-1,6
 420 0 420 0 309 110 c 128,-1,7
 198 220 198 220 198 376 c 2,8,-1
 198 940 l 1,9,-1
 74 940 l 1,10,-1
 144 1100 l 1,11,-1
 198 1100 l 1,12,-1
 198 1441 l 1,13,-1
 358 1511 l 1,14,-1
 358 1100 l 1,15,-1
 866 1100 l 1,16,-1
 796 940 l 1,17,-1
 358 940 l 1,18,-1
 358 379 l 1,19,20
 360 285 360 285 422 225 c 0,21,22
 487 162 487 162 574 162 c 0,23,24
 663 162 663 162 728 226 c 0,25,26
 792 288 792 288 792 386 c 1,0,1
EndSplineSet
Validated: 1
EndChar

StartChar: u
Encoding: 117 117 88
Width: 1150
GlyphClass: 2
Flags: W
HStem: 0 162<443.323 708.365> 1100 20G<312.286 358 872 952>
VStem: 198 160<248.305 1050> 792 160<248.305 1050>
LayerCount: 2
Fore
SplineSet
582 162 m 0,0,1
 666 162 666 162 729 225 c 128,-1,2
 792 288 792 288 792 376 c 0,3,4
 792 378 792 378 792 379 c 2,5,-1
 792 1050 l 1,6,7
 792 1050 792 1050 952 1120 c 1,8,-1
 952 376 l 2,9,10
 952 220 952 220 842 110 c 128,-1,11
 732 0 732 0 576 0 c 128,-1,12
 420 0 420 0 309 110 c 128,-1,13
 198 220 198 220 198 376 c 2,14,-1
 198 1050 l 1,15,-1
 358 1120 l 1,16,-1
 358 379 l 1,17,18
 360 286 360 286 422 225 c 0,19,20
 486 162 486 162 582 162 c 0,0,1
EndSplineSet
Validated: 1
EndChar

StartChar: v
Encoding: 118 118 89
Width: 1150
GlyphClass: 2
Flags: W
HStem: 0 21G<484.057 543.429> 1100 20G<179.286 228.937 923.036 972.143>
DStem2: 221 1120 75 1050 0.3691 -0.92939<11.1686 959.677> 575 228 672 70 0.37966 0.925126<0 952.134>
LayerCount: 2
Fore
SplineSet
492 0 m 1,0,-1
 75 1050 l 1,1,-1
 221 1120 l 1,2,-1
 575 228 l 1,3,-1
 931 1122 l 1,4,-1
 1075 1052 l 1,5,-1
 672 70 l 1,6,-1
 492 0 l 1,0,-1
EndSplineSet
Validated: 1
EndChar

StartChar: w
Encoding: 119 119 90
Width: 1150
GlyphClass: 2
Flags: W
HStem: 0 157<299.075 467.844 683.369 848.65> 1100 20G<224.286 269.976 609.286 654.976 994.286 1040>
VStem: 110 159<193.097 1050> 494 160<193.097 1050> 879 161<193.097 1050>
LayerCount: 2
Fore
SplineSet
110 273 m 1,0,-1
 110 1050 l 1,1,-1
 270 1120 l 1,2,-1
 269 277 l 2,3,4
 269 227 269 227 302 192 c 128,-1,5
 335 157 335 157 380 157 c 0,6,7
 427 157 427 157 460 192 c 0,8,9
 494 228 494 228 494 276 c 2,10,11
 494 276 494 276 494 277 c 2,12,-1
 495 1050 l 1,13,-1
 655 1120 l 1,14,-1
 654 277 l 2,15,16
 654 227 654 227 687 192 c 128,-1,17
 720 157 720 157 765 157 c 0,18,19
 811 157 811 157 845 192 c 128,-1,20
 879 227 879 227 879 277 c 2,21,-1
 880 1050 l 1,22,-1
 1040 1120 l 1,23,-1
 1040 272 l 2,24,25
 1040 160 1040 160 960 80 c 128,-1,26
 880 0 880 0 767 0 c 0,27,28
 650 0 650 0 574 78 c 1,29,30
 494 0 494 0 382 0 c 0,31,32
 262 0 262 0 187 78 c 0,33,34
 111 157 111 157 110 273 c 1,0,-1
EndSplineSet
Validated: 1
EndChar

StartChar: x
Encoding: 120 120 91
Width: 1150
GlyphClass: 2
Flags: W
HStem: 0 21G<225.571 281.128 868.872 924.714> 1100 20G<222.429 277.247 871.799 926.571>
DStem2: 263 1120 121 1050 0.589361 -0.80787<0 537.728 736.464 1270.22> 122 70 267 0 0.588355 0.808603<28.7092 562.473 761.39 1298.54>
LayerCount: 2
Fore
SplineSet
121 1050 m 1,0,-1
 263 1120 l 1,1,-1
 575 682 l 1,2,-1
 886 1120 l 1,3,-1
 1028 1050 l 1,4,-1
 675 562 l 1,5,-1
 1029 70 l 1,6,-1
 883 0 l 1,7,-1
 575 436 l 1,8,-1
 267 0 l 1,9,-1
 122 70 l 1,10,-1
 477 560 l 1,11,-1
 121 1050 l 1,0,-1
EndSplineSet
Validated: 1
EndChar

StartChar: y
Encoding: 121 121 92
Width: 1150
GlyphClass: 2
Flags: W
HStem: -400 162<448.77 706.824> 0 162<443.323 708.252> 1100 20G<312.286 358 906.286 952>
VStem: 198 160<248.305 1050> 792 160<-151.695 67 247.021 1050>
LayerCount: 2
Fore
SplineSet
792 -21 m 1,0,-1
 792 67 l 1,1,2
 698 0 698 0 576 0 c 0,3,4
 420 0 420 0 309 110 c 128,-1,5
 198 220 198 220 198 376 c 2,6,-1
 198 1050 l 1,7,-1
 358 1120 l 1,8,-1
 358 379 l 1,9,10
 360 286 360 286 422 225 c 0,11,12
 486 162 486 162 582 162 c 0,13,14
 666 162 666 162 729 225 c 0,15,16
 791 287 791 287 792 373 c 1,17,-1
 792 379 l 1,18,-1
 792 1050 l 1,19,-1
 952 1120 l 1,20,-1
 952 -24 l 2,21,22
 952 -180 952 -180 841 -290 c 128,-1,23
 730 -400 730 -400 574 -400 c 128,-1,24
 418 -400 418 -400 308 -290 c 0,25,26
 238 -220 238 -220 213 -132 c 1,27,-1
 372 -98 l 1,28,29
 388 -141 388 -141 425 -175 c 0,30,31
 494 -238 494 -238 580 -238 c 0,32,33
 664 -238 664 -238 728 -175 c 0,34,35
 790 -114 790 -114 792 -21 c 1,0,-1
EndSplineSet
Validated: 1
EndChar

StartChar: z
Encoding: 122 122 93
Width: 1150
GlyphClass: 2
Flags: W
HStem: 20 160<449 911> 940 160<268 705>
DStem2: 167 20 449 180 0.504804 0.863234<280.472 1065.76>
LayerCount: 2
Fore
SplineSet
449 180 m 1,0,-1
 981 180 l 1,1,-1
 911 20 l 1,2,-1
 167 20 l 1,3,-1
 705 940 l 1,4,-1
 198 940 l 1,5,-1
 268 1100 l 1,6,-1
 983 1100 l 1,7,-1
 449 180 l 1,0,-1
EndSplineSet
Validated: 1
EndChar

StartChar: braceleft
Encoding: 123 123 94
Width: 1150
GlyphClass: 2
Flags: W
HStem: -349 154<732.256 902> 675 153<135 301.015> 1708 153<735.902 901>
VStem: 438 160<-59.3723 547.24 964.628 1571.87>
LayerCount: 2
Fore
SplineSet
438 1117 m 2,0,-1
 438 1416 l 2,1,2
 438 1600 438 1600 570 1731 c 0,3,4
 702 1861 702 1861 889 1861 c 2,5,-1
 968 1861 l 1,6,-1
 901 1708 l 1,7,-1
 889 1708 l 2,8,9
 770 1708 770 1708 684 1624 c 128,-1,10
 598 1540 598 1540 598 1419 c 2,11,-1
 598 1123 l 1,12,-1
 598 1120 l 2,13,14
 598 937 598 937 466 805 c 0,15,16
 438 777 438 777 407 755 c 1,17,18
 439 734 439 734 466 707 c 0,19,20
 598 575 598 575 598 392 c 2,21,-1
 598 390 l 1,22,-1
 598 93 l 2,23,24
 598 -28 598 -28 684 -112 c 0,25,26
 769 -195 769 -195 889 -196 c 1,27,-1
 969 -195 l 1,28,-1
 902 -349 l 1,29,30
 895 -350 895 -350 889 -349 c 0,31,32
 662 -311 662 -311 570 -219 c 0,33,34
 438 -87 438 -87 438 96 c 2,35,-1
 438 395 l 2,36,37
 438 516 438 516 352 595 c 0,38,39
 272 669 272 669 147 675 c 0,40,41
 127 675 127 675 108 675 c 0,42,43
 88 675 88 675 68 675 c 1,44,-1
 135 828 l 1,45,-1
 147 828 l 2,46,47
 266 828 266 828 352 912 c 128,-1,48
 438 996 438 996 438 1117 c 2,0,-1
EndSplineSet
Validated: 1
EndChar

StartChar: bar
Encoding: 124 124 95
Width: 1150
GlyphClass: 2
Flags: W
VStem: 495 160<-280 1791>
LayerCount: 2
Fore
SplineSet
495 1791 m 1,0,-1
 655 1861 l 1,1,-1
 655 -280 l 1,2,-1
 495 -350 l 1,3,-1
 495 1791 l 1,0,-1
EndSplineSet
Validated: 1
EndChar

StartChar: braceright
Encoding: 125 125 96
Width: 1150
GlyphClass: 2
Flags: W
HStem: -349 153<249 414.098> 684 153<848.985 1015> 1707 154<248 417.744>
VStem: 552 160<-59.8679 547.372 964.76 1571.37>
LayerCount: 2
Fore
SplineSet
712 395 m 2,0,-1
 712 96 l 2,1,2
 712 -88 712 -88 580 -219 c 0,3,4
 448 -349 448 -349 261 -349 c 2,5,-1
 182 -349 l 1,6,-1
 249 -196 l 1,7,-1
 261 -196 l 2,8,9
 380 -196 380 -196 466 -112 c 128,-1,10
 552 -28 552 -28 552 93 c 2,11,-1
 552 389 l 1,12,-1
 552 392 l 2,13,14
 552 575 552 575 684 707 c 0,15,16
 712 735 712 735 743 757 c 1,17,18
 711 778 711 778 684 805 c 0,19,20
 552 937 552 937 552 1120 c 2,21,-1
 552 1122 l 1,22,-1
 552 1419 l 2,23,24
 552 1540 552 1540 466 1624 c 0,25,26
 381 1707 381 1707 261 1708 c 1,27,-1
 181 1707 l 1,28,-1
 248 1861 l 1,29,30
 255 1862 255 1862 261 1861 c 0,31,32
 488 1823 488 1823 580 1731 c 0,33,34
 712 1599 712 1599 712 1416 c 2,35,-1
 712 1117 l 2,36,37
 712 996 712 996 798 917 c 0,38,39
 878 843 878 843 1003 837 c 0,40,41
 1023 837 1023 837 1042 837 c 0,42,43
 1062 837 1062 837 1082 837 c 1,44,-1
 1015 684 l 1,45,-1
 1003 684 l 2,46,47
 884 684 884 684 798 600 c 128,-1,48
 712 516 712 516 712 395 c 2,0,-1
EndSplineSet
Validated: 1
EndChar

StartChar: asciitilde
Encoding: 126 126 97
Width: 1150
GlyphClass: 2
Flags: W
HStem: 596 162<667.188 832.253> 752 154<319.564 517.654>
LayerCount: 2
Fore
SplineSet
126 587 m 0,0,1
 126 726 126 726 207 819 c 0,2,3
 283 906 283 906 395 906 c 0,4,5
 496 906 496 906 595 846 c 0,6,7
 730 764 730 764 737 762 c 0,8,9
 751 758 751 758 764 758 c 0,10,11
 803 759 803 759 830 792 c 0,12,13
 838 802 838 802 848 838 c 1,14,-1
 1024 918 l 1,15,16
 1016 779 1016 779 945 685 c 0,17,18
 878 596 878 596 753 596 c 0,19,20
 684 596 684 596 549 688 c 0,21,22
 455 752 455 752 404 752 c 0,23,24
 356 752 356 752 322 718 c 0,25,26
 302 698 302 698 294 652 c 1,27,-1
 126 580 l 1,28,29
 126 586 126 586 126 587 c 0,0,1
EndSplineSet
Validated: 1
EndChar

StartChar: exclamdown
Encoding: 161 161 99
Width: 1150
GlyphClass: 2
Flags: W
HStem: 0 21G<495 540.714> 1247 264<484.191 665.809>
VStem: 445 260<1286.71 1471.29> 495 160<70 1091>
LayerCount: 2
Fore
SplineSet
655 70 m 1,0,-1
 495 0 l 1,1,-1
 495 1091 l 1,2,-1
 655 1161 l 1,3,-1
 655 70 l 1,0,-1
705 1379 m 128,-1,5
 705 1324 705 1324 667 1285.5 c 128,-1,6
 629 1247 629 1247 575 1247 c 128,-1,7
 521 1247 521 1247 483 1285.5 c 128,-1,8
 445 1324 445 1324 445 1379 c 128,-1,9
 445 1434 445 1434 483 1472.5 c 128,-1,10
 521 1511 521 1511 575 1511 c 128,-1,11
 629 1511 629 1511 667 1472.5 c 128,-1,4
 705 1434 705 1434 705 1379 c 128,-1,5
EndSplineSet
Validated: 1
EndChar

StartChar: cent
Encoding: 162 162 100
Width: 1150
GlyphClass: 2
Flags: W
VStem: 198 160<248.305 871.695> 495 160<-280 19.0068 176 944 1100.99 1408> 792 160<247.387 393 734 871.203>
CounterMasks: 1 e0
LayerCount: 2
Fore
SplineSet
952 464 m 1,0,-1
 952 376 l 2,1,2
 952 236 952 236 832 108 c 0,3,4
 758 29 758 29 655 8 c 1,5,-1
 655 -280 l 1,6,-1
 495 -350 l 1,7,-1
 495 8 l 1,8,9
 389 29 389 29 308 110 c 0,10,11
 198 220 198 220 198 376 c 2,12,-1
 198 744 l 2,13,14
 198 900 198 900 308 1010 c 0,15,16
 389 1091 389 1091 495 1112 c 1,17,-1
 495 1408 l 1,18,-1
 655 1478 l 1,19,-1
 655 1112 l 1,20,21
 761 1090 761 1090 841 1010 c 0,22,23
 952 899 952 899 952 744 c 2,24,-1
 952 734 l 1,25,-1
 792 662 l 1,26,-1
 792 741 l 1,27,28
 790 834 790 834 728 895 c 0,29,30
 695 928 695 928 655 944 c 1,31,-1
 655 176 l 1,32,33
 695 192 695 192 728 225 c 0,34,35
 790 286 790 286 792 379 c 1,36,-1
 792 393 l 1,37,-1
 952 464 l 1,0,-1
358 379 m 2,38,39
 358 288 358 288 421 225 c 0,40,41
 455 191 455 191 495 176 c 1,42,-1
 495 944 l 1,43,44
 455 929 455 929 421 895 c 0,45,46
 358 832 358 832 358 744 c 0,47,48
 358 742 358 742 358 741 c 2,49,-1
 358 379 l 2,38,39
EndSplineSet
Validated: 1
EndChar

StartChar: sterling
Encoding: 163 163 101
Width: 1150
GlyphClass: 2
Flags: W
HStem: 20 160<360 1002> 562 160<148 200 360 677> 1350 161<447.022 706.155>
VStem: 200 160<180 562 722 1262.7> 794 160<1131 1260.73>
LayerCount: 2
Fore
SplineSet
360 180 m 1,0,-1
 1072 180 l 1,1,-1
 1002 20 l 1,2,-1
 200 20 l 1,3,-1
 200 562 l 1,4,-1
 78 562 l 1,5,-1
 148 722 l 1,6,-1
 200 722 l 1,7,-1
 200 1135 l 2,8,9
 200 1291 200 1291 310 1401 c 128,-1,10
 420 1511 420 1511 576 1511 c 0,11,12
 735 1511 735 1511 843 1401 c 0,13,14
 954 1287 954 1287 954 1135 c 2,15,-1
 954 1131 l 1,16,-1
 794 1061 l 1,17,-1
 794 1132 l 1,18,19
 792 1225 792 1225 730 1286 c 0,20,21
 665 1350 665 1350 576 1350 c 128,-1,22
 487 1350 487 1350 423 1286 c 0,23,24
 360 1223 360 1223 360 1135 c 2,25,-1
 360 1132 l 1,26,-1
 360 722 l 1,27,-1
 747 722 l 1,28,-1
 677 562 l 1,29,-1
 360 562 l 1,30,-1
 360 180 l 1,0,-1
EndSplineSet
Validated: 1
EndChar

StartChar: currency
Encoding: 164 164 102
Width: 1150
GlyphClass: 2
Flags: W
HStem: 368 162<454.368 718.776> 958 162<453.233 719.211>
VStem: 209 161<614.562 873.276> 804 159<613.588 872.453>
DStem2: 236 1201 73 1138 0.716415 -0.697674<0 210.585 930.347 1101.08> 73 384 236 321 0.724117 0.689677<74.5815 258.711 981.15 1161.41>
LayerCount: 2
Fore
SplineSet
370 747 m 1,0,1
 371 655 371 655 433 593 c 0,2,3
 496 530 496 530 580 530 c 0,4,5
 673 530 673 530 737 589 c 128,-1,6
 801 648 801 648 804 741 c 1,7,8
 802 834 802 834 740 895 c 0,9,10
 676 958 676 958 580 958 c 0,11,12
 496 958 496 958 433 895 c 0,13,14
 371 833 371 833 370 747 c 1,0,1
963 746 m 0,15,16
 963 623 963 623 912 545 c 1,17,-1
 1077 382 l 1,18,-1
 914 319 l 1,19,-1
 796 435 l 1,20,21
 695 368 695 368 586 368 c 0,22,23
 463 368 463 368 365 439 c 1,24,-1
 236 321 l 1,25,-1
 73 384 l 1,26,-1
 259 556 l 1,27,28
 209 640 209 640 209 750 c 128,-1,29
 209 860 209 860 270 950 c 1,30,-1
 73 1138 l 1,31,-1
 236 1201 l 1,32,-1
 383 1062 l 1,33,34
 472 1120 472 1120 586 1120 c 0,35,36
 701 1120 701 1120 789 1063 c 1,37,-1
 914 1185 l 1,38,-1
 1077 1122 l 1,39,-1
 901 951 l 1,40,41
 963 857 963 857 963 746 c 0,15,16
EndSplineSet
Validated: 1
EndChar

StartChar: yen
Encoding: 165 165 103
Width: 1150
GlyphClass: 2
Flags: W
HStem: 0 21G<501 546.714> 355 160<236 478 660 938> 675 160<236 329 809 938> 1491 20G<151.286 202.793 949.089 1000.14>
VStem: 501 159<70 355>
DStem2: 193 1511 47 1441 0.421974 -0.906608<1.85433 670.255> 624 835 809 835 0.436927 0.899497<80.8315 754.383>
LayerCount: 2
Fore
SplineSet
166 355 m 1,0,-1
 236 515 l 1,1,-1
 478 515 l 1,2,-1
 403 675 l 1,3,-1
 166 675 l 1,4,-1
 236 835 l 1,5,-1
 329 835 l 1,6,-1
 47 1441 l 1,7,-1
 193 1511 l 1,8,-1
 524 835 l 1,9,-1
 624 835 l 1,10,-1
 959 1511 l 1,11,-1
 1103 1441 l 1,12,-1
 809 835 l 1,13,-1
 1008 835 l 1,14,-1
 938 675 l 1,15,-1
 731 675 l 1,16,-1
 672 554 l 1,17,-1
 660 529 l 1,18,-1
 660 515 l 1,19,-1
 1008 515 l 1,20,-1
 938 355 l 1,21,-1
 660 355 l 1,22,-1
 661 70 l 1,23,-1
 501 0 l 1,24,-1
 501 355 l 1,25,-1
 166 355 l 1,0,-1
EndSplineSet
Validated: 1
EndChar

StartChar: brokenbar
Encoding: 166 166 104
Width: 1150
GlyphClass: 2
Flags: W
VStem: 495 160<-280 600 910 1791>
LayerCount: 2
Fore
SplineSet
655 670 m 1,0,-1
 655 -280 l 1,1,-1
 495 -350 l 1,2,-1
 495 600 l 1,3,-1
 655 670 l 1,0,-1
495 840 m 1,4,-1
 495 1791 l 1,5,-1
 655 1861 l 1,6,-1
 655 910 l 1,7,-1
 495 840 l 1,4,-1
EndSplineSet
Validated: 1
EndChar

StartChar: section
Encoding: 167 167 105
Width: 1150
GlyphClass: 2
Flags: W
HStem: 0 166<480.383 675.073> 409 147<452.37 677.172> 961 147<475.039 697.63> 1344 166<472.927 667.617>
VStem: 208 160<636.109 889.243> 278 160<208.225 253.958 1129.73 1308.49> 710 160<201.506 374.875 1256.04 1301.77> 782 160<635.838 877.145>
LayerCount: 2
Fore
SplineSet
724 896 m 1,0,1
 665 956 665 956 564 961 c 1,2,3
 480 961 480 961 415 894 c 1,4,5
 368 832 368 832 368 748 c 0,6,7
 368 681 368 681 426 621 c 0,8,9
 485 561 485 561 586 556 c 1,10,11
 663 556 663 556 727 622 c 1,12,13
 782 684 782 684 782 769 c 0,14,15
 782 792 782 792 775 815 c 1,16,17
 758 859 758 859 724 896 c 1,0,1
942 762 m 2,18,-1
 942 759 l 1,19,20
 940 624 940 624 843 519 c 0,21,22
 819 493 819 493 791 473 c 1,23,24
 857 407 857 407 869 301 c 0,25,26
 870 292 870 292 870 283 c 0,27,28
 865 174 865 174 782 89 c 1,29,30
 697 0 697 0 575 0 c 0,31,32
 446 0 446 0 368 89 c 0,33,34
 316 149 316 149 287 248 c 1,35,-1
 432 312 l 1,36,37
 448 246 448 246 481 207 c 1,38,39
 518 166 518 166 576 166 c 0,40,41
 631 166 631 166 672 207 c 0,42,43
 710 245 710 245 710 293 c 2,44,-1
 710 298 l 2,45,46
 710 333 710 333 673 369 c 0,47,48
 640 402 640 402 577 409 c 1,49,50
 410 409 410 409 310 516 c 1,51,52
 208 614 208 614 208 755 c 2,53,-1
 208 758 l 1,54,55
 210 893 210 893 307 998 c 0,56,57
 331 1024 331 1024 359 1044 c 1,58,59
 290 1110 290 1110 279 1209 c 0,60,61
 278 1221 278 1221 278 1227 c 0,62,63
 283 1336 283 1336 366 1421 c 1,64,65
 451 1510 451 1510 573 1510 c 0,66,67
 702 1510 702 1510 780 1421 c 0,68,69
 832 1361 832 1361 861 1262 c 1,70,-1
 716 1198 l 1,71,72
 700 1264 700 1264 667 1303 c 1,73,74
 630 1344 630 1344 572 1344 c 0,75,76
 517 1344 517 1344 476 1303 c 0,77,78
 438 1265 438 1265 438 1217 c 2,79,-1
 438 1212 l 2,80,81
 438 1152 438 1152 474 1129 c 0,82,83
 507 1108 507 1108 573 1108 c 0,84,85
 740 1108 740 1108 840 1001 c 1,86,87
 942 903 942 903 942 762 c 2,18,-1
EndSplineSet
Validated: 1
EndChar

StartChar: dieresis
Encoding: 168 168 106
Width: 1150
GlyphClass: 2
Flags: W
HStem: 1247 264<258.191 439.809 710.191 891.809>
VStem: 219 260<1286.71 1471.29> 671 260<1286.71 1471.29>
LayerCount: 2
Fore
SplineSet
671 1379 m 128,-1,1
 671 1434 671 1434 709 1472.5 c 128,-1,2
 747 1511 747 1511 801 1511 c 128,-1,3
 855 1511 855 1511 893 1472.5 c 128,-1,4
 931 1434 931 1434 931 1379 c 128,-1,5
 931 1324 931 1324 893 1285.5 c 128,-1,6
 855 1247 855 1247 801 1247 c 128,-1,7
 747 1247 747 1247 709 1285.5 c 128,-1,0
 671 1324 671 1324 671 1379 c 128,-1,1
219 1379 m 128,-1,9
 219 1434 219 1434 257 1472.5 c 128,-1,10
 295 1511 295 1511 349 1511 c 128,-1,11
 403 1511 403 1511 441 1472.5 c 128,-1,12
 479 1434 479 1434 479 1379 c 128,-1,13
 479 1324 479 1324 441 1285.5 c 128,-1,14
 403 1247 403 1247 349 1247 c 128,-1,15
 295 1247 295 1247 257 1285.5 c 128,-1,8
 219 1324 219 1324 219 1379 c 128,-1,9
EndSplineSet
Validated: 1
EndChar

StartChar: copyright
Encoding: 169 169 107
Width: 1150
GlyphClass: 2
Flags: W
HStem: 180 79<389.499 762.229> 417 135<493.61 672.741> 952 134<493.465 670.755> 1251 80<386.931 764.969>
VStem: 25 74<566.018 943.982> 336 139<572.646 931.426> 691 139<571.145 673 834 930.504> 1051 75<560.265 949.908>
LayerCount: 2
Fore
SplineSet
576 1331 m 0,0,1
 686 1331 686 1331 786 1288 c 0,2,3
 882 1247 882 1247 965 1161 c 0,4,5
 1045 1078 1045 1078 1086 975 c 0,6,7
 1126 874 1126 874 1126 754 c 0,8,9
 1126 638 1126 638 1086 535 c 0,10,11
 1048 437 1048 437 965 350 c 0,12,13
 886 267 886 267 786 223 c 0,14,15
 688 180 688 180 576 180 c 0,16,17
 465 180 465 180 365 223 c 0,18,19
 269 264 269 264 186 350 c 0,20,21
 105 434 105 434 65 535 c 128,-1,22
 25 636 25 636 25 754 c 0,23,24
 25 873 25 873 65 975 c 128,-1,25
 105 1077 105 1077 186 1161 c 0,26,27
 267 1246 267 1246 365 1288.5 c 128,-1,28
 463 1331 463 1331 576 1331 c 0,0,1
576 1251 m 0,29,30
 478 1251 478 1251 395 1215 c 128,-1,31
 312 1179 312 1179 241 1105 c 0,32,33
 171 1032 171 1032 135 944 c 128,-1,34
 99 856 99 856 99 759 c 0,35,36
 99 757 99 757 99 754 c 0,37,38
 99 655 99 655 135 566 c 0,39,40
 169 483 169 483 241 406 c 0,41,42
 311 332 311 332 394 296 c 0,43,44
 479 259 479 259 576 259 c 128,-1,45
 673 259 673 259 758 296 c 0,46,47
 841 332 841 332 912 406 c 0,48,49
 981 478 981 478 1016 565 c 128,-1,50
 1051 652 1051 652 1051 754 c 0,51,52
 1051 857 1051 857 1016 945 c 0,53,54
 982 1031 982 1031 912 1105 c 0,55,56
 843 1178 843 1178 758 1215 c 0,57,58
 673 1251 673 1251 576 1251 c 0,29,30
586 552 m 0,59,60
 627 552 627 552 659 581 c 0,61,62
 691 609 691 609 691 650 c 2,63,-1
 691 673 l 1,64,-1
 830 731 l 1,65,-1
 830 649 l 2,66,67
 830 560 830 560 752 483 c 0,68,69
 685 417 685 417 576 417 c 0,70,71
 481 417 481 417 408 485 c 0,72,73
 336 552 336 552 336 649 c 2,74,-1
 336 854 l 2,75,76
 336 953 336 953 408 1019 c 0,77,78
 481 1086 481 1086 582 1086 c 128,-1,79
 683 1086 683 1086 757 1018 c 0,80,81
 830 951 830 951 830 854 c 2,82,-1
 830 834 l 1,83,-1
 691 775 l 1,84,-1
 691 852 l 2,85,86
 691 893 691 893 659 922 c 0,87,88
 626 952 626 952 587 952 c 0,89,90
 585 952 585 952 584 952 c 0,91,92
 541 952 541 952 507 922 c 0,93,94
 475 894 475 894 475 854 c 2,95,-1
 475 650 l 2,96,97
 475 608 475 608 508 581 c 0,98,99
 543 552 543 552 586 552 c 0,59,60
EndSplineSet
Validated: 1
EndChar

StartChar: ordfeminine
Encoding: 170 170 108
Width: 1150
GlyphClass: 2
Flags: W
HStem: 648 160<210 942> 840 134<485.858 652.656> 1377 134<487.783 661.278>
VStem: 330 138<1254 1356.49> 682 138<921 1142>
DStem2: 330 1140 471 1053 0.922376 0.386294<96.4474 325.449>
LayerCount: 2
Fore
SplineSet
210 808 m 1,0,-1
 1012 808 l 1,1,-1
 942 648 l 1,2,-1
 140 648 l 1,3,-1
 210 808 l 1,0,-1
682 1142 m 1,4,-1
 471 1053 l 1,5,6
 477 1024 477 1024 499 1004 c 0,7,8
 532 974 532 974 573 974 c 2,9,-1
 575 974 l 2,10,11
 606 974 606 974 631 988 c 2,12,-1
 653 1001 l 1,13,-1
 682 921 l 1,14,-1
 682 1142 l 1,4,-1
566 840 m 0,15,16
 477 840 477 840 403 907 c 0,17,18
 330 973 330 973 330 1073 c 2,19,-1
 330 1140 l 1,20,-1
 681 1287 l 1,21,22
 676 1323 676 1323 650 1348 c 0,23,24
 620 1377 620 1377 574 1377 c 2,25,-1
 572 1377 l 2,26,27
 531 1377 531 1377 499 1347 c 0,28,29
 468 1319 468 1319 468 1277 c 2,30,-1
 468 1254 l 1,31,-1
 330 1196 l 1,32,-1
 330 1279 l 2,33,34
 330 1367 330 1367 407 1444 c 0,35,36
 474 1511 474 1511 575 1511 c 0,37,38
 677 1511 677 1511 749 1443 c 0,39,40
 820 1376 820 1376 820 1279 c 2,41,-1
 820 887 l 1,42,-1
 682 829 l 1,43,-1
 682 862 l 1,44,45
 634 840 634 840 566 840 c 0,15,16
EndSplineSet
Validated: 1
EndChar

StartChar: guillemotleft
Encoding: 171 171 109
Width: 1150
GlyphClass: 2
Flags: W
DStem2: 321 763 130 753 0.585812 -0.810447<0 577.32> 130 753 321 763 0.577698 0.81625<118.503 695.865> 666 762 475 752 0.585812 -0.810447<0 577.32> 475 752 666 762 0.578655 0.815573<118.679 696.443>
LayerCount: 2
Fore
SplineSet
475 752 m 1,0,-1
 878 1320 l 1,1,-1
 1020 1250 l 1,2,-1
 666 762 l 1,3,-1
 1020 270 l 1,4,-1
 874 200 l 1,5,-1
 475 752 l 1,0,-1
130 753 m 1,6,-1
 532 1321 l 1,7,-1
 674 1251 l 1,8,-1
 321 763 l 1,9,-1
 675 271 l 1,10,-1
 529 201 l 1,11,-1
 130 753 l 1,6,-1
EndSplineSet
Validated: 1
EndChar

StartChar: logicalnot
Encoding: 172 172 110
Width: 1150
GlyphClass: 2
Flags: W
HStem: 675 160<209 759>
DStem2: 611 309 815 372 0.389835 0.920885<137.542 394.739>
LayerCount: 2
Fore
SplineSet
209 835 m 1,0,-1
 1011 835 l 1,1,-1
 815 372 l 1,2,-1
 611 309 l 1,3,-1
 759 675 l 1,4,-1
 139 675 l 1,5,-1
 209 835 l 1,0,-1
EndSplineSet
Validated: 1
EndChar

StartChar: uni00AD
Encoding: 173 173 111
Width: 1150
GlyphClass: 2
Flags: W
HStem: 675 160<209 941>
LayerCount: 2
Fore
SplineSet
209 835 m 1,0,-1
 1011 835 l 1,1,-1
 941 675 l 1,2,-1
 139 675 l 1,3,-1
 209 835 l 1,0,-1
EndSplineSet
Validated: 1
EndChar

StartChar: registered
Encoding: 174 174 112
Width: 1150
GlyphClass: 2
Flags: W
HStem: 180 79<389.499 762.229> 671 130<495 591> 973 130<495 688.868> 1251 80<386.931 763.651>
VStem: 25 74<566.018 943.982> 357 138<469 671 801 973> 705 135<817.684 956.057> 1051 75<560.265 949.969>
DStem2: 730 705 591 671 0.469849 -0.882747<-6.34122 245.646>
LayerCount: 2
Fore
SplineSet
576 1331 m 0,0,1
 686 1331 686 1331 786 1288 c 0,2,3
 882 1247 882 1247 965 1161 c 0,4,5
 1045 1078 1045 1078 1086 975 c 0,6,7
 1126 874 1126 874 1126 754 c 0,8,9
 1126 638 1126 638 1086 535 c 0,10,11
 1048 437 1048 437 965 350 c 0,12,13
 886 267 886 267 786 223 c 0,14,15
 688 180 688 180 576 180 c 0,16,17
 465 180 465 180 365 223 c 0,18,19
 269 264 269 264 186 350 c 0,20,21
 105 434 105 434 65 535 c 128,-1,22
 25 636 25 636 25 754 c 0,23,24
 25 873 25 873 65 975 c 128,-1,25
 105 1077 105 1077 186 1161 c 0,26,27
 267 1246 267 1246 365 1288.5 c 128,-1,28
 463 1331 463 1331 576 1331 c 0,0,1
576 1251 m 0,29,30
 478 1251 478 1251 395 1215 c 128,-1,31
 312 1179 312 1179 241 1105 c 0,32,33
 171 1032 171 1032 135 944 c 128,-1,34
 99 856 99 856 99 759 c 0,35,36
 99 757 99 757 99 754 c 0,37,38
 99 655 99 655 135 566 c 0,39,40
 169 483 169 483 241 406 c 0,41,42
 311 332 311 332 394 296 c 0,43,44
 479 259 479 259 576 259 c 128,-1,45
 673 259 673 259 758 296 c 0,46,47
 841 332 841 332 912 406 c 0,48,49
 981 478 981 478 1016 565 c 128,-1,50
 1051 652 1051 652 1051 754 c 0,51,52
 1051 857 1051 857 1016 945 c 128,-1,53
 981 1033 981 1033 912 1105 c 0,54,55
 843 1178 843 1178 758 1214.5 c 128,-1,56
 673 1251 673 1251 576 1251 c 0,29,30
495 671 m 1,57,-1
 495 469 l 1,58,-1
 357 417 l 1,59,-1
 357 1075 l 1,60,-1
 459 1103 l 1,61,-1
 600 1103 l 2,62,63
 699 1103 699 1103 768 1041 c 0,64,65
 840 976 840 976 840 889 c 2,66,-1
 840 887 l 1,67,68
 839 796 839 796 768 733 c 0,69,70
 750 717 750 717 730 705 c 1,71,-1
 859 475 l 1,72,-1
 723 423 l 1,73,-1
 591 671 l 1,74,-1
 495 671 l 1,57,-1
495 973 m 1,75,-1
 495 801 l 1,76,-1
 602 801 l 2,77,78
 642 801 642 801 675 827 c 0,79,80
 705 851 705 851 705 886 c 2,81,-1
 705 887 l 2,82,83
 705 919 705 919 674 947 c 0,84,85
 645 973 645 973 602 973 c 2,86,-1
 495 973 l 1,75,-1
EndSplineSet
Validated: 1
EndChar

StartChar: macron
Encoding: 175 175 113
Width: 1150
GlyphClass: 2
Flags: W
HStem: 1351 160<209 941>
LayerCount: 2
Fore
SplineSet
209 1511 m 1,0,-1
 1011 1511 l 1,1,-1
 941 1351 l 1,2,-1
 139 1351 l 1,3,-1
 209 1511 l 1,0,-1
EndSplineSet
Validated: 1
EndChar

StartChar: degree
Encoding: 176 176 114
Width: 1150
GlyphClass: 2
Flags: W
HStem: 852 148<453.157 697.418> 1366 146<456.132 696.543>
VStem: 239 151<1062.72 1301.9> 762 149<1065.62 1298.79>
LayerCount: 2
Fore
SplineSet
390 1183 m 0,0,1
 390 1105 390 1105 444 1053 c 0,2,3
 499 1000 499 1000 576 1000 c 128,-1,4
 653 1000 653 1000 707 1053 c 0,5,6
 762 1107 762 1107 762 1183 c 0,7,8
 762 1257 762 1257 707 1312 c 0,9,10
 653 1366 653 1366 576 1366 c 128,-1,11
 499 1366 499 1366 444.5 1312.5 c 128,-1,12
 390 1259 390 1259 390 1183 c 0,0,1
239 1182 m 128,-1,14
 239 1319 239 1319 337.5 1415.5 c 128,-1,15
 436 1512 436 1512 575 1512 c 128,-1,16
 714 1512 714 1512 812.5 1415.5 c 128,-1,17
 911 1319 911 1319 911 1182 c 128,-1,18
 911 1045 911 1045 812.5 948.5 c 128,-1,19
 714 852 714 852 575 852 c 128,-1,20
 436 852 436 852 337.5 948.5 c 128,-1,13
 239 1045 239 1045 239 1182 c 128,-1,14
EndSplineSet
Validated: 1
EndChar

StartChar: plusminus
Encoding: 177 177 115
Width: 1150
GlyphClass: 2
Flags: W
HStem: 244 160<209 941> 818 160<209 495 655 941>
VStem: 495 160<532 818 978 1264>
LayerCount: 2
Fore
SplineSet
655 532 m 1,0,-1
 495 462 l 1,1,-1
 495 818 l 1,2,-1
 139 818 l 1,3,-1
 209 978 l 1,4,-1
 495 978 l 1,5,-1
 495 1264 l 1,6,-1
 655 1334 l 1,7,-1
 655 978 l 1,8,-1
 1011 978 l 1,9,-1
 941 818 l 1,10,-1
 655 818 l 1,11,-1
 655 532 l 1,0,-1
209 404 m 1,12,-1
 1011 404 l 1,13,-1
 941 244 l 1,14,-1
 139 244 l 1,15,-1
 209 404 l 1,12,-1
EndSplineSet
Validated: 1
EndChar

StartChar: uni00B2
Encoding: 178 178 116
Width: 1150
GlyphClass: 2
Flags: W
HStem: 832 130<524 781> 1384 127<479.32 654.534>
VStem: 326 142<1265.65 1368.77> 678 139<1230.21 1356.22>
DStem2: 570 1189 604 1049 0.831088 0.556141<-159.929 155.853>
LayerCount: 2
Fore
SplineSet
524 962 m 1,0,-1
 847 962 l 1,1,-1
 781 832 l 1,2,-1
 303 832 l 1,3,-1
 360 959 l 1,4,5
 436 1103 436 1103 570 1189 c 1,6,-1
 653 1241 l 2,7,8
 678 1257 678 1257 678 1290 c 2,9,-1
 678 1296 l 1,10,11
 677 1332 677 1332 648 1357 c 0,12,13
 617 1384 617 1384 571 1384 c 128,-1,14
 525 1384 525 1384 495 1357 c 128,-1,15
 465 1330 465 1330 465 1299 c 1,16,-1
 467 1279 l 1,17,-1
 468 1271 l 1,18,-1
 326 1218 l 1,19,-1
 325 1295 l 1,20,21
 325 1385 325 1385 398 1449 c 0,22,23
 469 1511 469 1511 571 1511 c 0,24,25
 672 1511 672 1511 744 1449 c 128,-1,26
 816 1387 816 1387 817 1286 c 1,27,28
 817 1286 817 1286 817 1284 c 0,29,30
 817 1192 817 1192 737 1138 c 2,31,-1
 604 1049 l 1,32,33
 554 1005 554 1005 524 962 c 1,0,-1
EndSplineSet
Validated: 1
EndChar

StartChar: uni00B3
Encoding: 179 179 117
Width: 1150
GlyphClass: 2
Flags: W
HStem: 845 125<485.866 644.152> 1382 129<396 571>
VStem: 335 138<984.961 1084> 672 139<996.845 1112.37>
LayerCount: 2
Fore
SplineSet
574 845 m 128,-1,1
 476 845 476 845 407 906 c 0,2,3
 335 970 335 970 335 1056 c 2,4,-1
 335 1084 l 1,5,-1
 473 1136 l 1,6,-1
 473 1055 l 2,7,8
 473 1022 473 1022 501 997 c 0,9,10
 531 970 531 970 572 970 c 2,11,-1
 574 970 l 2,12,13
 618 970 618 970 645 996 c 1,14,15
 671 1023 671 1023 672 1056 c 0,16,17
 673 1093 673 1093 649 1113 c 0,18,19
 611 1145 611 1145 573 1145 c 2,20,-1
 553 1145 l 1,21,22
 531 1146 531 1146 506 1136 c 2,23,-1
 501 1134 l 1,24,-1
 444 1185 l 1,25,-1
 571 1382 l 1,26,-1
 333 1382 l 1,27,-1
 396 1511 l 1,28,-1
 817 1511 l 1,29,-1
 653 1260 l 1,30,31
 700 1244 700 1244 740 1210 c 0,32,33
 811 1150 811 1150 811 1059 c 2,34,-1
 811 1058 l 2,35,36
 811 966 811 966 741 905 c 0,37,0
 672 845 672 845 574 845 c 128,-1,1
EndSplineSet
Validated: 1
EndChar

StartChar: acute
Encoding: 180 180 118
Width: 1150
GlyphClass: 2
Flags: W
HStem: 1007 504
VStem: 374 402
DStem2: 374 1170 438 1007 0.703976 0.710224<0 409.418>
LayerCount: 2
Fore
SplineSet
374 1170 m 1,0,-1
 712 1511 l 1,1,-1
 776 1348 l 1,2,-1
 438 1007 l 1,3,-1
 374 1170 l 1,0,-1
EndSplineSet
Validated: 1
EndChar

StartChar: uni00B5
Encoding: 181 181 119
Width: 1150
GlyphClass: 2
Flags: W
HStem: -390 21G<198 243.714> 0 162<442.96 708.365> 1100 20G<312.286 358 906.286 952>
VStem: 198 160<-320 68 246.914 1050> 792 160<248.305 1050>
LayerCount: 2
Fore
SplineSet
582 162 m 0,0,1
 666 162 666 162 729 225 c 128,-1,2
 792 288 792 288 792 376 c 0,3,4
 792 378 792 378 792 379 c 2,5,-1
 792 1050 l 1,6,-1
 952 1120 l 1,7,-1
 952 376 l 2,8,9
 952 220 952 220 842 110 c 128,-1,10
 732 0 732 0 576 0 c 0,11,12
 453 0 453 0 358 68 c 1,13,-1
 358 -320 l 1,14,-1
 198 -390 l 1,15,-1
 198 1050 l 1,16,-1
 358 1120 l 1,17,-1
 358 379 l 1,18,19
 360 286 360 286 422 225 c 0,20,21
 486 162 486 162 582 162 c 0,0,1
EndSplineSet
Validated: 1
EndChar

StartChar: paragraph
Encoding: 182 182 120
Width: 1150
GlyphClass: 2
Flags: W
HStem: 0 21G<736 781.455> 1439 52<786 842>
VStem: 254 532<840.654 1235.89> 736 50<22 589> 842 54<70 1439>
LayerCount: 2
Fore
SplineSet
896 1491 m 1,0,-1
 896 70 l 1,1,-1
 842 46 l 1,2,-1
 842 1439 l 1,3,-1
 786 1439 l 1,4,-1
 786 22 l 1,5,-1
 736 0 l 1,6,-1
 736 589 l 1,7,-1
 700 589 l 2,8,9
 516 589 516 589 384 721 c 0,10,11
 254 851 254 851 254 1037 c 0,12,13
 254 1039 254 1039 254 1040 c 0,14,15
 254 1223 254 1223 386 1359 c 0,16,17
 514 1491 514 1491 700 1491 c 2,18,-1
 896 1491 l 1,0,-1
EndSplineSet
Validated: 1
EndChar

StartChar: periodcentered
Encoding: 183 183 121
Width: 1150
GlyphClass: 2
Flags: W
HStem: 620 264<484.191 665.809>
VStem: 445 260<659.707 844.293>
LayerCount: 2
Fore
SplineSet
445 752 m 128,-1,1
 445 807 445 807 483 845.5 c 128,-1,2
 521 884 521 884 575 884 c 128,-1,3
 629 884 629 884 667 845.5 c 128,-1,4
 705 807 705 807 705 752 c 128,-1,5
 705 697 705 697 667 658.5 c 128,-1,6
 629 620 629 620 575 620 c 128,-1,7
 521 620 521 620 483 658.5 c 128,-1,0
 445 697 445 697 445 752 c 128,-1,1
EndSplineSet
Validated: 1
EndChar

StartChar: cedilla
Encoding: 184 184 122
Width: 1150
GlyphClass: 2
Flags: W
HStem: -491 175<414 589>
VStem: 418 318<-526 -491>
DStem2: 588 144 472 13 0.411434 -0.91144<71.6723 349.996>
LayerCount: 2
Fore
SplineSet
414 -316 m 1,0,-1
 590 -243 l 1,1,-1
 472 13 l 1,2,-1
 588 144 l 1,3,-1
 732 -175 l 1,4,-1
 736 -351 l 1,5,-1
 418 -491 l 1,6,-1
 414 -316 l 1,0,-1
EndSplineSet
Validated: 1
EndChar

StartChar: uni00B9
Encoding: 185 185 123
Width: 1150
GlyphClass: 2
Flags: W
HStem: 1491 20G<624.383 678>
VStem: 536 142<842 1277>
LayerCount: 2
Fore
SplineSet
536 1277 m 1,0,-1
 448 1207 l 1,1,-1
 360 1307 l 1,2,-1
 552 1464 l 1,3,-1
 678 1511 l 1,4,-1
 678 842 l 1,5,-1
 536 789 l 1,6,-1
 536 1277 l 1,0,-1
EndSplineSet
Validated: 1
EndChar

StartChar: ordmasculine
Encoding: 186 186 124
Width: 1150
GlyphClass: 2
Flags: W
HStem: 648 160<210 942> 842 134<485.982 656.073> 1377 134<485.685 662.755>
VStem: 328 139<997.659 1356.43> 683 139<1005.91 1355.5>
LayerCount: 2
Fore
SplineSet
210 808 m 1,0,-1
 1012 808 l 1,1,-1
 942 648 l 1,2,-1
 140 648 l 1,3,-1
 210 808 l 1,0,-1
576 976 m 1,4,5
 621 976 621 976 651 1005 c 128,-1,6
 681 1034 681 1034 683 1076 c 1,7,-1
 683 1277 l 1,8,9
 681 1318 681 1318 651 1347 c 0,10,11
 620 1377 620 1377 577 1377 c 2,12,-1
 576 1377 l 2,13,14
 533 1377 533 1377 499 1347 c 0,15,16
 467 1319 467 1319 467 1279 c 2,17,-1
 467 1075 l 2,18,19
 467 1032 467 1032 501 1005 c 0,20,21
 537 977 537 977 576 976 c 1,4,5
400 909 m 0,22,23
 328 977 328 977 328 1074 c 2,24,-1
 328 1279 l 2,25,26
 328 1374 328 1374 401 1443 c 0,27,28
 473 1511 473 1511 574 1511 c 128,-1,29
 675 1511 675 1511 749 1443 c 0,30,31
 822 1376 822 1376 822 1279 c 2,32,-1
 822 1074 l 2,33,34
 822 986 822 986 744 908 c 0,35,36
 677 842 677 842 572 842 c 0,37,38
 471 842 471 842 400 909 c 0,22,23
EndSplineSet
Validated: 1
EndChar

StartChar: guillemotright
Encoding: 187 187 125
Width: 1150
GlyphClass: 2
Flags: W
DStem2: 272 1320 130 1250 0.578655 -0.815573<0 577.764> 130 270 276 200 0.585812 0.810447<28.7973 606.117> 475 271 621 201 0.585812 0.810447<28.7973 606.117> 618 1321 476 1251 0.577698 -0.81625<0 577.362>
LayerCount: 2
Fore
SplineSet
675 752 m 1,0,-1
 276 200 l 1,1,-1
 130 270 l 1,2,-1
 484 762 l 1,3,-1
 130 1250 l 1,4,-1
 272 1320 l 1,5,-1
 675 752 l 1,0,-1
1020 753 m 1,6,-1
 621 201 l 1,7,-1
 475 271 l 1,8,-1
 829 763 l 1,9,-1
 476 1251 l 1,10,-1
 618 1321 l 1,11,-1
 1020 753 l 1,6,-1
EndSplineSet
Validated: 1
EndChar

StartChar: onequarter
Encoding: 188 188 126
Width: 1150
GlyphClass: 2
Flags: W
HStem: 0 21G<899 947.727> 169 122<805 899 1033 1057> 1491 20G<296.383 350>
VStem: 208 142<842 1277> 899 134<55 169 300 425>
DStem2: 50 486 142 355 0.805816 0.592166<0 1185.42>
LayerCount: 2
Fore
SplineSet
1008 1190 m 1,0,-1
 1100 1059 l 1,1,-1
 142 355 l 1,2,-1
 50 486 l 1,3,-1
 1008 1190 l 1,0,-1
208 1277 m 1,4,-1
 121 1207 l 1,5,-1
 33 1307 l 1,6,-1
 224 1464 l 1,7,-1
 350 1511 l 1,8,-1
 350 842 l 1,9,-1
 208 789 l 1,10,-1
 208 1277 l 1,4,-1
899 0 m 1,11,-1
 899 169 l 1,12,-1
 584 169 l 1,13,-1
 637 282 l 1,14,-1
 910 654 l 1,15,-1
 1033 702 l 1,16,-1
 1033 300 l 1,17,-1
 1117 300 l 1,18,-1
 1057 169 l 1,19,-1
 1033 169 l 1,20,-1
 1033 55 l 1,21,-1
 899 0 l 1,11,-1
805 291 m 1,22,-1
 899 291 l 1,23,-1
 899 425 l 1,24,-1
 805 291 l 1,22,-1
EndSplineSet
Validated: 1
EndChar

StartChar: onehalf
Encoding: 189 189 127
Width: 1150
GlyphClass: 2
Flags: W
HStem: 0 130<771 1028> 552 127<726.32 901.534> 1491 20G<296.383 350>
VStem: 208 142<842 1277> 573 142<433.649 536.773> 925 139<398.211 524.216>
DStem2: 50 486 142 355 0.805816 0.592166<0 1185.42> 817 357 851 217 0.831088 0.556141<-159.929 155.853>
LayerCount: 2
Fore
SplineSet
1008 1190 m 1,0,-1
 1100 1059 l 1,1,-1
 142 355 l 1,2,-1
 50 486 l 1,3,-1
 1008 1190 l 1,0,-1
771 130 m 1,4,-1
 1094 130 l 1,5,-1
 1028 0 l 1,6,-1
 550 0 l 1,7,-1
 607 127 l 1,8,9
 683 271 683 271 817 357 c 1,10,-1
 900 409 l 2,11,12
 925 425 925 425 925 458 c 2,13,-1
 925 464 l 1,14,15
 924 500 924 500 895 525 c 0,16,17
 864 552 864 552 818 552 c 128,-1,18
 772 552 772 552 742 525 c 128,-1,19
 712 498 712 498 712 467 c 1,20,-1
 714 447 l 1,21,-1
 715 439 l 1,22,-1
 573 386 l 1,23,-1
 572 463 l 1,24,25
 572 553 572 553 645 617 c 0,26,27
 716 679 716 679 818 679 c 0,28,29
 919 679 919 679 991 617 c 128,-1,30
 1063 555 1063 555 1064 454 c 1,31,-1
 1064 452 l 2,32,33
 1064 360 1064 360 984 306 c 2,34,-1
 851 217 l 1,35,36
 801 173 801 173 771 130 c 1,4,-1
208 1277 m 1,37,-1
 121 1207 l 1,38,-1
 33 1307 l 1,39,-1
 224 1464 l 1,40,-1
 350 1511 l 1,41,-1
 350 842 l 1,42,-1
 208 789 l 1,43,-1
 208 1277 l 1,37,-1
EndSplineSet
Validated: 1
EndChar

StartChar: threequarters
Encoding: 190 190 128
Width: 1150
GlyphClass: 2
Flags: W
HStem: 0 21G<899 947.727> 169 122<805 899 1033 1057> 845 125<198.866 357.152> 1382 129<109 284>
VStem: 48 138<984.961 1084> 385 139<996.845 1112.37> 899 134<55 169 300 425>
DStem2: 50 486 142 355 0.805816 0.592166<0 1185.42>
LayerCount: 2
Fore
SplineSet
1008 1190 m 1,0,-1
 1100 1059 l 1,1,-1
 142 355 l 1,2,-1
 50 486 l 1,3,-1
 1008 1190 l 1,0,-1
287 845 m 128,-1,5
 189 845 189 845 120 906 c 0,6,7
 48 970 48 970 48 1056 c 2,8,-1
 48 1084 l 1,9,-1
 186 1136 l 1,10,-1
 186 1055 l 2,11,12
 186 1022 186 1022 214 997 c 0,13,14
 244 970 244 970 285 970 c 2,15,-1
 287 970 l 2,16,17
 331 970 331 970 358 996 c 1,18,19
 384 1023 384 1023 385 1056 c 0,20,21
 386 1093 386 1093 362 1113 c 0,22,23
 324 1145 324 1145 286 1145 c 2,24,-1
 266 1145 l 1,25,26
 244 1146 244 1146 219 1136 c 2,27,-1
 214 1134 l 1,28,-1
 157 1185 l 1,29,-1
 284 1382 l 1,30,-1
 46 1382 l 1,31,-1
 109 1511 l 1,32,-1
 530 1511 l 1,33,-1
 366 1260 l 1,34,35
 413 1244 413 1244 453 1210 c 0,36,37
 524 1150 524 1150 524 1059 c 2,38,-1
 524 1058 l 2,39,40
 524 966 524 966 454 905 c 0,41,4
 385 845 385 845 287 845 c 128,-1,5
899 0 m 1,42,-1
 899 169 l 1,43,-1
 584 169 l 1,44,-1
 637 282 l 1,45,-1
 910 654 l 1,46,-1
 1033 702 l 1,47,-1
 1033 300 l 1,48,-1
 1117 300 l 1,49,-1
 1057 169 l 1,50,-1
 1033 169 l 1,51,-1
 1033 55 l 1,52,-1
 899 0 l 1,42,-1
805 291 m 1,53,-1
 899 291 l 1,54,-1
 899 425 l 1,55,-1
 805 291 l 1,53,-1
EndSplineSet
Validated: 1
EndChar

StartChar: questiondown
Encoding: 191 191 129
Width: 1150
GlyphClass: 2
Flags: W
HStem: 0 153<419.535 727.846> 1247 264<570.191 751.809>
VStem: 125 158<289.39 596.593> 531 260<1286.71 1471.29> 584 160<975.157 1043> 865 160<290.824 452>
LayerCount: 2
Fore
SplineSet
283 443 m 0,0,1
 283 325 283 325 368 238 c 1,2,3
 453 153 453 153 574 153 c 0,4,5
 692 153 692 153 779 238 c 0,6,7
 865 322 865 322 865 434 c 0,8,9
 865 438 865 438 865 442 c 2,10,-1
 865 452 l 1,11,-1
 1025 522 l 1,12,-1
 1025 445 l 2,13,14
 1025 264 1025 264 893 131 c 0,15,16
 763 0 763 0 574 0 c 0,17,18
 386 0 386 0 255 130 c 0,19,20
 125 259 125 259 125 449 c 2,21,-1
 125 451 l 2,22,23
 125 636 125 636 273 762 c 1,24,25
 285 779 285 779 515 908 c 1,26,27
 573 939 573 939 584 989 c 1,28,29
 588 1001 588 1001 584 1043 c 1,30,-1
 744 1113 l 1,31,32
 744 1105 744 1105 741 971 c 0,33,34
 739 856 739 856 519 737 c 0,35,36
 414 680 414 680 367 642 c 0,37,38
 283 574 283 574 283 443 c 0,0,1
791 1379 m 128,-1,40
 791 1324 791 1324 753 1285.5 c 128,-1,41
 715 1247 715 1247 661 1247 c 128,-1,42
 607 1247 607 1247 569 1285.5 c 128,-1,43
 531 1324 531 1324 531 1379 c 128,-1,44
 531 1434 531 1434 569 1472.5 c 128,-1,45
 607 1511 607 1511 661 1511 c 128,-1,46
 715 1511 715 1511 753 1472.5 c 128,-1,39
 791 1434 791 1434 791 1379 c 128,-1,40
EndSplineSet
Validated: 1
EndChar

StartChar: Agrave
Encoding: 192 192 130
Width: 1150
GlyphClass: 2
Flags: W
HStem: 0 21G<124 169.714 866 911.714> 675 160<284 866> 1358 153<420.983 728.556>
VStem: 124 160<70 675 835 1221.77> 866 160<70 675 835 1221.77>
DStem2: 357 2022 293 1859 0.717065 -0.697007<67.72 398.848>
LayerCount: 2
Fore
SplineSet
643 1744 m 1,0,-1
 579 1581 l 1,1,-1
 293 1859 l 1,2,-1
 357 2022 l 1,3,-1
 643 1744 l 1,0,-1
1026 1066 m 2,4,-1
 1026 70 l 1,5,-1
 866 0 l 1,6,-1
 866 675 l 1,7,-1
 284 675 l 1,8,-1
 284 70 l 1,9,-1
 124 0 l 1,10,-1
 124 1066 l 2,11,12
 124 1250 124 1250 256 1380.5 c 128,-1,13
 388 1511 388 1511 575 1511 c 128,-1,14
 762 1511 762 1511 894 1380.5 c 128,-1,15
 1026 1250 1026 1250 1026 1066 c 2,4,-1
284 835 m 1,16,-1
 866 835 l 1,17,-1
 866 1069 l 1,18,19
 865 1189 865 1189 780 1273 c 0,20,21
 694 1358 694 1358 575 1358 c 0,22,23
 455 1358 455 1358 369 1273 c 0,24,25
 284 1189 284 1189 284 1072 c 2,26,-1
 284 1069 l 1,27,-1
 284 835 l 1,16,-1
EndSplineSet
Validated: 1
EndChar

StartChar: Aacute
Encoding: 193 193 131
Width: 1150
GlyphClass: 2
Flags: W
HStem: 0 21G<124 169.714 866 911.714> 675 160<284 866> 1358 153<420.983 728.556>
VStem: 124 160<70 675 835 1221.77> 866 160<70 675 835 1221.77>
DStem2: 511 1744 575 1581 0.717065 0.697007<0 331.128>
LayerCount: 2
Fore
SplineSet
511 1744 m 1,0,-1
 797 2022 l 1,1,-1
 861 1859 l 1,2,-1
 575 1581 l 1,3,-1
 511 1744 l 1,0,-1
1026 1066 m 2,4,-1
 1026 70 l 1,5,-1
 866 0 l 1,6,-1
 866 675 l 1,7,-1
 284 675 l 1,8,-1
 284 70 l 1,9,-1
 124 0 l 1,10,-1
 124 1066 l 2,11,12
 124 1250 124 1250 256 1380.5 c 128,-1,13
 388 1511 388 1511 575 1511 c 128,-1,14
 762 1511 762 1511 894 1380.5 c 128,-1,15
 1026 1250 1026 1250 1026 1066 c 2,4,-1
284 835 m 1,16,-1
 866 835 l 1,17,-1
 866 1069 l 1,18,19
 865 1189 865 1189 780 1273 c 0,20,21
 694 1358 694 1358 575 1358 c 0,22,23
 455 1358 455 1358 369 1273 c 0,24,25
 284 1189 284 1189 284 1072 c 2,26,-1
 284 1069 l 1,27,-1
 284 835 l 1,16,-1
EndSplineSet
Validated: 1
EndChar

StartChar: Acircumflex
Encoding: 194 194 132
Width: 1150
GlyphClass: 2
Flags: W
HStem: 0 21G<124 169.714 866 911.714> 675 160<284 866> 1358 153<420.983 728.556>
VStem: 124 160<70 675 835 1221.77> 866 160<70 675 835 1221.77>
LayerCount: 2
Fore
SplineSet
577 1972 m 1,0,-1
 834 1736 l 1,1,-1
 762 1590 l 1,2,-1
 576 1787 l 1,3,-1
 382 1590 l 1,4,-1
 315 1732 l 1,5,-1
 577 1972 l 1,0,-1
1026 1066 m 2,6,-1
 1026 70 l 1,7,-1
 866 0 l 1,8,-1
 866 675 l 1,9,-1
 284 675 l 1,10,-1
 284 70 l 1,11,-1
 124 0 l 1,12,-1
 124 1066 l 2,13,14
 124 1250 124 1250 256 1380.5 c 128,-1,15
 388 1511 388 1511 575 1511 c 128,-1,16
 762 1511 762 1511 894 1380.5 c 128,-1,17
 1026 1250 1026 1250 1026 1066 c 2,6,-1
284 835 m 1,18,-1
 866 835 l 1,19,-1
 866 1069 l 1,20,21
 865 1189 865 1189 780 1273 c 0,22,23
 694 1358 694 1358 575 1358 c 0,24,25
 455 1358 455 1358 369 1273 c 0,26,27
 284 1189 284 1189 284 1072 c 2,28,-1
 284 1069 l 1,29,-1
 284 835 l 1,18,-1
EndSplineSet
Validated: 1
EndChar

StartChar: Atilde
Encoding: 195 195 133
Width: 1150
GlyphClass: 2
Flags: W
HStem: 0 21G<124 169.714 866 911.714> 675 160<284 866> 1358 153<420.983 728.556>
VStem: 124 160<70 675 835 1221.77> 866 160<70 675 835 1221.77>
DStem2: 256 1380.5 369 1273 0.70838 0.705832<-151.438 157.303 590.805 789.06>
LayerCount: 2
Fore
SplineSet
284 835 m 1,0,-1
 866 835 l 1,1,-1
 866 1069 l 1,2,3
 865 1189 865 1189 780 1273 c 0,4,5
 694 1358 694 1358 575 1358 c 0,6,7
 455 1358 455 1358 369 1273 c 0,8,9
 284 1189 284 1189 284 1072 c 2,10,-1
 284 1069 l 1,11,-1
 284 835 l 1,0,-1
1026 1066 m 2,12,-1
 1026 70 l 1,13,-1
 866 0 l 1,14,-1
 866 675 l 1,15,-1
 284 675 l 1,16,-1
 284 70 l 1,17,-1
 124 0 l 1,18,-1
 124 1066 l 2,19,20
 124 1250 124 1250 256 1380.5 c 128,-1,21
 388 1511 388 1511 575 1511 c 128,-1,22
 762 1511 762 1511 894 1380.5 c 128,-1,23
 1026 1250 1026 1250 1026 1066 c 2,12,-1
681 1791 m 1,24,-1
 853 1973 l 1,25,-1
 925 1827 l 1,26,-1
 668 1591 l 1,27,-1
 468 1774 l 1,28,-1
 288 1591 l 1,29,-1
 221 1733 l 1,30,-1
 483 1973 l 1,31,-1
 681 1791 l 1,24,-1
EndSplineSet
Validated: 1
EndChar

StartChar: Adieresis
Encoding: 196 196 134
Width: 1150
GlyphClass: 2
Flags: W
HStem: 0 21G<124 169.714 866 911.714> 675 160<284 866> 1358 153<420.983 728.556> 1611 264<261.191 442.809 713.191 894.809>
VStem: 124 160<70 675 835 1221.77> 222 260<1650.71 1835.29> 674 260<1650.71 1835.29> 866 160<70 675 835 1221.77>
LayerCount: 2
Fore
SplineSet
674 1743 m 128,-1,1
 674 1798 674 1798 712 1836.5 c 128,-1,2
 750 1875 750 1875 804 1875 c 128,-1,3
 858 1875 858 1875 896 1836.5 c 128,-1,4
 934 1798 934 1798 934 1743 c 128,-1,5
 934 1688 934 1688 896 1649.5 c 128,-1,6
 858 1611 858 1611 804 1611 c 128,-1,7
 750 1611 750 1611 712 1649.5 c 128,-1,0
 674 1688 674 1688 674 1743 c 128,-1,1
222 1743 m 128,-1,9
 222 1798 222 1798 260 1836.5 c 128,-1,10
 298 1875 298 1875 352 1875 c 128,-1,11
 406 1875 406 1875 444 1836.5 c 128,-1,12
 482 1798 482 1798 482 1743 c 128,-1,13
 482 1688 482 1688 444 1649.5 c 128,-1,14
 406 1611 406 1611 352 1611 c 128,-1,15
 298 1611 298 1611 260 1649.5 c 128,-1,8
 222 1688 222 1688 222 1743 c 128,-1,9
1026 1066 m 2,16,-1
 1026 70 l 1,17,-1
 866 0 l 1,18,-1
 866 675 l 1,19,-1
 284 675 l 1,20,-1
 284 70 l 1,21,-1
 124 0 l 1,22,-1
 124 1066 l 2,23,24
 124 1250 124 1250 256 1380.5 c 128,-1,25
 388 1511 388 1511 575 1511 c 128,-1,26
 762 1511 762 1511 894 1380.5 c 128,-1,27
 1026 1250 1026 1250 1026 1066 c 2,16,-1
284 835 m 1,28,-1
 866 835 l 1,29,-1
 866 1069 l 1,30,31
 865 1189 865 1189 780 1273 c 0,32,33
 694 1358 694 1358 575 1358 c 0,34,35
 455 1358 455 1358 369 1273 c 0,36,37
 284 1189 284 1189 284 1072 c 2,38,-1
 284 1069 l 1,39,-1
 284 835 l 1,28,-1
EndSplineSet
Validated: 1
EndChar

StartChar: Aring
Encoding: 197 197 135
Width: 1150
GlyphClass: 2
Flags: W
HStem: 0 21G<124 169.714 866 911.714> 675 160<284 866> 1358 153<420.983 728.556> 1587 132<506.588 655.905> 1897 138<498.918 654.447>
VStem: 124 160<70 675 835 1221.77> 348 137<1743.75 1882.59> 668 136<1732.76 1884> 866 160<70 675 835 1221.77>
LayerCount: 2
Fore
SplineSet
583 1719 m 0,0,1
 613 1719 613 1719 641 1745 c 0,2,3
 668 1770 668 1770 668 1805 c 0,4,5
 668 1807 668 1807 668 1808 c 0,6,7
 668 1847 668 1847 641 1871 c 0,8,9
 612 1897 612 1897 578 1897 c 0,10,11
 577 1897 577 1897 576 1897 c 0,12,13
 539 1897 539 1897 511 1869 c 0,14,15
 485 1843 485 1843 485 1808 c 0,16,17
 485 1806 485 1806 485 1803 c 0,18,19
 488 1767 488 1767 515 1743 c 0,20,21
 541 1720 541 1720 583 1719 c 0,0,1
348 1811 m 0,22,23
 348 1905 348 1905 415 1970 c 128,-1,24
 482 2035 482 2035 576 2035 c 0,25,26
 668 2035 668 2035 736 1969 c 128,-1,27
 804 1903 804 1903 804 1811 c 128,-1,28
 804 1719 804 1719 736 1652 c 0,29,30
 670 1587 670 1587 576 1587 c 0,31,32
 480 1587 480 1587 412 1653 c 1,33,34
 348 1718 348 1718 348 1811 c 0,22,23
1026 1066 m 2,35,-1
 1026 70 l 1,36,-1
 866 0 l 1,37,-1
 866 675 l 1,38,-1
 284 675 l 1,39,-1
 284 70 l 1,40,-1
 124 0 l 1,41,-1
 124 1066 l 2,42,43
 124 1250 124 1250 256 1380.5 c 128,-1,44
 388 1511 388 1511 575 1511 c 128,-1,45
 762 1511 762 1511 894 1380.5 c 128,-1,46
 1026 1250 1026 1250 1026 1066 c 2,35,-1
284 835 m 1,47,-1
 866 835 l 1,48,-1
 866 1069 l 1,49,50
 865 1189 865 1189 780 1273 c 0,51,52
 694 1358 694 1358 575 1358 c 0,53,54
 455 1358 455 1358 369 1273 c 0,55,56
 284 1189 284 1189 284 1072 c 2,57,-1
 284 1069 l 1,58,-1
 284 835 l 1,47,-1
EndSplineSet
Validated: 1
EndChar

StartChar: AE
Encoding: 198 198 136
Width: 1150
GlyphClass: 2
Flags: W
HStem: 0 21G<110 155.714> 20 160<655 1058> 675 160<271 495 655 928> 1331 161<655 928> 1354 157<301.35 465.978>
VStem: 110 161<70 675 835 1317.9> 495 160<180 675 835 1318.93>
LayerCount: 2
Fore
SplineSet
271 675 m 1,0,-1
 270 70 l 1,1,-1
 110 0 l 1,2,-1
 110 1239 l 2,3,4
 110 1351 110 1351 190 1431 c 128,-1,5
 270 1511 270 1511 383 1511 c 0,6,7
 487 1511 487 1511 558 1450 c 1,8,-1
 655 1492 l 1,9,-1
 998 1491 l 1,10,-1
 928 1331 l 1,11,-1
 655 1331 l 1,12,-1
 655 835 l 1,13,-1
 998 835 l 1,14,-1
 928 675 l 1,15,-1
 655 675 l 1,16,-1
 655 180 l 1,17,-1
 1128 180 l 1,18,-1
 1058 20 l 1,19,-1
 495 20 l 1,20,-1
 495 675 l 1,21,-1
 271 675 l 1,0,-1
271 835 m 1,22,-1
 495 835 l 1,23,-1
 495 1236 l 2,24,25
 495 1286 495 1286 462.5 1320 c 128,-1,26
 430 1354 430 1354 385 1354 c 0,27,28
 339 1354 339 1354 305 1319 c 128,-1,29
 271 1284 271 1284 271 1234 c 2,30,-1
 271 835 l 1,22,-1
EndSplineSet
Validated: 1
EndChar

StartChar: Ccedilla
Encoding: 199 199 137
Width: 1150
GlyphClass: 2
Flags: W
HStem: -494 175<408 583> 1358 153<420.781 729.048>
VStem: 124 160<289.132 1221.77> 866 160<288.636 454 1057 1220.18>
LayerCount: 2
Fore
SplineSet
1026 528 m 1,0,-1
 1026 445 l 2,1,2
 1026 260 1026 260 894 130 c 0,3,4
 787 25 787 25 644 5 c 1,5,-1
 726 -178 l 1,6,-1
 730 -354 l 1,7,-1
 412 -494 l 1,8,-1
 408 -319 l 1,9,-1
 584 -246 l 1,10,-1
 466 10 l 1,11,-1
 467 12 l 1,12,13
 348 39 348 39 256 130 c 0,14,15
 124 261 124 261 124 445 c 2,16,-1
 124 1066 l 2,17,18
 124 1250 124 1250 256 1380.5 c 128,-1,19
 388 1511 388 1511 575 1511 c 0,20,21
 764 1511 764 1511 894 1380 c 0,22,23
 1026 1247 1026 1247 1026 1066 c 2,24,-1
 1026 1057 l 1,25,-1
 866 984 l 1,26,-1
 866 1069 l 2,27,28
 866 1188 866 1188 780 1273 c 128,-1,29
 694 1358 694 1358 575 1358 c 0,30,31
 454 1358 454 1358 369 1273.5 c 128,-1,32
 284 1189 284 1189 284 1069 c 2,33,-1
 284 442 l 2,34,35
 284 323 284 323 369 238 c 128,-1,36
 454 153 454 153 575 153 c 0,37,38
 693 153 693 153 780 238 c 0,39,40
 866 322 866 322 866 442 c 2,41,-1
 866 454 l 1,42,-1
 1026 528 l 1,0,-1
EndSplineSet
Validated: 1
EndChar

StartChar: Egrave
Encoding: 200 200 138
Width: 1150
GlyphClass: 2
Flags: W
HStem: 20 160<364 1006> 675 160<364 876> 1331 161<364 876>
VStem: 204 160<180 675 835 1331>
DStem2: 357 2022 293 1859 0.717065 -0.697007<67.72 398.848>
LayerCount: 2
Fore
SplineSet
643 1744 m 1,0,-1
 579 1581 l 1,1,-1
 293 1859 l 1,2,-1
 357 2022 l 1,3,-1
 643 1744 l 1,0,-1
364 675 m 1,4,-1
 364 180 l 1,5,-1
 1076 180 l 1,6,-1
 1006 20 l 1,7,-1
 204 20 l 1,8,-1
 204 1422 l 1,9,-1
 364 1492 l 1,10,-1
 946 1491 l 1,11,-1
 876 1331 l 1,12,-1
 364 1331 l 1,13,-1
 364 835 l 1,14,-1
 946 835 l 1,15,-1
 876 675 l 1,16,-1
 364 675 l 1,4,-1
EndSplineSet
Validated: 1
EndChar

StartChar: Eacute
Encoding: 201 201 139
Width: 1150
GlyphClass: 2
Flags: W
HStem: 20 160<364 1006> 675 160<364 876> 1331 161<364 876>
VStem: 204 160<180 675 835 1331>
DStem2: 511 1744 575 1581 0.717065 0.697007<0 331.128>
LayerCount: 2
Fore
SplineSet
511 1744 m 1,0,-1
 797 2022 l 1,1,-1
 861 1859 l 1,2,-1
 575 1581 l 1,3,-1
 511 1744 l 1,0,-1
364 675 m 1,4,-1
 364 180 l 1,5,-1
 1076 180 l 1,6,-1
 1006 20 l 1,7,-1
 204 20 l 1,8,-1
 204 1422 l 1,9,-1
 364 1492 l 1,10,-1
 946 1491 l 1,11,-1
 876 1331 l 1,12,-1
 364 1331 l 1,13,-1
 364 835 l 1,14,-1
 946 835 l 1,15,-1
 876 675 l 1,16,-1
 364 675 l 1,4,-1
EndSplineSet
Validated: 1
EndChar

StartChar: Ecircumflex
Encoding: 202 202 140
Width: 1150
GlyphClass: 2
Flags: W
HStem: 20 160<364 1006> 675 160<364 876> 1331 161<364 876>
VStem: 204 160<180 675 835 1331>
LayerCount: 2
Fore
SplineSet
577 1972 m 1,0,-1
 834 1736 l 1,1,-1
 762 1590 l 1,2,-1
 576 1787 l 1,3,-1
 382 1590 l 1,4,-1
 315 1732 l 1,5,-1
 577 1972 l 1,0,-1
364 675 m 1,6,-1
 364 180 l 1,7,-1
 1076 180 l 1,8,-1
 1006 20 l 1,9,-1
 204 20 l 1,10,-1
 204 1422 l 1,11,-1
 364 1492 l 1,12,-1
 946 1491 l 1,13,-1
 876 1331 l 1,14,-1
 364 1331 l 1,15,-1
 364 835 l 1,16,-1
 946 835 l 1,17,-1
 876 675 l 1,18,-1
 364 675 l 1,6,-1
EndSplineSet
Validated: 1
EndChar

StartChar: Edieresis
Encoding: 203 203 141
Width: 1150
GlyphClass: 2
Flags: W
HStem: 20 160<364 1006> 675 160<364 876> 1331 161<364 876> 1611 264<261.191 442.809 713.191 894.809>
VStem: 204 160<180 675 835 1331> 222 260<1650.71 1835.29> 674 260<1650.71 1835.29>
LayerCount: 2
Fore
SplineSet
674 1743 m 128,-1,1
 674 1798 674 1798 712 1836.5 c 128,-1,2
 750 1875 750 1875 804 1875 c 128,-1,3
 858 1875 858 1875 896 1836.5 c 128,-1,4
 934 1798 934 1798 934 1743 c 128,-1,5
 934 1688 934 1688 896 1649.5 c 128,-1,6
 858 1611 858 1611 804 1611 c 128,-1,7
 750 1611 750 1611 712 1649.5 c 128,-1,0
 674 1688 674 1688 674 1743 c 128,-1,1
222 1743 m 128,-1,9
 222 1798 222 1798 260 1836.5 c 128,-1,10
 298 1875 298 1875 352 1875 c 128,-1,11
 406 1875 406 1875 444 1836.5 c 128,-1,12
 482 1798 482 1798 482 1743 c 128,-1,13
 482 1688 482 1688 444 1649.5 c 128,-1,14
 406 1611 406 1611 352 1611 c 128,-1,15
 298 1611 298 1611 260 1649.5 c 128,-1,8
 222 1688 222 1688 222 1743 c 128,-1,9
364 675 m 1,16,-1
 364 180 l 1,17,-1
 1076 180 l 1,18,-1
 1006 20 l 1,19,-1
 204 20 l 1,20,-1
 204 1422 l 1,21,-1
 364 1492 l 1,22,-1
 946 1491 l 1,23,-1
 876 1331 l 1,24,-1
 364 1331 l 1,25,-1
 364 835 l 1,26,-1
 946 835 l 1,27,-1
 876 675 l 1,28,-1
 364 675 l 1,16,-1
EndSplineSet
Validated: 1
EndChar

StartChar: Igrave
Encoding: 204 204 142
Width: 1150
GlyphClass: 2
Flags: W
HStem: 20 160<209 495 655 941> 1331 160<209 495 655 941>
VStem: 495 160<180 1331>
DStem2: 357 2022 293 1859 0.717065 -0.697007<67.72 398.848>
LayerCount: 2
Fore
SplineSet
643 1744 m 1,0,-1
 579 1581 l 1,1,-1
 293 1859 l 1,2,-1
 357 2022 l 1,3,-1
 643 1744 l 1,0,-1
209 1491 m 1,4,-1
 1011 1491 l 1,5,-1
 941 1331 l 1,6,-1
 655 1331 l 1,7,-1
 655 180 l 1,8,-1
 1011 180 l 1,9,-1
 941 20 l 1,10,-1
 139 20 l 1,11,-1
 209 180 l 1,12,-1
 495 180 l 1,13,-1
 495 1331 l 1,14,-1
 139 1331 l 1,15,-1
 209 1491 l 1,4,-1
EndSplineSet
Validated: 1
EndChar

StartChar: Iacute
Encoding: 205 205 143
Width: 1150
GlyphClass: 2
Flags: W
HStem: 20 160<209 495 655 941> 1331 160<209 495 655 941>
VStem: 495 160<180 1331>
DStem2: 511 1744 575 1581 0.717065 0.697007<0 331.128>
LayerCount: 2
Fore
SplineSet
511 1744 m 1,0,-1
 797 2022 l 1,1,-1
 861 1859 l 1,2,-1
 575 1581 l 1,3,-1
 511 1744 l 1,0,-1
209 1491 m 1,4,-1
 1011 1491 l 1,5,-1
 941 1331 l 1,6,-1
 655 1331 l 1,7,-1
 655 180 l 1,8,-1
 1011 180 l 1,9,-1
 941 20 l 1,10,-1
 139 20 l 1,11,-1
 209 180 l 1,12,-1
 495 180 l 1,13,-1
 495 1331 l 1,14,-1
 139 1331 l 1,15,-1
 209 1491 l 1,4,-1
EndSplineSet
Validated: 1
EndChar

StartChar: Icircumflex
Encoding: 206 206 144
Width: 1150
GlyphClass: 2
Flags: W
HStem: 20 160<209 495 655 941> 1331 160<209 495 655 941>
VStem: 495 160<180 1331>
LayerCount: 2
Fore
SplineSet
577 1972 m 1,0,-1
 834 1736 l 1,1,-1
 762 1590 l 1,2,-1
 576 1787 l 1,3,-1
 382 1590 l 1,4,-1
 315 1732 l 1,5,-1
 577 1972 l 1,0,-1
209 1491 m 1,6,-1
 1011 1491 l 1,7,-1
 941 1331 l 1,8,-1
 655 1331 l 1,9,-1
 655 180 l 1,10,-1
 1011 180 l 1,11,-1
 941 20 l 1,12,-1
 139 20 l 1,13,-1
 209 180 l 1,14,-1
 495 180 l 1,15,-1
 495 1331 l 1,16,-1
 139 1331 l 1,17,-1
 209 1491 l 1,6,-1
EndSplineSet
Validated: 1
EndChar

StartChar: Idieresis
Encoding: 207 207 145
Width: 1150
GlyphClass: 2
Flags: W
HStem: 20 160<209 495 655 941> 1331 160<209 495 655 941> 1611 264<261.191 442.809 713.191 894.809>
VStem: 222 260<1650.71 1835.29> 495 160<180 1331> 674 260<1650.71 1835.29>
LayerCount: 2
Fore
SplineSet
674 1743 m 128,-1,1
 674 1798 674 1798 712 1836.5 c 128,-1,2
 750 1875 750 1875 804 1875 c 128,-1,3
 858 1875 858 1875 896 1836.5 c 128,-1,4
 934 1798 934 1798 934 1743 c 128,-1,5
 934 1688 934 1688 896 1649.5 c 128,-1,6
 858 1611 858 1611 804 1611 c 128,-1,7
 750 1611 750 1611 712 1649.5 c 128,-1,0
 674 1688 674 1688 674 1743 c 128,-1,1
222 1743 m 128,-1,9
 222 1798 222 1798 260 1836.5 c 128,-1,10
 298 1875 298 1875 352 1875 c 128,-1,11
 406 1875 406 1875 444 1836.5 c 128,-1,12
 482 1798 482 1798 482 1743 c 128,-1,13
 482 1688 482 1688 444 1649.5 c 128,-1,14
 406 1611 406 1611 352 1611 c 128,-1,15
 298 1611 298 1611 260 1649.5 c 128,-1,8
 222 1688 222 1688 222 1743 c 128,-1,9
209 1491 m 1,16,-1
 1011 1491 l 1,17,-1
 941 1331 l 1,18,-1
 655 1331 l 1,19,-1
 655 180 l 1,20,-1
 1011 180 l 1,21,-1
 941 20 l 1,22,-1
 139 20 l 1,23,-1
 209 180 l 1,24,-1
 495 180 l 1,25,-1
 495 1331 l 1,26,-1
 139 1331 l 1,27,-1
 209 1491 l 1,16,-1
EndSplineSet
Validated: 1
EndChar

StartChar: Eth
Encoding: 208 208 146
Width: 1150
GlyphClass: 2
Flags: W
HStem: 20 153<283 729.098> 675 160<98 123 283 613> 1339 153<283 729.098>
VStem: 123 160<173 675 835 1338> 867 160<309.235 1202.77>
LayerCount: 2
Fore
SplineSet
575 1492 m 1,0,-1
 576 1492 l 2,1,2
 763 1492 763 1492 895 1361.5 c 128,-1,3
 1027 1231 1027 1231 1027 1047 c 2,4,-1
 1027 465 l 2,5,6
 1027 281 1027 281 895 150.5 c 128,-1,7
 763 20 763 20 576 20 c 2,8,-1
 575 20 l 1,9,-1
 123 20 l 1,10,-1
 123 675 l 1,11,-1
 28 675 l 1,12,-1
 98 835 l 1,13,-1
 123 835 l 1,14,-1
 123 1422 l 1,15,-1
 283 1492 l 1,16,-1
 575 1492 l 1,0,-1
576 173 m 2,17,18
 694 173 694 173 781 258 c 0,19,20
 867 342 867 342 867 462 c 2,21,-1
 867 1050 l 2,22,23
 867 1169 867 1169 781 1254 c 128,-1,24
 695 1339 695 1339 576 1339 c 2,25,-1
 575 1339 l 1,26,-1
 283 1338 l 1,27,-1
 283 835 l 1,28,-1
 683 835 l 1,29,-1
 613 675 l 1,30,-1
 283 675 l 1,31,-1
 283 173 l 1,32,-1
 575 173 l 1,33,-1
 576 173 l 2,17,18
EndSplineSet
Validated: 1
EndChar

StartChar: Ntilde
Encoding: 209 209 147
Width: 1150
GlyphClass: 2
Flags: W
HStem: 0 21G<124 169.714 866 911.714> 1358 153<420.983 728.556>
VStem: 124 160<70 1221.77> 866 160<70 1221.77>
LayerCount: 2
Fore
SplineSet
681 1791 m 1,0,-1
 853 1973 l 1,1,-1
 925 1827 l 1,2,-1
 668 1591 l 1,3,-1
 468 1774 l 1,4,-1
 288 1591 l 1,5,-1
 221 1733 l 1,6,-1
 483 1973 l 1,7,-1
 681 1791 l 1,0,-1
1026 1066 m 2,8,-1
 1026 70 l 1,9,-1
 866 0 l 1,10,-1
 866 1069 l 1,11,12
 865 1189 865 1189 780 1273 c 0,13,14
 694 1358 694 1358 575 1358 c 0,15,16
 455 1358 455 1358 369 1273 c 0,17,18
 284 1189 284 1189 284 1072 c 0,19,20
 284 1070 284 1070 284 1069 c 2,21,-1
 284 70 l 1,22,-1
 124 0 l 1,23,-1
 124 1066 l 2,24,25
 124 1250 124 1250 256 1380.5 c 128,-1,26
 388 1511 388 1511 575 1511 c 128,-1,27
 762 1511 762 1511 894 1380.5 c 128,-1,28
 1026 1250 1026 1250 1026 1066 c 2,8,-1
EndSplineSet
Validated: 1
EndChar

StartChar: Ograve
Encoding: 210 210 148
Width: 1150
GlyphClass: 2
Flags: W
HStem: 0 153<420.535 728.556> 1358 153<420.781 728.556>
VStem: 124 160<289.132 1221.77> 866 160<289.235 1221.77>
DStem2: 357 2022 293 1859 0.717065 -0.697007<67.72 398.848>
LayerCount: 2
Fore
SplineSet
643 1744 m 1,0,-1
 579 1581 l 1,1,-1
 293 1859 l 1,2,-1
 357 2022 l 1,3,-1
 643 1744 l 1,0,-1
1026 1066 m 2,4,5
 1026 1066 1026 1066 1026 445 c 0,6,7
 1026 261 1026 261 894 130.5 c 128,-1,8
 762 0 762 0 575 0 c 0,9,10
 387 0 387 0 256 130 c 0,11,12
 124 261 124 261 124 445 c 2,13,-1
 124 1066 l 2,14,15
 124 1250 124 1250 256 1380.5 c 128,-1,16
 388 1511 388 1511 575 1511 c 128,-1,17
 762 1511 762 1511 894 1380.5 c 128,-1,18
 1026 1250 1026 1250 1026 1066 c 2,4,5
284 1069 m 2,19,-1
 284 442 l 2,20,21
 284 323 284 323 369 238 c 128,-1,22
 454 153 454 153 575 153 c 0,23,24
 694 153 694 153 780 238 c 0,25,26
 865 322 865 322 866 442 c 1,27,-1
 866 1069 l 1,28,29
 865 1189 865 1189 780 1273 c 0,30,31
 694 1358 694 1358 575 1358 c 0,32,33
 454 1358 454 1358 369 1273.5 c 128,-1,34
 284 1189 284 1189 284 1069 c 2,19,-1
EndSplineSet
Validated: 1
EndChar

StartChar: Oacute
Encoding: 211 211 149
Width: 1150
GlyphClass: 2
Flags: W
HStem: 0 153<420.535 728.556> 1358 153<420.781 728.556>
VStem: 124 160<289.132 1221.77> 866 160<289.235 1221.77>
DStem2: 511 1744 575 1581 0.717065 0.697007<0 331.128>
LayerCount: 2
Fore
SplineSet
511 1744 m 1,0,-1
 797 2022 l 1,1,-1
 861 1859 l 1,2,-1
 575 1581 l 1,3,-1
 511 1744 l 1,0,-1
1026 1066 m 2,4,-1
 1026 445 l 2,5,6
 1026 261 1026 261 894 130.5 c 128,-1,7
 762 0 762 0 575 0 c 0,8,9
 387 0 387 0 256 130 c 0,10,11
 124 261 124 261 124 445 c 2,12,-1
 124 1066 l 2,13,14
 124 1250 124 1250 256 1380.5 c 128,-1,15
 388 1511 388 1511 575 1511 c 128,-1,16
 762 1511 762 1511 894 1380.5 c 128,-1,17
 1026 1250 1026 1250 1026 1066 c 2,4,-1
284 1069 m 2,18,-1
 284 442 l 2,19,20
 284 323 284 323 369 238 c 128,-1,21
 454 153 454 153 575 153 c 0,22,23
 694 153 694 153 780 238 c 0,24,25
 865 322 865 322 866 442 c 1,26,-1
 866 1069 l 1,27,28
 865 1189 865 1189 780 1273 c 0,29,30
 694 1358 694 1358 575 1358 c 0,31,32
 454 1358 454 1358 369 1273.5 c 128,-1,33
 284 1189 284 1189 284 1069 c 2,18,-1
EndSplineSet
Validated: 1
EndChar

StartChar: Ocircumflex
Encoding: 212 212 150
Width: 1150
GlyphClass: 2
Flags: W
HStem: 0 153<420.535 728.556> 1358 153<420.781 728.556>
VStem: 124 160<289.132 1221.77> 866 160<289.235 1221.77>
LayerCount: 2
Fore
SplineSet
577 1972 m 1,0,-1
 834 1736 l 1,1,-1
 762 1590 l 1,2,-1
 576 1787 l 1,3,-1
 382 1590 l 1,4,-1
 315 1732 l 1,5,-1
 577 1972 l 1,0,-1
1026 1066 m 2,6,7
 1026 1066 1026 1066 1026 445 c 0,8,9
 1026 261 1026 261 894 130.5 c 128,-1,10
 762 0 762 0 575 0 c 0,11,12
 387 0 387 0 256 130 c 0,13,14
 124 261 124 261 124 445 c 2,15,-1
 124 1066 l 2,16,17
 124 1250 124 1250 256 1380.5 c 128,-1,18
 388 1511 388 1511 575 1511 c 128,-1,19
 762 1511 762 1511 894 1380.5 c 128,-1,20
 1026 1250 1026 1250 1026 1066 c 2,6,7
284 1069 m 2,21,-1
 284 442 l 2,22,23
 284 323 284 323 369 238 c 128,-1,24
 454 153 454 153 575 153 c 0,25,26
 694 153 694 153 780 238 c 0,27,28
 865 322 865 322 866 442 c 1,29,-1
 866 1069 l 1,30,31
 865 1189 865 1189 780 1273 c 0,32,33
 694 1358 694 1358 575 1358 c 0,34,35
 454 1358 454 1358 369 1273.5 c 128,-1,36
 284 1189 284 1189 284 1069 c 2,21,-1
EndSplineSet
Validated: 1
EndChar

StartChar: Otilde
Encoding: 213 213 151
Width: 1150
GlyphClass: 2
Flags: W
HStem: 0 153<420.535 728.556> 1358 153<420.781 728.556>
VStem: 124 160<289.132 1221.77> 866 160<289.235 1221.77>
LayerCount: 2
Fore
SplineSet
681 1791 m 1,0,-1
 853 1973 l 1,1,-1
 925 1827 l 1,2,-1
 668 1591 l 1,3,-1
 468 1774 l 1,4,-1
 288 1591 l 1,5,-1
 221 1733 l 1,6,-1
 483 1973 l 1,7,-1
 681 1791 l 1,0,-1
1026 1066 m 2,8,9
 1026 1066 1026 1066 1026 445 c 0,10,11
 1026 261 1026 261 894 130.5 c 128,-1,12
 762 0 762 0 575 0 c 0,13,14
 387 0 387 0 256 130 c 0,15,16
 124 261 124 261 124 445 c 2,17,-1
 124 1066 l 2,18,19
 124 1250 124 1250 256 1380.5 c 128,-1,20
 388 1511 388 1511 575 1511 c 128,-1,21
 762 1511 762 1511 894 1380.5 c 128,-1,22
 1026 1250 1026 1250 1026 1066 c 2,8,9
284 1069 m 2,23,-1
 284 442 l 2,24,25
 284 323 284 323 369 238 c 128,-1,26
 454 153 454 153 575 153 c 0,27,28
 694 153 694 153 780 238 c 0,29,30
 865 322 865 322 866 442 c 1,31,-1
 866 1069 l 1,32,33
 865 1189 865 1189 780 1273 c 0,34,35
 694 1358 694 1358 575 1358 c 0,36,37
 454 1358 454 1358 369 1273.5 c 128,-1,38
 284 1189 284 1189 284 1069 c 2,23,-1
EndSplineSet
Validated: 1
EndChar

StartChar: Odieresis
Encoding: 214 214 152
Width: 1150
GlyphClass: 2
Flags: W
HStem: 0 153<420.535 728.556> 1358 153<420.781 728.556> 1611 264<261.191 442.809 713.191 894.809>
VStem: 124 160<289.132 1221.77> 222 260<1650.71 1835.29> 674 260<1650.71 1835.29> 866 160<289.235 1221.77>
LayerCount: 2
Fore
SplineSet
674 1743 m 128,-1,1
 674 1798 674 1798 712 1836.5 c 128,-1,2
 750 1875 750 1875 804 1875 c 128,-1,3
 858 1875 858 1875 896 1836.5 c 128,-1,4
 934 1798 934 1798 934 1743 c 128,-1,5
 934 1688 934 1688 896 1649.5 c 128,-1,6
 858 1611 858 1611 804 1611 c 128,-1,7
 750 1611 750 1611 712 1649.5 c 128,-1,0
 674 1688 674 1688 674 1743 c 128,-1,1
222 1743 m 128,-1,9
 222 1798 222 1798 260 1836.5 c 128,-1,10
 298 1875 298 1875 352 1875 c 128,-1,11
 406 1875 406 1875 444 1836.5 c 128,-1,12
 482 1798 482 1798 482 1743 c 128,-1,13
 482 1688 482 1688 444 1649.5 c 128,-1,14
 406 1611 406 1611 352 1611 c 128,-1,15
 298 1611 298 1611 260 1649.5 c 128,-1,8
 222 1688 222 1688 222 1743 c 128,-1,9
1026 1066 m 2,16,17
 1026 1066 1026 1066 1026 445 c 0,18,19
 1026 261 1026 261 894 130.5 c 128,-1,20
 762 0 762 0 575 0 c 0,21,22
 387 0 387 0 256 130 c 0,23,24
 124 261 124 261 124 445 c 2,25,-1
 124 1066 l 2,26,27
 124 1250 124 1250 256 1380.5 c 128,-1,28
 388 1511 388 1511 575 1511 c 128,-1,29
 762 1511 762 1511 894 1380.5 c 128,-1,30
 1026 1250 1026 1250 1026 1066 c 2,16,17
284 1069 m 2,31,-1
 284 442 l 2,32,33
 284 323 284 323 369 238 c 128,-1,34
 454 153 454 153 575 153 c 0,35,36
 694 153 694 153 780 238 c 0,37,38
 865 322 865 322 866 442 c 1,39,-1
 866 1069 l 1,40,41
 865 1189 865 1189 780 1273 c 0,42,43
 694 1358 694 1358 575 1358 c 0,44,45
 454 1358 454 1358 369 1273.5 c 128,-1,46
 284 1189 284 1189 284 1069 c 2,31,-1
EndSplineSet
Validated: 1
EndChar

StartChar: multiply
Encoding: 215 215 153
Width: 1150
GlyphClass: 2
Flags: W
HStem: 642 226<462 688>
VStem: 462 226<642 868>
DStem2: 373 1070 210 1007 0.707107 -0.707107<0 285.671 445.477 731.148> 210 503 373 440 0.707107 0.707107<70.7107 356.382 516.188 801.859>
LayerCount: 2
Fore
SplineSet
373 440 m 1,0,-1
 210 503 l 1,1,-1
 462 755 l 1,2,-1
 210 1007 l 1,3,-1
 373 1070 l 1,4,-1
 575 868 l 1,5,-1
 777 1070 l 1,6,-1
 940 1007 l 1,7,-1
 688 755 l 1,8,-1
 940 503 l 1,9,-1
 777 440 l 1,10,-1
 575 642 l 1,11,-1
 373 440 l 1,0,-1
EndSplineSet
Validated: 1
EndChar

StartChar: Oslash
Encoding: 216 216 154
Width: 1150
GlyphClass: 2
Flags: W
HStem: 0 153<421.413 728.556> 1358 153<420.781 728.716>
VStem: 124 160<393.26 1221.77> 866 160<289.235 1109.23>
DStem2: 59 -31 204 -99 0.477459 0.878654<9.48313 221.136 480.13 1389.06 1652.52 1861.94>
LayerCount: 2
Fore
SplineSet
284 1069 m 2,0,-1
 284 442 l 2,1,2
 284 416 284 416 288 391 c 1,3,-1
 772 1281 l 1,4,5
 688 1358 688 1358 575 1358 c 0,6,7
 454 1358 454 1358 369 1273.5 c 128,-1,8
 284 1189 284 1189 284 1069 c 2,0,-1
1026 1066 m 2,9,-1
 1026 445 l 2,10,11
 1026 261 1026 261 894 130.5 c 128,-1,12
 762 0 762 0 575 0 c 0,13,14
 421 0 421 0 305 87 c 1,15,-1
 204 -99 l 1,16,-1
 59 -31 l 1,17,-1
 190 211 l 1,18,19
 124 315 124 315 124 445 c 2,20,-1
 124 1066 l 2,21,22
 124 1250 124 1250 256 1380.5 c 128,-1,23
 388 1511 388 1511 575 1511 c 0,24,25
 730 1511 730 1511 848 1421 c 1,26,-1
 948 1605 l 1,27,-1
 1093 1537 l 1,28,-1
 962 1296 l 1,29,30
 1026 1194 1026 1194 1026 1066 c 2,9,-1
863 1113 m 1,31,-1
 381 227 l 1,32,33
 462 153 462 153 575 153 c 0,34,35
 694 153 694 153 780 238 c 0,36,37
 865 322 865 322 866 442 c 1,38,-1
 866 1069 l 2,39,40
 866 1092 866 1092 863 1113 c 1,31,-1
EndSplineSet
Validated: 1
EndChar

StartChar: Ugrave
Encoding: 217 217 155
Width: 1150
GlyphClass: 2
Flags: W
HStem: 0 153<421.444 729.017> 1491 20G<238.286 284 980.286 1026>
VStem: 124 160<289.235 1441> 866 160<289.235 1441>
DStem2: 357 2022 293 1859 0.717065 -0.697007<67.72 398.848>
LayerCount: 2
Fore
SplineSet
643 1744 m 1,0,-1
 579 1581 l 1,1,-1
 293 1859 l 1,2,-1
 357 2022 l 1,3,-1
 643 1744 l 1,0,-1
124 445 m 2,4,-1
 124 1441 l 1,5,-1
 284 1511 l 1,6,-1
 284 442 l 1,7,8
 285 322 285 322 370 238 c 0,9,10
 456 153 456 153 575 153 c 0,11,12
 695 153 695 153 781 238 c 0,13,14
 866 322 866 322 866 439 c 0,15,16
 866 441 866 441 866 442 c 2,17,-1
 866 1441 l 1,18,-1
 1026 1511 l 1,19,-1
 1026 445 l 2,20,21
 1026 261 1026 261 894 130.5 c 128,-1,22
 762 0 762 0 575 0 c 128,-1,23
 388 0 388 0 256 130.5 c 128,-1,24
 124 261 124 261 124 445 c 2,4,-1
EndSplineSet
Validated: 1
EndChar

StartChar: Uacute
Encoding: 218 218 156
Width: 1150
GlyphClass: 2
Flags: W
HStem: 0 153<421.444 729.017> 1491 20G<238.286 284 980.286 1026>
VStem: 124 160<289.235 1441> 866 160<289.235 1441>
DStem2: 511 1744 575 1581 0.717065 0.697007<0 331.128>
LayerCount: 2
Fore
SplineSet
511 1744 m 1,0,-1
 797 2022 l 1,1,-1
 861 1859 l 1,2,-1
 575 1581 l 1,3,-1
 511 1744 l 1,0,-1
124 445 m 2,4,-1
 124 1441 l 1,5,-1
 284 1511 l 1,6,-1
 284 442 l 1,7,8
 285 322 285 322 370 238 c 0,9,10
 456 153 456 153 575 153 c 0,11,12
 695 153 695 153 781 238 c 0,13,14
 866 322 866 322 866 439 c 0,15,16
 866 441 866 441 866 442 c 2,17,-1
 866 1441 l 1,18,-1
 1026 1511 l 1,19,-1
 1026 445 l 2,20,21
 1026 261 1026 261 894 130.5 c 128,-1,22
 762 0 762 0 575 0 c 128,-1,23
 388 0 388 0 256 130.5 c 128,-1,24
 124 261 124 261 124 445 c 2,4,-1
EndSplineSet
Validated: 1
EndChar

StartChar: Ucircumflex
Encoding: 219 219 157
Width: 1150
GlyphClass: 2
Flags: W
HStem: 0 153<421.444 729.017> 1491 20G<238.286 284 980.286 1026>
VStem: 124 160<289.235 1441> 866 160<289.235 1441>
LayerCount: 2
Fore
SplineSet
577 1972 m 1,0,-1
 834 1736 l 1,1,-1
 762 1590 l 1,2,-1
 576 1787 l 1,3,-1
 382 1590 l 1,4,-1
 315 1732 l 1,5,-1
 577 1972 l 1,0,-1
124 445 m 2,6,-1
 124 1441 l 1,7,-1
 284 1511 l 1,8,-1
 284 442 l 1,9,10
 285 322 285 322 370 238 c 0,11,12
 456 153 456 153 575 153 c 0,13,14
 695 153 695 153 781 238 c 0,15,16
 866 322 866 322 866 439 c 0,17,18
 866 441 866 441 866 442 c 2,19,-1
 866 1441 l 1,20,-1
 1026 1511 l 1,21,-1
 1026 445 l 2,22,23
 1026 261 1026 261 894 130.5 c 128,-1,24
 762 0 762 0 575 0 c 128,-1,25
 388 0 388 0 256 130.5 c 128,-1,26
 124 261 124 261 124 445 c 2,6,-1
EndSplineSet
Validated: 1
EndChar

StartChar: Udieresis
Encoding: 220 220 158
Width: 1150
GlyphClass: 2
Flags: W
HStem: 0 153<421.444 729.017> 1491 20G<238.286 284 980.286 1026> 1611 264<261.191 442.809 713.191 894.809>
VStem: 124 160<289.235 1441> 222 260<1650.71 1835.29> 674 260<1650.71 1835.29> 866 160<289.235 1441>
LayerCount: 2
Fore
SplineSet
674 1743 m 128,-1,1
 674 1798 674 1798 712 1836.5 c 128,-1,2
 750 1875 750 1875 804 1875 c 128,-1,3
 858 1875 858 1875 896 1836.5 c 128,-1,4
 934 1798 934 1798 934 1743 c 128,-1,5
 934 1688 934 1688 896 1649.5 c 128,-1,6
 858 1611 858 1611 804 1611 c 128,-1,7
 750 1611 750 1611 712 1649.5 c 128,-1,0
 674 1688 674 1688 674 1743 c 128,-1,1
222 1743 m 128,-1,9
 222 1798 222 1798 260 1836.5 c 128,-1,10
 298 1875 298 1875 352 1875 c 128,-1,11
 406 1875 406 1875 444 1836.5 c 128,-1,12
 482 1798 482 1798 482 1743 c 128,-1,13
 482 1688 482 1688 444 1649.5 c 128,-1,14
 406 1611 406 1611 352 1611 c 128,-1,15
 298 1611 298 1611 260 1649.5 c 128,-1,8
 222 1688 222 1688 222 1743 c 128,-1,9
124 445 m 2,16,-1
 124 1441 l 1,17,-1
 284 1511 l 1,18,-1
 284 442 l 1,19,20
 285 322 285 322 370 238 c 0,21,22
 456 153 456 153 575 153 c 0,23,24
 695 153 695 153 781 238 c 0,25,26
 866 322 866 322 866 439 c 0,27,28
 866 441 866 441 866 442 c 2,29,-1
 866 1441 l 1,30,-1
 1026 1511 l 1,31,-1
 1026 445 l 2,32,33
 1026 261 1026 261 894 130.5 c 128,-1,34
 762 0 762 0 575 0 c 128,-1,35
 388 0 388 0 256 130.5 c 128,-1,36
 124 261 124 261 124 445 c 2,16,-1
EndSplineSet
Validated: 1
EndChar

StartChar: Yacute
Encoding: 221 221 159
Width: 1150
GlyphClass: 2
Flags: W
HStem: 0 21G<495 540.714> 458 147<421.11 495 655 728.89> 1491 20G<238.286 284 980.286 1026>
VStem: 124 160<741.132 1441> 495 160<70 467.092> 866 160<741.132 1441>
DStem2: 511 1744 575 1581 0.717065 0.697007<0 331.128>
CounterMasks: 1 1c
LayerCount: 2
Fore
SplineSet
511 1744 m 1,0,-1
 797 2022 l 1,1,-1
 861 1859 l 1,2,-1
 575 1581 l 1,3,-1
 511 1744 l 1,0,-1
124 897 m 2,4,-1
 124 1441 l 1,5,-1
 284 1511 l 1,6,-1
 284 894 l 1,7,8
 285 774 285 774 370 690 c 0,9,10
 456 605 456 605 575 605 c 0,11,12
 695 605 695 605 781 690 c 0,13,14
 866 774 866 774 866 891 c 2,15,-1
 866 894 l 1,16,-1
 866 1441 l 1,17,-1
 1026 1511 l 1,18,-1
 1026 897 l 2,19,20
 1026 713 1026 713 894 582 c 0,21,22
 791 481 791 481 655 458 c 1,23,-1
 655 70 l 1,24,-1
 495 0 l 1,25,-1
 495 458 l 1,26,27
 359 481 359 481 256 582 c 0,28,29
 124 713 124 713 124 897 c 2,4,-1
EndSplineSet
Validated: 1
EndChar

StartChar: Thorn
Encoding: 222 222 160
Width: 1150
GlyphClass: 2
Flags: W
HStem: 0 21G<157 202.714> 304 160<317 703.868> 1046 160<317 703.167> 1491 20G<271.286 317>
VStem: 157 160<70 304 464 1046 1206 1441> 840 153<601.234 909.094>
LayerCount: 2
Fore
SplineSet
157 1441 m 1,0,-1
 317 1511 l 1,1,-1
 317 1206 l 1,2,-1
 548 1206 l 2,3,4
 731 1206 731 1206 862 1074 c 128,-1,5
 993 942 993 942 993 759 c 2,6,-1
 993 756 l 1,7,8
 992 566 992 566 863 436 c 0,9,10
 732 304 732 304 548 304 c 2,11,-1
 317 304 l 1,12,-1
 317 70 l 1,13,-1
 157 0 l 1,14,-1
 157 1441 l 1,0,-1
317 1046 m 1,15,-1
 317 464 l 1,16,-1
 551 464 l 2,17,18
 670 464 670 464 755 549 c 128,-1,19
 840 634 840 634 840 756 c 0,20,21
 840 874 840 874 755 960 c 128,-1,22
 670 1046 670 1046 551 1046 c 2,23,-1
 317 1046 l 1,15,-1
EndSplineSet
Validated: 1
EndChar

StartChar: germandbls
Encoding: 223 223 161
Width: 1150
GlyphClass: 2
Flags: W
HStem: 0 21G<126 171.714> 20 160<444 735.158> 762 160<540 682.168> 1349 163<369.028 657.508>
VStem: 126 160<70 1264.91> 753 164<994.456 1257.81> 871 153<317.69 625.465>
LayerCount: 2
Fore
SplineSet
286 1140 m 1,0,-1
 286 70 l 1,1,-1
 126 0 l 1,2,-1
 126 1146 l 1,3,4
 129 1296 129 1296 236 1403 c 0,5,6
 345 1512 345 1512 515 1512 c 2,7,-1
 518 1512 l 1,8,9
 691 1511 691 1511 802 1401 c 0,10,11
 907 1297 907 1297 916 1160 c 0,12,13
 917 1145 917 1145 917 1131 c 0,14,15
 916 974 916 974 806 870 c 1,16,-1
 800 864 l 1,17,18
 850 835 850 835 894 790 c 0,19,20
 1024 659 1024 659 1024 471 c 0,21,22
 1024 285 1024 285 893 152 c 0,23,24
 764 20 764 20 579 20 c 2,25,-1
 375 20 l 1,26,-1
 444 180 l 1,27,-1
 582 180 l 2,28,29
 701 180 701 180 786 266 c 128,-1,30
 871 352 871 352 871 471 c 0,31,32
 871 592 871 592 786 677 c 128,-1,33
 701 762 701 762 582 762 c 2,34,-1
 470 762 l 1,35,-1
 540 922 l 1,36,37
 642 923 642 923 692 975 c 0,38,39
 753 1039 753 1039 753 1126 c 1,40,41
 751 1217 751 1217 689 1280 c 0,42,43
 621 1349 621 1349 514.5 1349 c 128,-1,44
 408 1349 408 1349 349 1288 c 0,45,46
 287 1224 287 1224 286 1140 c 1,0,-1
EndSplineSet
Validated: 1
EndChar

StartChar: agrave
Encoding: 224 224 162
Width: 1150
GlyphClass: 2
Flags: W
HStem: 0 162<404.015 664.038> 958 162<444.1 705.032>
VStem: 198 160<207.594 383.669 727 872.613> 792 160<70 559 734 871.695>
DStem2: 352 1611 288 1448 0.717065 -0.697007<67.72 398.848> 385 567 463 425 0.925148 0.379606<-100.055 373.498>
LayerCount: 2
Fore
SplineSet
638 1333 m 1,0,-1
 574 1170 l 1,1,-1
 288 1448 l 1,2,-1
 352 1611 l 1,3,-1
 638 1333 l 1,0,-1
359 294 m 0,4,5
 359 261 359 261 385 226 c 0,6,7
 433 162 433 162 538 162 c 0,8,9
 602 162 602 162 651 192 c 1,10,-1
 711 41 l 1,11,12
 633 0 633 0 538 0 c 0,13,14
 388 0 388 0 272 110 c 1,15,16
 194 190 194 190 194 294 c 0,17,18
 194 298 194 298 194 302 c 0,19,20
 194 489 194 489 385 567 c 2,21,-1
 792 734 l 1,22,23
 792 829 792 829 729 893.5 c 128,-1,24
 666 958 666 958 570 958 c 0,25,26
 486 958 486 958 422 895 c 0,27,28
 360 834 360 834 358 741 c 1,29,-1
 358 727 l 1,30,-1
 198 656 l 1,31,-1
 198 744 l 2,32,33
 198 884 198 884 318 1012 c 0,34,35
 420 1120 420 1120 576 1120 c 128,-1,36
 732 1120 732 1120 842 1010 c 128,-1,37
 952 900 952 900 952 744 c 2,38,-1
 952 70 l 1,39,-1
 792 0 l 1,40,-1
 792 559 l 1,41,-1
 463 425 l 1,42,43
 359 376 359 376 359 294 c 0,4,5
EndSplineSet
Validated: 1
EndChar

StartChar: aacute
Encoding: 225 225 163
Width: 1150
GlyphClass: 2
Flags: W
HStem: 0 162<404.015 664.038> 958 162<444.1 705.032>
VStem: 198 160<207.594 383.669 727 872.613> 792 160<70 559 734 871.695>
DStem2: 385 567 463 425 0.925148 0.379606<-100.055 373.498> 511 1333 575 1170 0.717065 0.697007<0 331.128>
LayerCount: 2
Fore
SplineSet
511 1333 m 1,0,-1
 797 1611 l 1,1,-1
 861 1448 l 1,2,-1
 575 1170 l 1,3,-1
 511 1333 l 1,0,-1
359 294 m 0,4,5
 359 261 359 261 385 226 c 0,6,7
 433 162 433 162 538 162 c 0,8,9
 602 162 602 162 651 192 c 1,10,-1
 711 41 l 1,11,12
 633 0 633 0 538 0 c 0,13,14
 388 0 388 0 272 110 c 1,15,16
 194 190 194 190 194 294 c 0,17,18
 194 298 194 298 194 302 c 0,19,20
 194 489 194 489 385 567 c 2,21,-1
 792 734 l 1,22,23
 792 829 792 829 729 893.5 c 128,-1,24
 666 958 666 958 570 958 c 0,25,26
 486 958 486 958 422 895 c 0,27,28
 360 834 360 834 358 741 c 1,29,-1
 358 727 l 1,30,-1
 198 656 l 1,31,-1
 198 744 l 2,32,33
 198 884 198 884 318 1012 c 0,34,35
 420 1120 420 1120 576 1120 c 128,-1,36
 732 1120 732 1120 842 1010 c 128,-1,37
 952 900 952 900 952 744 c 2,38,-1
 952 70 l 1,39,-1
 792 0 l 1,40,-1
 792 559 l 1,41,-1
 463 425 l 1,42,43
 359 376 359 376 359 294 c 0,4,5
EndSplineSet
Validated: 1
EndChar

StartChar: acircumflex
Encoding: 226 226 164
Width: 1150
GlyphClass: 2
Flags: W
HStem: 0 162<404.015 664.038> 958 162<444.1 705.032>
VStem: 198 160<207.594 383.669 727 872.613> 792 160<70 559 734 871.695>
DStem2: 385 567 463 425 0.925148 0.379606<-100.055 373.498>
LayerCount: 2
Fore
SplineSet
574 1563 m 1,0,-1
 831 1327 l 1,1,-1
 759 1181 l 1,2,-1
 573 1378 l 1,3,-1
 379 1181 l 1,4,-1
 312 1323 l 1,5,-1
 574 1563 l 1,0,-1
359 294 m 0,6,7
 359 261 359 261 385 226 c 0,8,9
 433 162 433 162 538 162 c 0,10,11
 602 162 602 162 651 192 c 1,12,-1
 711 41 l 1,13,14
 633 0 633 0 538 0 c 0,15,16
 388 0 388 0 272 110 c 1,17,18
 194 190 194 190 194 294 c 0,19,20
 194 298 194 298 194 302 c 0,21,22
 194 489 194 489 385 567 c 2,23,-1
 792 734 l 1,24,25
 792 829 792 829 729 893.5 c 128,-1,26
 666 958 666 958 570 958 c 0,27,28
 486 958 486 958 422 895 c 0,29,30
 360 834 360 834 358 741 c 1,31,-1
 358 727 l 1,32,-1
 198 656 l 1,33,-1
 198 744 l 2,34,35
 198 884 198 884 318 1012 c 0,36,37
 420 1120 420 1120 576 1120 c 128,-1,38
 732 1120 732 1120 842 1010 c 128,-1,39
 952 900 952 900 952 744 c 2,40,-1
 952 70 l 1,41,-1
 792 0 l 1,42,-1
 792 559 l 1,43,-1
 463 425 l 1,44,45
 359 376 359 376 359 294 c 0,6,7
EndSplineSet
Validated: 1
EndChar

StartChar: atilde
Encoding: 227 227 165
Width: 1150
GlyphClass: 2
Flags: W
HStem: 0 162<404.015 664.038> 958 162<444.1 705.032>
VStem: 198 160<207.594 383.669 727 872.613> 792 160<70 559 734 871.695>
DStem2: 318 1012 681 1173 0.71034 0.703859<521.181 719.843> 385 567 463 425 0.925148 0.379606<-100.055 373.498>
LayerCount: 2
Fore
SplineSet
694 1373 m 1,0,-1
 866 1555 l 1,1,-1
 938 1409 l 1,2,-1
 681 1173 l 1,3,-1
 481 1356 l 1,4,-1
 301 1173 l 1,5,-1
 234 1315 l 1,6,-1
 496 1555 l 1,7,-1
 694 1373 l 1,0,-1
359 294 m 0,8,9
 359 261 359 261 385 226 c 0,10,11
 433 162 433 162 538 162 c 0,12,13
 602 162 602 162 651 192 c 1,14,-1
 711 41 l 1,15,16
 633 0 633 0 538 0 c 0,17,18
 388 0 388 0 272 110 c 1,19,20
 194 190 194 190 194 294 c 0,21,22
 194 298 194 298 194 302 c 0,23,24
 194 489 194 489 385 567 c 2,25,-1
 792 734 l 1,26,27
 792 829 792 829 729 893.5 c 128,-1,28
 666 958 666 958 570 958 c 0,29,30
 486 958 486 958 422 895 c 0,31,32
 360 834 360 834 358 741 c 1,33,-1
 358 727 l 1,34,-1
 198 656 l 1,35,-1
 198 744 l 2,36,37
 198 884 198 884 318 1012 c 0,38,39
 420 1120 420 1120 576 1120 c 128,-1,40
 732 1120 732 1120 842 1010 c 128,-1,41
 952 900 952 900 952 744 c 2,42,-1
 952 70 l 1,43,-1
 792 0 l 1,44,-1
 792 559 l 1,45,-1
 463 425 l 1,46,47
 359 376 359 376 359 294 c 0,8,9
EndSplineSet
Validated: 1
EndChar

StartChar: adieresis
Encoding: 228 228 166
Width: 1150
GlyphClass: 2
Flags: W
HStem: 0 162<404.015 664.038> 958 162<444.1 705.032> 1247 264<258.191 439.809 710.191 891.809>
VStem: 198 160<207.594 383.669 727 872.613> 219 260<1286.71 1471.29> 671 260<1286.71 1471.29> 792 160<70 559 734 871.695>
DStem2: 385 567 463 425 0.925148 0.379606<-100.055 373.498>
LayerCount: 2
Fore
SplineSet
671 1379 m 128,-1,1
 671 1434 671 1434 709 1472.5 c 128,-1,2
 747 1511 747 1511 801 1511 c 128,-1,3
 855 1511 855 1511 893 1472.5 c 128,-1,4
 931 1434 931 1434 931 1379 c 128,-1,5
 931 1324 931 1324 893 1285.5 c 128,-1,6
 855 1247 855 1247 801 1247 c 128,-1,7
 747 1247 747 1247 709 1285.5 c 128,-1,0
 671 1324 671 1324 671 1379 c 128,-1,1
219 1379 m 128,-1,9
 219 1434 219 1434 257 1472.5 c 128,-1,10
 295 1511 295 1511 349 1511 c 128,-1,11
 403 1511 403 1511 441 1472.5 c 128,-1,12
 479 1434 479 1434 479 1379 c 128,-1,13
 479 1324 479 1324 441 1285.5 c 128,-1,14
 403 1247 403 1247 349 1247 c 128,-1,15
 295 1247 295 1247 257 1285.5 c 128,-1,8
 219 1324 219 1324 219 1379 c 128,-1,9
359 294 m 0,16,17
 359 261 359 261 385 226 c 0,18,19
 433 162 433 162 538 162 c 0,20,21
 602 162 602 162 651 192 c 1,22,-1
 711 41 l 1,23,24
 633 0 633 0 538 0 c 0,25,26
 388 0 388 0 272 110 c 1,27,28
 194 190 194 190 194 294 c 0,29,30
 194 298 194 298 194 302 c 0,31,32
 194 489 194 489 385 567 c 2,33,-1
 792 734 l 1,34,35
 792 829 792 829 729 893.5 c 128,-1,36
 666 958 666 958 570 958 c 0,37,38
 486 958 486 958 422 895 c 0,39,40
 360 834 360 834 358 741 c 1,41,-1
 358 727 l 1,42,-1
 198 656 l 1,43,-1
 198 744 l 2,44,45
 198 884 198 884 318 1012 c 0,46,47
 420 1120 420 1120 576 1120 c 128,-1,48
 732 1120 732 1120 842 1010 c 128,-1,49
 952 900 952 900 952 744 c 2,50,-1
 952 70 l 1,51,-1
 792 0 l 1,52,-1
 792 559 l 1,53,-1
 463 425 l 1,54,55
 359 376 359 376 359 294 c 0,16,17
EndSplineSet
Validated: 1
EndChar

StartChar: aring
Encoding: 229 229 167
Width: 1150
GlyphClass: 2
Flags: W
HStem: 0 162<404.015 664.038> 958 162<444.1 705.032> 1200 132<509.588 658.905> 1510 138<501.918 657.447>
VStem: 198 160<207.594 383.669 727 872.613> 351 137<1356.75 1495.59> 671 136<1345.76 1497> 792 160<70 559 734 871.695>
DStem2: 385 567 463 425 0.925148 0.379606<-100.055 373.498>
LayerCount: 2
Fore
SplineSet
586 1332 m 0,0,1
 616 1332 616 1332 644 1358 c 0,2,3
 671 1383 671 1383 671 1418 c 0,4,5
 671 1420 671 1420 671 1421 c 0,6,7
 671 1460 671 1460 644 1484 c 0,8,9
 615 1510 615 1510 581 1510 c 0,10,11
 580 1510 580 1510 579 1510 c 0,12,13
 542 1510 542 1510 514 1482 c 0,14,15
 488 1456 488 1456 488 1421 c 0,16,17
 488 1419 488 1419 488 1416 c 0,18,19
 491 1380 491 1380 518 1356 c 0,20,21
 544 1333 544 1333 586 1332 c 0,0,1
351 1424 m 0,22,23
 351 1518 351 1518 418 1583 c 128,-1,24
 485 1648 485 1648 579 1648 c 0,25,26
 671 1648 671 1648 739 1582 c 128,-1,27
 807 1516 807 1516 807 1424 c 128,-1,28
 807 1332 807 1332 739 1265 c 0,29,30
 673 1200 673 1200 579 1200 c 0,31,32
 483 1200 483 1200 415 1266 c 1,33,34
 351 1331 351 1331 351 1424 c 0,22,23
359 294 m 0,35,36
 359 261 359 261 385 226 c 0,37,38
 433 162 433 162 538 162 c 0,39,40
 602 162 602 162 651 192 c 1,41,-1
 711 41 l 1,42,43
 633 0 633 0 538 0 c 0,44,45
 388 0 388 0 272 110 c 1,46,47
 194 190 194 190 194 294 c 0,48,49
 194 298 194 298 194 302 c 0,50,51
 194 489 194 489 385 567 c 2,52,-1
 792 734 l 1,53,54
 792 829 792 829 729 893.5 c 128,-1,55
 666 958 666 958 570 958 c 0,56,57
 486 958 486 958 422 895 c 0,58,59
 360 834 360 834 358 741 c 1,60,-1
 358 727 l 1,61,-1
 198 656 l 1,62,-1
 198 744 l 2,63,64
 198 884 198 884 318 1012 c 0,65,66
 420 1120 420 1120 576 1120 c 128,-1,67
 732 1120 732 1120 842 1010 c 128,-1,68
 952 900 952 900 952 744 c 2,69,-1
 952 70 l 1,70,-1
 792 0 l 1,71,-1
 792 559 l 1,72,-1
 463 425 l 1,73,74
 359 376 359 376 359 294 c 0,35,36
EndSplineSet
Validated: 1
EndChar

StartChar: ae
Encoding: 230 230 168
Width: 1150
GlyphClass: 2
Flags: W
HStem: 0 157<694.798 863.28> 963 157<315.72 480.631 693.853 868.137>
VStem: 94 165<207.594 383.669> 124 160<822 927.026> 509 161<180.105 469 661 926.934> 894 161<192.974 298 756 937.414>
DStem2: 285 567 363 425 0.9221 0.386953<-105.189 175.594> 670 646 670 469 0.903595 0.428388<0 250.432>
LayerCount: 2
Fore
SplineSet
895 756 m 1,0,-1
 894 843 l 2,1,2
 893 895 893 895 860 928 c 0,3,4
 826 963 826 963 780 963 c 0,5,6
 735 963 735 963 702 928 c 0,7,8
 674 898 674 898 670 857 c 0,9,10
 670 851 670 851 670 844 c 2,11,-1
 670 843 l 1,12,-1
 670 646 l 1,13,-1
 895 756 l 1,0,-1
509 844 m 2,14,15
 509 894 509 894 477 928 c 0,16,17
 444 963 444 963 399 963 c 0,18,19
 353 963 353 963 319 928 c 0,20,21
 288 897 288 897 285 843 c 2,22,-1
 284 822 l 1,23,-1
 124 752 l 1,24,-1
 124 848 l 2,25,26
 124 955 124 955 204 1040 c 0,27,28
 279 1120 279 1120 397 1120 c 0,29,30
 514 1120 514 1120 590 1043 c 1,31,32
 665 1120 665 1120 782 1120 c 0,33,34
 900 1120 900 1120 975 1040 c 0,35,36
 1054 955 1054 955 1055 848 c 2,37,-1
 1056 652 l 1,38,-1
 670 469 l 1,39,-1
 669 268 l 1,40,41
 672 224 672 224 702 192 c 0,42,43
 735 157 735 157 780 157 c 0,44,45
 826 157 826 157 860 192 c 0,46,47
 891 223 891 223 894 277 c 2,48,-1
 895 298 l 1,49,-1
 1055 368 l 1,50,-1
 1055 272 l 2,51,52
 1055 165 1055 165 975 80 c 0,53,54
 900 0 900 0 782 0 c 0,55,56
 689 0 689 0 622 49 c 1,57,-1
 509 0 l 1,58,-1
 509 262 l 2,59,60
 509 275 509 275 509 276 c 2,61,-1
 509 277 l 1,62,-1
 509 347 l 1,63,-1
 509 487 l 1,64,-1
 363 425 l 1,65,66
 259 376 259 376 259 294 c 0,67,68
 259 261 259 261 285 226 c 0,69,70
 327 170 327 170 412 163 c 1,71,-1
 462 1 l 1,72,73
 450 0 450 0 438 0 c 0,74,75
 288 0 288 0 172 110 c 1,76,77
 94 190 94 190 94 294 c 2,78,-1
 94 302 l 2,79,80
 94 489 94 489 285 567 c 1,81,-1
 509 661 l 1,82,-1
 509 843 l 1,83,-1
 509 844 l 2,14,15
EndSplineSet
Validated: 1
EndChar

StartChar: ccedilla
Encoding: 231 231 169
Width: 1150
GlyphClass: 2
Flags: W
HStem: -473 175<408 583> 958 162<444.614 707.035>
VStem: 198 160<249.305 871.695> 792 160<247.387 393 734 871.203>
LayerCount: 2
Fore
SplineSet
358 379 m 2,0,1
 358 287 358 287 425 225 c 0,2,3
 493 162 493 162 580 162 c 0,4,5
 664 162 664 162 728 225 c 0,6,7
 790 286 790 286 792 379 c 1,8,-1
 792 393 l 1,9,-1
 952 464 l 1,10,-1
 952 376 l 2,11,12
 952 236 952 236 832 108 c 0,13,14
 757 28 757 28 652 7 c 1,15,-1
 726 -157 l 1,16,-1
 730 -333 l 1,17,-1
 412 -473 l 1,18,-1
 408 -298 l 1,19,-1
 584 -225 l 1,20,-1
 475 12 l 1,21,22
 381 37 381 37 308 110 c 0,23,24
 198 220 198 220 198 376 c 2,25,-1
 198 744 l 2,26,27
 198 900 198 900 308 1010 c 128,-1,28
 418 1120 418 1120 574 1120 c 0,29,30
 731 1120 731 1120 841 1010 c 0,31,32
 952 899 952 899 952 744 c 2,33,-1
 952 734 l 1,34,-1
 792 662 l 1,35,-1
 792 741 l 1,36,37
 790 834 790 834 728 895 c 0,38,39
 664 958 664 958 577 958 c 0,40,41
 487 958 487 958 422 895 c 0,42,43
 358 832 358 832 358 744 c 2,44,-1
 358 741 l 1,45,-1
 358 379 l 2,0,1
EndSplineSet
Validated: 1
EndChar

StartChar: egrave
Encoding: 232 232 170
Width: 1150
GlyphClass: 2
Flags: W
HStem: 0 162<444.968 705.9> 958 162<441.635 707.296>
VStem: 198 160<248.305 386 561 871.695> 792 160<247.387 393>
DStem2: 352 1611 288 1448 0.717065 -0.697007<67.72 398.848> 358 561 358 386 0.913812 0.406138<0 485.987>
LayerCount: 2
Fore
SplineSet
638 1333 m 1,0,-1
 574 1170 l 1,1,-1
 288 1448 l 1,2,-1
 352 1611 l 1,3,-1
 638 1333 l 1,0,-1
580 162 m 0,4,5
 664 162 664 162 728 225 c 0,6,7
 790 286 790 286 792 379 c 1,8,-1
 792 393 l 1,9,-1
 952 464 l 1,10,-1
 952 376 l 2,11,12
 952 236 952 236 832 108 c 0,13,14
 730 0 730 0 574 0 c 128,-1,15
 418 0 418 0 308 110 c 128,-1,16
 198 220 198 220 198 376 c 2,17,-1
 198 744 l 2,18,19
 198 900 198 900 308 1010 c 128,-1,20
 418 1120 418 1120 574 1120 c 0,21,22
 724 1120 724 1120 841 1010 c 0,23,24
 952 906 952 906 952 744 c 2,25,-1
 952 650 l 1,26,-1
 358 386 l 1,27,28
 358 291 358 291 421 226.5 c 128,-1,29
 484 162 484 162 580 162 c 0,4,5
568 958 m 0,30,31
 484 958 484 958 421 895 c 128,-1,32
 358 832 358 832 358 744 c 0,33,34
 358 742 358 742 358 741 c 2,35,-1
 358 561 l 1,36,-1
 791 754 l 1,37,38
 786 838 786 838 728 895 c 0,39,40
 664 958 664 958 568 958 c 0,30,31
EndSplineSet
Validated: 1
EndChar

StartChar: eacute
Encoding: 233 233 171
Width: 1150
GlyphClass: 2
Flags: W
HStem: 0 162<444.968 705.9> 958 162<441.635 707.296>
VStem: 198 160<248.305 386 561 871.695> 792 160<247.387 393>
DStem2: 358 561 358 386 0.913812 0.406138<0 485.987> 511 1333 575 1170 0.717065 0.697007<0 331.128>
LayerCount: 2
Fore
SplineSet
511 1333 m 1,0,-1
 797 1611 l 1,1,-1
 861 1448 l 1,2,-1
 575 1170 l 1,3,-1
 511 1333 l 1,0,-1
580 162 m 0,4,5
 664 162 664 162 728 225 c 0,6,7
 790 286 790 286 792 379 c 1,8,-1
 792 393 l 1,9,-1
 952 464 l 1,10,-1
 952 376 l 2,11,12
 952 236 952 236 832 108 c 0,13,14
 730 0 730 0 574 0 c 128,-1,15
 418 0 418 0 308 110 c 128,-1,16
 198 220 198 220 198 376 c 2,17,-1
 198 744 l 2,18,19
 198 900 198 900 308 1010 c 128,-1,20
 418 1120 418 1120 574 1120 c 0,21,22
 724 1120 724 1120 841 1010 c 0,23,24
 952 906 952 906 952 744 c 2,25,-1
 952 650 l 1,26,-1
 358 386 l 1,27,28
 358 291 358 291 421 226.5 c 128,-1,29
 484 162 484 162 580 162 c 0,4,5
568 958 m 0,30,31
 484 958 484 958 421 895 c 128,-1,32
 358 832 358 832 358 744 c 0,33,34
 358 742 358 742 358 741 c 2,35,-1
 358 561 l 1,36,-1
 791 754 l 1,37,38
 786 838 786 838 728 895 c 0,39,40
 664 958 664 958 568 958 c 0,30,31
EndSplineSet
Validated: 1
EndChar

StartChar: ecircumflex
Encoding: 234 234 172
Width: 1150
GlyphClass: 2
Flags: W
HStem: 0 162<444.968 705.9> 958 162<441.635 707.296>
VStem: 198 160<248.305 386 561 871.695> 792 160<247.387 393>
DStem2: 358 561 358 386 0.913812 0.406138<0 485.987>
LayerCount: 2
Fore
SplineSet
574 1563 m 1,0,-1
 831 1327 l 1,1,-1
 759 1181 l 1,2,-1
 573 1378 l 1,3,-1
 379 1181 l 1,4,-1
 312 1323 l 1,5,-1
 574 1563 l 1,0,-1
580 162 m 0,6,7
 664 162 664 162 728 225 c 0,8,9
 790 286 790 286 792 379 c 1,10,-1
 792 393 l 1,11,-1
 952 464 l 1,12,-1
 952 376 l 2,13,14
 952 236 952 236 832 108 c 0,15,16
 730 0 730 0 574 0 c 128,-1,17
 418 0 418 0 308 110 c 128,-1,18
 198 220 198 220 198 376 c 2,19,-1
 198 744 l 2,20,21
 198 900 198 900 308 1010 c 128,-1,22
 418 1120 418 1120 574 1120 c 0,23,24
 724 1120 724 1120 841 1010 c 0,25,26
 952 906 952 906 952 744 c 2,27,-1
 952 650 l 1,28,-1
 358 386 l 1,29,30
 358 291 358 291 421 226.5 c 128,-1,31
 484 162 484 162 580 162 c 0,6,7
568 958 m 0,32,33
 484 958 484 958 421 895 c 128,-1,34
 358 832 358 832 358 744 c 0,35,36
 358 742 358 742 358 741 c 2,37,-1
 358 561 l 1,38,-1
 791 754 l 1,39,40
 786 838 786 838 728 895 c 0,41,42
 664 958 664 958 568 958 c 0,32,33
EndSplineSet
Validated: 1
EndChar

StartChar: edieresis
Encoding: 235 235 173
Width: 1150
GlyphClass: 2
Flags: W
HStem: 0 162<444.968 705.9> 958 162<441.635 707.296> 1247 264<258.191 439.809 710.191 891.809>
VStem: 198 160<248.305 386 561 871.695> 219 260<1286.71 1471.29> 671 260<1286.71 1471.29> 792 160<247.387 393>
DStem2: 358 561 358 386 0.913812 0.406138<0 485.987>
LayerCount: 2
Fore
SplineSet
671 1379 m 128,-1,1
 671 1434 671 1434 709 1472.5 c 128,-1,2
 747 1511 747 1511 801 1511 c 128,-1,3
 855 1511 855 1511 893 1472.5 c 128,-1,4
 931 1434 931 1434 931 1379 c 128,-1,5
 931 1324 931 1324 893 1285.5 c 128,-1,6
 855 1247 855 1247 801 1247 c 128,-1,7
 747 1247 747 1247 709 1285.5 c 128,-1,0
 671 1324 671 1324 671 1379 c 128,-1,1
219 1379 m 128,-1,9
 219 1434 219 1434 257 1472.5 c 128,-1,10
 295 1511 295 1511 349 1511 c 128,-1,11
 403 1511 403 1511 441 1472.5 c 128,-1,12
 479 1434 479 1434 479 1379 c 128,-1,13
 479 1324 479 1324 441 1285.5 c 128,-1,14
 403 1247 403 1247 349 1247 c 128,-1,15
 295 1247 295 1247 257 1285.5 c 128,-1,8
 219 1324 219 1324 219 1379 c 128,-1,9
580 162 m 0,16,17
 664 162 664 162 728 225 c 0,18,19
 790 286 790 286 792 379 c 1,20,-1
 792 393 l 1,21,-1
 952 464 l 1,22,-1
 952 376 l 2,23,24
 952 236 952 236 832 108 c 0,25,26
 730 0 730 0 574 0 c 128,-1,27
 418 0 418 0 308 110 c 128,-1,28
 198 220 198 220 198 376 c 2,29,-1
 198 744 l 2,30,31
 198 900 198 900 308 1010 c 128,-1,32
 418 1120 418 1120 574 1120 c 0,33,34
 724 1120 724 1120 841 1010 c 0,35,36
 952 906 952 906 952 744 c 2,37,-1
 952 650 l 1,38,-1
 358 386 l 1,39,40
 358 291 358 291 421 226.5 c 128,-1,41
 484 162 484 162 580 162 c 0,16,17
568 958 m 0,42,43
 484 958 484 958 421 895 c 128,-1,44
 358 832 358 832 358 744 c 0,45,46
 358 742 358 742 358 741 c 2,47,-1
 358 561 l 1,48,-1
 791 754 l 1,49,50
 786 838 786 838 728 895 c 0,51,52
 664 958 664 958 568 958 c 0,42,43
EndSplineSet
Validated: 1
EndChar

StartChar: igrave
Encoding: 236 236 174
Width: 1150
GlyphClass: 2
Flags: W
HStem: 0 162<443.323 704.166> 1100 20G<312.286 358>
VStem: 198 160<248.305 1050> 792 160<252.562 386>
DStem2: 64 1611 0 1448 0.717065 -0.697007<67.72 398.848>
LayerCount: 2
Fore
SplineSet
350 1333 m 1,0,-1
 286 1170 l 1,1,-1
 0 1448 l 1,2,-1
 64 1611 l 1,3,-1
 350 1333 l 1,0,-1
792 386 m 1,4,-1
 952 456 l 1,5,-1
 952 376 l 2,6,7
 952 220 952 220 842 110 c 128,-1,8
 732 0 732 0 576 0 c 128,-1,9
 420 0 420 0 309 110 c 128,-1,10
 198 220 198 220 198 376 c 2,11,-1
 198 1050 l 1,12,-1
 358 1120 l 1,13,-1
 358 379 l 1,14,15
 360 286 360 286 422 225 c 0,16,17
 486 162 486 162 582 162 c 0,18,19
 666 162 666 162 729 230 c 128,-1,20
 792 298 792 298 792 386 c 1,4,-1
EndSplineSet
Validated: 1
EndChar

StartChar: iacute
Encoding: 237 237 175
Width: 1150
GlyphClass: 2
Flags: W
HStem: 0 162<443.323 704.166> 1100 20G<312.286 358>
VStem: 198 160<248.305 1050> 792 160<252.562 386>
DStem2: 209 1333 273 1170 0.717065 0.697007<0 331.128>
LayerCount: 2
Fore
SplineSet
209 1333 m 1,0,-1
 495 1611 l 1,1,-1
 559 1448 l 1,2,-1
 273 1170 l 1,3,-1
 209 1333 l 1,0,-1
792 386 m 1,4,-1
 952 456 l 1,5,-1
 952 376 l 2,6,7
 952 220 952 220 842 110 c 128,-1,8
 732 0 732 0 576 0 c 128,-1,9
 420 0 420 0 309 110 c 128,-1,10
 198 220 198 220 198 376 c 2,11,-1
 198 1050 l 1,12,-1
 358 1120 l 1,13,-1
 358 379 l 1,14,15
 360 286 360 286 422 225 c 0,16,17
 486 162 486 162 582 162 c 0,18,19
 666 162 666 162 729 230 c 128,-1,20
 792 298 792 298 792 386 c 1,4,-1
EndSplineSet
Validated: 1
EndChar

StartChar: icircumflex
Encoding: 238 238 176
Width: 1150
GlyphClass: 2
Flags: W
HStem: 0 162<443.323 704.166> 1100 20G<312.286 358>
VStem: 198 160<248.305 1050> 792 160<252.562 386>
LayerCount: 2
Fore
SplineSet
279 1561 m 1,0,-1
 536 1325 l 1,1,-1
 464 1179 l 1,2,-1
 278 1376 l 1,3,-1
 84 1179 l 1,4,-1
 17 1321 l 1,5,-1
 279 1561 l 1,0,-1
792 386 m 1,6,-1
 952 456 l 1,7,-1
 952 376 l 2,8,9
 952 220 952 220 842 110 c 128,-1,10
 732 0 732 0 576 0 c 128,-1,11
 420 0 420 0 309 110 c 128,-1,12
 198 220 198 220 198 376 c 2,13,-1
 198 1050 l 1,14,-1
 358 1120 l 1,15,-1
 358 379 l 1,16,17
 360 286 360 286 422 225 c 0,18,19
 486 162 486 162 582 162 c 0,20,21
 666 162 666 162 729 230 c 128,-1,22
 792 298 792 298 792 386 c 1,6,-1
EndSplineSet
Validated: 1
EndChar

StartChar: idieresis
Encoding: 239 239 177
Width: 1150
GlyphClass: 2
Flags: W
HStem: 0 162<443.323 704.166> 1100 20G<312.286 358> 1247 264<-16.8086 164.809 435.191 616.809>
VStem: -56 260<1286.71 1471.29> 198 160<248.305 1050> 396 260<1286.71 1471.29> 792 160<252.562 386>
LayerCount: 2
Fore
SplineSet
396 1379 m 128,-1,1
 396 1434 396 1434 434 1472.5 c 128,-1,2
 472 1511 472 1511 526 1511 c 128,-1,3
 580 1511 580 1511 618 1472.5 c 128,-1,4
 656 1434 656 1434 656 1379 c 128,-1,5
 656 1324 656 1324 618 1285.5 c 128,-1,6
 580 1247 580 1247 526 1247 c 128,-1,7
 472 1247 472 1247 434 1285.5 c 128,-1,0
 396 1324 396 1324 396 1379 c 128,-1,1
-56 1379 m 128,-1,9
 -56 1434 -56 1434 -18 1472.5 c 128,-1,10
 20 1511 20 1511 74 1511 c 128,-1,11
 128 1511 128 1511 166 1472.5 c 128,-1,12
 204 1434 204 1434 204 1379 c 128,-1,13
 204 1324 204 1324 166 1285.5 c 128,-1,14
 128 1247 128 1247 74 1247 c 128,-1,15
 20 1247 20 1247 -18 1285.5 c 128,-1,8
 -56 1324 -56 1324 -56 1379 c 128,-1,9
792 386 m 1,16,-1
 952 456 l 1,17,-1
 952 376 l 2,18,19
 952 220 952 220 842 110 c 128,-1,20
 732 0 732 0 576 0 c 128,-1,21
 420 0 420 0 309 110 c 128,-1,22
 198 220 198 220 198 376 c 2,23,-1
 198 1050 l 1,24,-1
 358 1120 l 1,25,-1
 358 379 l 1,26,27
 360 286 360 286 422 225 c 0,28,29
 486 162 486 162 582 162 c 0,30,31
 666 162 666 162 729 230 c 128,-1,32
 792 298 792 298 792 386 c 1,16,-1
EndSplineSet
Validated: 1
EndChar

StartChar: eth
Encoding: 240 240 178
Width: 1150
GlyphClass: 2
Flags: W
HStem: 0 162<441.635 706.677> 958 162<448.638 707.186> 1493 20G<645.846 705.5>
VStem: 198 160<248.305 870.695> 792 160<248.305 873.086 1052 1208.9>
LayerCount: 2
Fore
SplineSet
358 741 m 2,0,-1
 358 379 l 1,1,-1
 358 373 l 1,2,3
 359 287 359 287 421 225 c 0,4,5
 484 162 484 162 568 162 c 0,6,7
 664 162 664 162 728 225 c 0,8,9
 790 286 790 286 792 379 c 1,10,-1
 792 741 l 1,11,12
 790 834 790 834 728 895 c 0,13,14
 664 958 664 958 580 958 c 0,15,16
 493 958 493 958 425 895 c 0,17,18
 358 833 358 833 358 741 c 2,0,-1
652 1513 m 1,19,20
 759 1491 759 1491 841 1410 c 2,21,-1
 846 1405 l 1,22,-1
 1057 1483 l 1,23,-1
 1046 1308 l 1,24,-1
 933 1266 l 1,25,26
 952 1209 952 1209 952 1144 c 2,27,-1
 952 376 l 2,28,29
 952 220 952 220 841 110 c 128,-1,30
 730 0 730 0 574 0 c 128,-1,31
 418 0 418 0 308 110 c 128,-1,32
 198 220 198 220 198 376 c 2,33,-1
 198 744 l 2,34,35
 198 900 198 900 308 1010 c 128,-1,36
 418 1120 418 1120 574 1120 c 0,37,38
 697 1120 697 1120 792 1052 c 1,39,-1
 792 1141 l 1,40,41
 791 1178 791 1178 781 1210 c 1,42,-1
 596 1142 l 1,43,-1
 607 1317 l 1,44,-1
 667 1339 l 1,45,46
 637 1353 637 1353 604 1357 c 1,47,-1
 652 1513 l 1,19,20
EndSplineSet
Validated: 1
EndChar

StartChar: ntilde
Encoding: 241 241 179
Width: 1150
GlyphClass: 2
Flags: W
HStem: 0 21G<198 243.714 792 837.714> 958 162<445.693 706.787>
VStem: 198 160<70 871.695> 792 160<70 871.695>
LayerCount: 2
Fore
SplineSet
694 1373 m 1,0,-1
 866 1555 l 1,1,-1
 938 1409 l 1,2,-1
 681 1173 l 1,3,-1
 481 1356 l 1,4,-1
 301 1173 l 1,5,-1
 234 1315 l 1,6,-1
 496 1555 l 1,7,-1
 694 1373 l 1,0,-1
577 958 m 0,8,9
 487 958 487 958 422 894 c 0,10,11
 358 832 358 832 358 744 c 0,12,13
 358 742 358 742 358 741 c 2,14,-1
 358 70 l 1,15,-1
 198 0 l 1,16,-1
 198 744 l 2,17,18
 198 900 198 900 308 1010 c 128,-1,19
 418 1120 418 1120 574 1120 c 128,-1,20
 730 1120 730 1120 841 1010 c 128,-1,21
 952 900 952 900 952 744 c 2,22,-1
 952 70 l 1,23,-1
 792 0 l 1,24,-1
 792 741 l 1,25,26
 790 834 790 834 728 895 c 0,27,28
 664 958 664 958 577 958 c 0,8,9
EndSplineSet
Validated: 1
EndChar

StartChar: ograve
Encoding: 242 242 180
Width: 1150
GlyphClass: 2
Flags: W
HStem: 0 162<448.638 706.824> 958 162<441.635 706.677>
VStem: 198 160<249.305 871.695> 792 160<248.305 871.695>
DStem2: 352 1611 288 1448 0.717065 -0.697007<67.72 398.848>
LayerCount: 2
Fore
SplineSet
638 1333 m 1,0,-1
 574 1170 l 1,1,-1
 288 1448 l 1,2,-1
 352 1611 l 1,3,-1
 638 1333 l 1,0,-1
358 379 m 2,4,5
 358 287 358 287 425 225 c 0,6,7
 493 162 493 162 580 162 c 0,8,9
 664 162 664 162 728 225 c 0,10,11
 790 286 790 286 792 379 c 1,12,-1
 792 741 l 1,13,14
 790 834 790 834 728 895 c 0,15,16
 664 958 664 958 568 958 c 0,17,18
 484 958 484 958 421 895 c 0,19,20
 359 833 359 833 358 747 c 1,21,-1
 358 741 l 1,22,-1
 358 379 l 2,4,5
198 744 m 2,23,24
 198 900 198 900 308 1010 c 128,-1,25
 418 1120 418 1120 574 1120 c 128,-1,26
 730 1120 730 1120 841 1010 c 128,-1,27
 952 900 952 900 952 744 c 2,28,-1
 952 376 l 2,29,30
 952 220 952 220 841 110 c 128,-1,31
 730 0 730 0 574 0 c 128,-1,32
 418 0 418 0 308 110 c 128,-1,33
 198 220 198 220 198 376 c 2,34,-1
 198 744 l 2,23,24
EndSplineSet
Validated: 1
EndChar

StartChar: oacute
Encoding: 243 243 181
Width: 1150
GlyphClass: 2
Flags: W
HStem: 0 162<448.638 706.824> 958 162<444.614 706.787>
VStem: 198 160<249.094 871.695> 792 160<248.305 871.695>
DStem2: 511 1333 575 1170 0.717065 0.697007<0 331.128>
LayerCount: 2
Fore
SplineSet
511 1333 m 1,0,-1
 797 1611 l 1,1,-1
 861 1448 l 1,2,-1
 575 1170 l 1,3,-1
 511 1333 l 1,0,-1
577 958 m 0,4,5
 487 958 487 958 422 895 c 0,6,7
 358 832 358 832 358 744 c 0,8,9
 358 742 358 742 358 741 c 2,10,-1
 358 379 l 1,11,-1
 358 376 l 2,12,13
 358 375 358 375 358 373 c 0,14,15
 358 287 358 287 425 225 c 0,16,17
 493 162 493 162 580 162 c 0,18,19
 664 162 664 162 728 225 c 0,20,21
 790 286 790 286 792 379 c 1,22,-1
 792 741 l 1,23,24
 790 834 790 834 728 895 c 0,25,26
 664 958 664 958 577 958 c 0,4,5
198 744 m 2,27,28
 198 900 198 900 308 1010 c 128,-1,29
 418 1120 418 1120 574 1120 c 128,-1,30
 730 1120 730 1120 841 1010 c 128,-1,31
 952 900 952 900 952 744 c 2,32,-1
 952 376 l 2,33,34
 952 220 952 220 841 110 c 128,-1,35
 730 0 730 0 574 0 c 128,-1,36
 418 0 418 0 308 110 c 128,-1,37
 198 220 198 220 198 376 c 2,38,-1
 198 744 l 2,27,28
EndSplineSet
Validated: 1
EndChar

StartChar: ocircumflex
Encoding: 244 244 182
Width: 1150
GlyphClass: 2
Flags: W
HStem: 0 162<448.638 706.824> 958 162<441.635 706.677>
VStem: 198 160<249.305 871.695> 792 160<248.305 871.695>
LayerCount: 2
Fore
SplineSet
574 1563 m 1,0,-1
 831 1327 l 1,1,-1
 759 1181 l 1,2,-1
 573 1378 l 1,3,-1
 379 1181 l 1,4,-1
 312 1323 l 1,5,-1
 574 1563 l 1,0,-1
358 379 m 2,6,7
 358 287 358 287 425 225 c 0,8,9
 493 162 493 162 580 162 c 0,10,11
 664 162 664 162 728 225 c 0,12,13
 790 286 790 286 792 379 c 1,14,-1
 792 741 l 1,15,16
 790 834 790 834 728 895 c 0,17,18
 664 958 664 958 568 958 c 0,19,20
 484 958 484 958 421 895 c 0,21,22
 359 833 359 833 358 747 c 1,23,-1
 358 741 l 1,24,-1
 358 379 l 2,6,7
198 744 m 2,25,26
 198 900 198 900 308 1010 c 128,-1,27
 418 1120 418 1120 574 1120 c 128,-1,28
 730 1120 730 1120 841 1010 c 128,-1,29
 952 900 952 900 952 744 c 2,30,-1
 952 376 l 2,31,32
 952 220 952 220 841 110 c 128,-1,33
 730 0 730 0 574 0 c 128,-1,34
 418 0 418 0 308 110 c 128,-1,35
 198 220 198 220 198 376 c 2,36,-1
 198 744 l 2,25,26
EndSplineSet
Validated: 1
EndChar

StartChar: otilde
Encoding: 245 245 183
Width: 1150
GlyphClass: 2
Flags: W
HStem: 0 162<448.638 706.824> 958 162<441.635 706.677>
VStem: 198 160<249.305 871.695> 792 160<248.305 871.695>
LayerCount: 2
Fore
SplineSet
694 1373 m 1,0,-1
 866 1555 l 1,1,-1
 938 1409 l 1,2,-1
 681 1173 l 1,3,-1
 481 1356 l 1,4,-1
 301 1173 l 1,5,-1
 234 1315 l 1,6,-1
 496 1555 l 1,7,-1
 694 1373 l 1,0,-1
358 379 m 2,8,9
 358 287 358 287 425 225 c 0,10,11
 493 162 493 162 580 162 c 0,12,13
 664 162 664 162 728 225 c 0,14,15
 790 286 790 286 792 379 c 1,16,-1
 792 741 l 1,17,18
 790 834 790 834 728 895 c 0,19,20
 664 958 664 958 568 958 c 0,21,22
 484 958 484 958 421 895 c 0,23,24
 359 833 359 833 358 747 c 1,25,-1
 358 741 l 1,26,-1
 358 379 l 2,8,9
198 744 m 2,27,28
 198 900 198 900 308 1010 c 128,-1,29
 418 1120 418 1120 574 1120 c 128,-1,30
 730 1120 730 1120 841 1010 c 128,-1,31
 952 900 952 900 952 744 c 2,32,-1
 952 376 l 2,33,34
 952 220 952 220 841 110 c 128,-1,35
 730 0 730 0 574 0 c 128,-1,36
 418 0 418 0 308 110 c 128,-1,37
 198 220 198 220 198 376 c 2,38,-1
 198 744 l 2,27,28
EndSplineSet
Validated: 1
EndChar

StartChar: odieresis
Encoding: 246 246 184
Width: 1150
GlyphClass: 2
Flags: W
HStem: 0 162<448.638 706.824> 958 162<441.635 706.677> 1247 264<258.191 439.809 710.191 891.809>
VStem: 198 160<249.305 871.695> 219 260<1286.71 1471.29> 671 260<1286.71 1471.29> 792 160<248.305 871.695>
LayerCount: 2
Fore
SplineSet
671 1379 m 128,-1,1
 671 1434 671 1434 709 1472.5 c 128,-1,2
 747 1511 747 1511 801 1511 c 128,-1,3
 855 1511 855 1511 893 1472.5 c 128,-1,4
 931 1434 931 1434 931 1379 c 128,-1,5
 931 1324 931 1324 893 1285.5 c 128,-1,6
 855 1247 855 1247 801 1247 c 128,-1,7
 747 1247 747 1247 709 1285.5 c 128,-1,0
 671 1324 671 1324 671 1379 c 128,-1,1
219 1379 m 128,-1,9
 219 1434 219 1434 257 1472.5 c 128,-1,10
 295 1511 295 1511 349 1511 c 128,-1,11
 403 1511 403 1511 441 1472.5 c 128,-1,12
 479 1434 479 1434 479 1379 c 128,-1,13
 479 1324 479 1324 441 1285.5 c 128,-1,14
 403 1247 403 1247 349 1247 c 128,-1,15
 295 1247 295 1247 257 1285.5 c 128,-1,8
 219 1324 219 1324 219 1379 c 128,-1,9
358 379 m 2,16,17
 358 287 358 287 425 225 c 0,18,19
 493 162 493 162 580 162 c 0,20,21
 664 162 664 162 728 225 c 0,22,23
 790 286 790 286 792 379 c 1,24,-1
 792 741 l 1,25,26
 790 834 790 834 728 895 c 0,27,28
 664 958 664 958 568 958 c 0,29,30
 484 958 484 958 421 895 c 0,31,32
 359 833 359 833 358 747 c 1,33,-1
 358 741 l 1,34,-1
 358 379 l 2,16,17
198 744 m 2,35,36
 198 900 198 900 308 1010 c 128,-1,37
 418 1120 418 1120 574 1120 c 128,-1,38
 730 1120 730 1120 841 1010 c 128,-1,39
 952 900 952 900 952 744 c 2,40,-1
 952 376 l 2,41,42
 952 220 952 220 841 110 c 128,-1,43
 730 0 730 0 574 0 c 128,-1,44
 418 0 418 0 308 110 c 128,-1,45
 198 220 198 220 198 376 c 2,46,-1
 198 744 l 2,35,36
EndSplineSet
Validated: 1
EndChar

StartChar: divide
Encoding: 247 247 185
Width: 1150
GlyphClass: 2
Flags: W
HStem: 228 264<484.191 665.809> 675 160<209 941> 1005 264<484.191 665.809>
VStem: 445 260<267.707 452.293 1044.71 1229.29>
LayerCount: 2
Fore
SplineSet
209 835 m 1,0,-1
 1011 835 l 1,1,-1
 941 675 l 1,2,-1
 139 675 l 1,3,-1
 209 835 l 1,0,-1
445 360 m 128,-1,5
 445 415 445 415 483 453.5 c 128,-1,6
 521 492 521 492 575 492 c 128,-1,7
 629 492 629 492 667 453.5 c 128,-1,8
 705 415 705 415 705 360 c 128,-1,9
 705 305 705 305 667 266.5 c 128,-1,10
 629 228 629 228 575 228 c 128,-1,11
 521 228 521 228 483 266.5 c 128,-1,4
 445 305 445 305 445 360 c 128,-1,5
445 1137 m 128,-1,13
 445 1192 445 1192 483 1230.5 c 128,-1,14
 521 1269 521 1269 575 1269 c 128,-1,15
 629 1269 629 1269 667 1230.5 c 128,-1,16
 705 1192 705 1192 705 1137 c 128,-1,17
 705 1082 705 1082 667 1043.5 c 128,-1,18
 629 1005 629 1005 575 1005 c 128,-1,19
 521 1005 521 1005 483 1043.5 c 128,-1,12
 445 1082 445 1082 445 1137 c 128,-1,13
EndSplineSet
Validated: 1
EndChar

StartChar: oslash
Encoding: 248 248 186
Width: 1150
GlyphClass: 2
Flags: W
HStem: 0 162<447.887 706.824> 958 162<441.635 706.172>
VStem: 198 160<391 871.695> 792 160<248.305 731>
DStem2: 59 -31 204 -99 0.577963 0.816063<28.3124 254.997 517.19 1045.49 1306.29 1532.97>
LayerCount: 2
Fore
SplineSet
198 744 m 2,0,1
 198 900 198 900 308 1010 c 128,-1,2
 418 1120 418 1120 574 1120 c 0,3,4
 711 1120 711 1120 814 1035 c 1,5,-1
 945 1220 l 1,6,-1
 1090 1152 l 1,7,-1
 916 906 l 1,8,9
 952 833 952 833 952 744 c 2,10,-1
 952 376 l 2,11,12
 952 220 952 220 841 110 c 128,-1,13
 730 0 730 0 574 0 c 0,14,15
 436 0 436 0 335 86 c 1,16,-1
 204 -99 l 1,17,-1
 59 -31 l 1,18,-1
 233 215 l 1,19,20
 198 288 198 288 198 376 c 2,21,-1
 198 744 l 2,0,1
358 391 m 1,22,-1
 720 902 l 1,23,24
 658 958 658 958 568 958 c 0,25,26
 484 958 484 958 421 895 c 0,27,28
 359 833 359 833 358 747 c 1,29,-1
 358 741 l 1,30,-1
 358 391 l 1,22,-1
792 731 m 1,31,-1
 430 220 l 1,32,33
 496 162 496 162 580 162 c 128,-1,34
 664 162 664 162 728 225 c 0,35,36
 790 286 790 286 792 379 c 1,37,-1
 792 731 l 1,31,-1
EndSplineSet
Validated: 1
EndChar

StartChar: ugrave
Encoding: 249 249 187
Width: 1150
GlyphClass: 2
Flags: W
HStem: 0 162<443.323 708.365> 1100 20G<312.286 358 872 952>
VStem: 198 160<248.305 1050> 792 160<248.305 1050>
DStem2: 352 1611 288 1448 0.717065 -0.697007<67.72 398.848>
LayerCount: 2
Fore
SplineSet
638 1333 m 1,0,-1
 574 1170 l 1,1,-1
 288 1448 l 1,2,-1
 352 1611 l 1,3,-1
 638 1333 l 1,0,-1
582 162 m 0,4,5
 666 162 666 162 729 225 c 128,-1,6
 792 288 792 288 792 376 c 0,7,8
 792 378 792 378 792 379 c 2,9,-1
 792 1050 l 1,10,11
 792 1050 792 1050 952 1120 c 1,12,-1
 952 376 l 2,13,14
 952 220 952 220 842 110 c 128,-1,15
 732 0 732 0 576 0 c 128,-1,16
 420 0 420 0 309 110 c 128,-1,17
 198 220 198 220 198 376 c 2,18,-1
 198 1050 l 1,19,-1
 358 1120 l 1,20,-1
 358 379 l 1,21,22
 360 286 360 286 422 225 c 0,23,24
 486 162 486 162 582 162 c 0,4,5
EndSplineSet
Validated: 1
EndChar

StartChar: uacute
Encoding: 250 250 188
Width: 1150
GlyphClass: 2
Flags: W
HStem: 0 162<443.323 708.365> 1100 20G<312.286 358 872 952>
VStem: 198 160<248.305 1050> 792 160<248.305 1050>
DStem2: 511 1333 575 1170 0.717065 0.697007<0 331.128>
LayerCount: 2
Fore
SplineSet
511 1333 m 1,0,-1
 797 1611 l 1,1,-1
 861 1448 l 1,2,-1
 575 1170 l 1,3,-1
 511 1333 l 1,0,-1
582 162 m 0,4,5
 666 162 666 162 729 225 c 128,-1,6
 792 288 792 288 792 376 c 0,7,8
 792 378 792 378 792 379 c 2,9,-1
 792 1050 l 1,10,11
 792 1050 792 1050 952 1120 c 1,12,-1
 952 376 l 2,13,14
 952 220 952 220 842 110 c 128,-1,15
 732 0 732 0 576 0 c 128,-1,16
 420 0 420 0 309 110 c 128,-1,17
 198 220 198 220 198 376 c 2,18,-1
 198 1050 l 1,19,-1
 358 1120 l 1,20,-1
 358 379 l 1,21,22
 360 286 360 286 422 225 c 0,23,24
 486 162 486 162 582 162 c 0,4,5
EndSplineSet
Validated: 1
EndChar

StartChar: ucircumflex
Encoding: 251 251 189
Width: 1150
GlyphClass: 2
Flags: W
HStem: 0 162<443.323 708.365> 1100 20G<312.286 358 872 952>
VStem: 198 160<248.305 1050> 792 160<248.305 1050>
LayerCount: 2
Fore
SplineSet
574 1563 m 1,0,-1
 831 1327 l 1,1,-1
 759 1181 l 1,2,-1
 573 1378 l 1,3,-1
 379 1181 l 1,4,-1
 312 1323 l 1,5,-1
 574 1563 l 1,0,-1
582 162 m 0,6,7
 666 162 666 162 729 225 c 128,-1,8
 792 288 792 288 792 376 c 0,9,10
 792 378 792 378 792 379 c 2,11,-1
 792 1050 l 1,12,13
 792 1050 792 1050 952 1120 c 1,14,-1
 952 376 l 2,15,16
 952 220 952 220 842 110 c 128,-1,17
 732 0 732 0 576 0 c 128,-1,18
 420 0 420 0 309 110 c 128,-1,19
 198 220 198 220 198 376 c 2,20,-1
 198 1050 l 1,21,-1
 358 1120 l 1,22,-1
 358 379 l 1,23,24
 360 286 360 286 422 225 c 0,25,26
 486 162 486 162 582 162 c 0,6,7
EndSplineSet
Validated: 1
EndChar

StartChar: udieresis
Encoding: 252 252 190
Width: 1150
GlyphClass: 2
Flags: W
HStem: 0 162<443.323 708.365> 1100 20G<312.286 358 872 952> 1247 264<258.191 439.809 710.191 891.809>
VStem: 198 160<248.305 1050> 219 260<1286.71 1471.29> 671 260<1286.71 1471.29> 792 160<248.305 1050>
LayerCount: 2
Fore
SplineSet
671 1379 m 128,-1,1
 671 1434 671 1434 709 1472.5 c 128,-1,2
 747 1511 747 1511 801 1511 c 128,-1,3
 855 1511 855 1511 893 1472.5 c 128,-1,4
 931 1434 931 1434 931 1379 c 128,-1,5
 931 1324 931 1324 893 1285.5 c 128,-1,6
 855 1247 855 1247 801 1247 c 128,-1,7
 747 1247 747 1247 709 1285.5 c 128,-1,0
 671 1324 671 1324 671 1379 c 128,-1,1
219 1379 m 128,-1,9
 219 1434 219 1434 257 1472.5 c 128,-1,10
 295 1511 295 1511 349 1511 c 128,-1,11
 403 1511 403 1511 441 1472.5 c 128,-1,12
 479 1434 479 1434 479 1379 c 128,-1,13
 479 1324 479 1324 441 1285.5 c 128,-1,14
 403 1247 403 1247 349 1247 c 128,-1,15
 295 1247 295 1247 257 1285.5 c 128,-1,8
 219 1324 219 1324 219 1379 c 128,-1,9
582 162 m 0,16,17
 666 162 666 162 729 225 c 128,-1,18
 792 288 792 288 792 376 c 0,19,20
 792 378 792 378 792 379 c 2,21,-1
 792 1050 l 1,22,23
 952 1120 l 1,24,-1
 952 376 l 2,25,26
 952 220 952 220 842 110 c 128,-1,27
 732 0 732 0 576 0 c 128,-1,28
 420 0 420 0 309 110 c 128,-1,29
 198 220 198 220 198 376 c 2,30,-1
 198 1050 l 1,31,-1
 358 1120 l 1,32,-1
 358 379 l 1,33,34
 360 286 360 286 422 225 c 0,35,36
 486 162 486 162 582 162 c 0,16,17
EndSplineSet
Validated: 1
EndChar

StartChar: yacute
Encoding: 253 253 191
Width: 1150
GlyphClass: 2
Flags: W
HStem: -400 162<448.77 706.824> 0 162<443.323 708.252> 1100 20G<312.286 358 906.286 952>
VStem: 198 160<248.305 1050> 792 160<-151.695 67 247.021 1050>
DStem2: 511 1333 575 1170 0.717065 0.697007<0 331.128>
LayerCount: 2
Fore
SplineSet
511 1333 m 1,0,-1
 797 1611 l 1,1,-1
 861 1448 l 1,2,-1
 575 1170 l 1,3,-1
 511 1333 l 1,0,-1
792 -21 m 1,4,-1
 792 67 l 1,5,6
 698 0 698 0 576 0 c 0,7,8
 420 0 420 0 309 110 c 128,-1,9
 198 220 198 220 198 376 c 2,10,-1
 198 1050 l 1,11,-1
 358 1120 l 1,12,-1
 358 379 l 1,13,14
 360 286 360 286 422 225 c 0,15,16
 486 162 486 162 582 162 c 0,17,18
 666 162 666 162 729 225 c 0,19,20
 791 287 791 287 792 373 c 1,21,-1
 792 379 l 1,22,-1
 792 1050 l 1,23,-1
 952 1120 l 1,24,-1
 952 -24 l 2,25,26
 952 -180 952 -180 841 -290 c 128,-1,27
 730 -400 730 -400 574 -400 c 128,-1,28
 418 -400 418 -400 308 -290 c 0,29,30
 238 -220 238 -220 213 -132 c 1,31,-1
 372 -98 l 1,32,33
 388 -141 388 -141 425 -175 c 0,34,35
 494 -238 494 -238 580 -238 c 0,36,37
 664 -238 664 -238 728 -175 c 0,38,39
 790 -114 790 -114 792 -21 c 1,4,-1
EndSplineSet
Validated: 1
EndChar

StartChar: thorn
Encoding: 254 254 192
Width: 1150
GlyphClass: 2
Flags: W
HStem: -391 21G<198 243.714> 0 162<446.599 705.604> 958 162<442.17 705.457> 1491 20G<312.286 358>
VStem: 198 160<-321 68 249.305 872.979 1052 1441> 792 160<248.305 871.695>
LayerCount: 2
Fore
SplineSet
358 747 m 1,0,1
 358 747 358 747 358 379 c 0,2,3
 358 287 358 287 425 225 c 0,4,5
 493 162 493 162 580 162 c 0,6,7
 664 162 664 162 728 225 c 0,8,9
 790 286 790 286 792 379 c 1,10,-1
 792 741 l 1,11,12
 790 834 790 834 728 895 c 0,13,14
 664 958 664 958 568 958 c 0,15,16
 484 958 484 958 421 895 c 0,17,18
 359 833 359 833 358 747 c 1,0,1
198 -391 m 1,19,-1
 198 1441 l 1,20,-1
 358 1511 l 1,21,-1
 358 1052 l 1,22,23
 453 1120 453 1120 576 1120 c 0,24,25
 732 1120 732 1120 842 1010 c 128,-1,26
 952 900 952 900 952 744 c 2,27,-1
 952 376 l 2,28,29
 952 220 952 220 842 110 c 128,-1,30
 732 0 732 0 576 0 c 0,31,32
 453 0 453 0 358 68 c 1,33,-1
 358 -321 l 1,34,-1
 198 -391 l 1,19,-1
EndSplineSet
Validated: 1
EndChar

StartChar: ydieresis
Encoding: 255 255 193
Width: 1150
GlyphClass: 2
Flags: W
HStem: -400 162<448.77 706.824> 0 162<443.323 708.252> 1100 20G<312.286 358 906.286 952> 1247 264<258.191 439.809 710.191 891.809>
VStem: 198 160<248.305 1050> 219 260<1286.71 1471.29> 671 260<1286.71 1471.29> 792 160<-151.695 67 247.021 1050>
LayerCount: 2
Fore
SplineSet
671 1379 m 128,-1,1
 671 1434 671 1434 709 1472.5 c 128,-1,2
 747 1511 747 1511 801 1511 c 128,-1,3
 855 1511 855 1511 893 1472.5 c 128,-1,4
 931 1434 931 1434 931 1379 c 128,-1,5
 931 1324 931 1324 893 1285.5 c 128,-1,6
 855 1247 855 1247 801 1247 c 128,-1,7
 747 1247 747 1247 709 1285.5 c 128,-1,0
 671 1324 671 1324 671 1379 c 128,-1,1
219 1379 m 128,-1,9
 219 1434 219 1434 257 1472.5 c 128,-1,10
 295 1511 295 1511 349 1511 c 128,-1,11
 403 1511 403 1511 441 1472.5 c 128,-1,12
 479 1434 479 1434 479 1379 c 128,-1,13
 479 1324 479 1324 441 1285.5 c 128,-1,14
 403 1247 403 1247 349 1247 c 128,-1,15
 295 1247 295 1247 257 1285.5 c 128,-1,8
 219 1324 219 1324 219 1379 c 128,-1,9
792 -21 m 1,16,-1
 792 67 l 1,17,18
 698 0 698 0 576 0 c 0,19,20
 420 0 420 0 309 110 c 128,-1,21
 198 220 198 220 198 376 c 2,22,-1
 198 1050 l 1,23,-1
 358 1120 l 1,24,-1
 358 379 l 1,25,26
 360 286 360 286 422 225 c 0,27,28
 486 162 486 162 582 162 c 0,29,30
 666 162 666 162 729 225 c 0,31,32
 791 287 791 287 792 373 c 1,33,-1
 792 379 l 1,34,-1
 792 1050 l 1,35,-1
 952 1120 l 1,36,-1
 952 -24 l 2,37,38
 952 -180 952 -180 841 -290 c 128,-1,39
 730 -400 730 -400 574 -400 c 128,-1,40
 418 -400 418 -400 308 -290 c 0,41,42
 238 -220 238 -220 213 -132 c 1,43,-1
 372 -98 l 1,44,45
 388 -141 388 -141 425 -175 c 0,46,47
 494 -238 494 -238 580 -238 c 0,48,49
 664 -238 664 -238 728 -175 c 0,50,51
 790 -114 790 -114 792 -21 c 1,16,-1
EndSplineSet
Validated: 1
EndChar

StartChar: Amacron
Encoding: 256 256 194
Width: 1150
GlyphClass: 2
Flags: W
HStem: 0 21G<124 169.714 866 911.714> 675 160<284 866> 1358 153<420.983 728.556> 1650 160<292 858>
VStem: 124 160<70 675 835 1221.77> 866 160<70 675 835 1221.77>
LayerCount: 2
Fore
SplineSet
292 1810 m 1,0,-1
 928 1810 l 1,1,-1
 858 1650 l 1,2,-1
 222 1650 l 1,3,-1
 292 1810 l 1,0,-1
1026 1066 m 2,4,-1
 1026 70 l 1,5,-1
 866 0 l 1,6,-1
 866 675 l 1,7,-1
 284 675 l 1,8,-1
 284 70 l 1,9,-1
 124 0 l 1,10,-1
 124 1066 l 2,11,12
 124 1250 124 1250 256 1380.5 c 128,-1,13
 388 1511 388 1511 575 1511 c 128,-1,14
 762 1511 762 1511 894 1380.5 c 128,-1,15
 1026 1250 1026 1250 1026 1066 c 2,4,-1
284 835 m 1,16,-1
 866 835 l 1,17,-1
 866 1069 l 1,18,19
 865 1189 865 1189 780 1273 c 0,20,21
 694 1358 694 1358 575 1358 c 0,22,23
 455 1358 455 1358 369 1273 c 0,24,25
 284 1189 284 1189 284 1072 c 2,26,-1
 284 1069 l 1,27,-1
 284 835 l 1,16,-1
EndSplineSet
Validated: 1
EndChar

StartChar: amacron
Encoding: 257 257 195
Width: 1150
GlyphClass: 2
Flags: W
HStem: 0 162<404.015 664.038> 958 162<444.1 705.032> 1260 160<298 864>
VStem: 198 160<207.594 383.669 727 872.613> 792 160<70 559 734 871.695>
DStem2: 385 567 463 425 0.925148 0.379606<-100.055 373.498>
LayerCount: 2
Fore
SplineSet
298 1420 m 1,0,-1
 934 1420 l 1,1,-1
 864 1260 l 1,2,-1
 228 1260 l 1,3,-1
 298 1420 l 1,0,-1
359 294 m 0,4,5
 359 261 359 261 385 226 c 0,6,7
 433 162 433 162 538 162 c 0,8,9
 602 162 602 162 651 192 c 1,10,-1
 711 41 l 1,11,12
 633 0 633 0 538 0 c 0,13,14
 388 0 388 0 272 110 c 1,15,16
 194 190 194 190 194 294 c 0,17,18
 194 298 194 298 194 302 c 0,19,20
 194 489 194 489 385 567 c 2,21,-1
 792 734 l 1,22,23
 792 829 792 829 729 893.5 c 128,-1,24
 666 958 666 958 570 958 c 0,25,26
 486 958 486 958 422 895 c 0,27,28
 360 834 360 834 358 741 c 1,29,-1
 358 727 l 1,30,-1
 198 656 l 1,31,-1
 198 744 l 2,32,33
 198 884 198 884 318 1012 c 0,34,35
 420 1120 420 1120 576 1120 c 128,-1,36
 732 1120 732 1120 842 1010 c 128,-1,37
 952 900 952 900 952 744 c 2,38,-1
 952 70 l 1,39,-1
 792 0 l 1,40,-1
 792 559 l 1,41,-1
 463 425 l 1,42,43
 359 376 359 376 359 294 c 0,4,5
EndSplineSet
Validated: 1
EndChar

StartChar: Abreve
Encoding: 258 258 196
Width: 1150
GlyphClass: 2
Flags: W
HStem: 0 21G<124 169.714 866 911.714> 675 160<284 866> 1358 153<420.983 728.556> 1615 148<450.351 695.043>
VStem: 124 160<70 675 835 1221.77> 866 160<70 675 835 1221.77>
LayerCount: 2
Fore
SplineSet
414 1846 m 1,0,1
 416 1840 416 1840 441 1816 c 0,2,3
 496 1763 496 1763 573 1763 c 0,4,5
 651 1763 651 1763 704 1816 c 0,6,7
 721 1833 721 1833 733 1852 c 1,8,-1
 864 1780 l 1,9,10
 842 1744 842 1744 810 1712 c 0,11,12
 713 1615 713 1615 572 1615 c 0,13,14
 434 1615 434 1615 334 1712 c 0,15,16
 298 1747 298 1747 282 1774 c 1,17,-1
 414 1846 l 1,0,1
1026 1066 m 2,18,-1
 1026 70 l 1,19,-1
 866 0 l 1,20,-1
 866 675 l 1,21,-1
 284 675 l 1,22,-1
 284 70 l 1,23,-1
 124 0 l 1,24,-1
 124 1066 l 2,25,26
 124 1250 124 1250 256 1380.5 c 128,-1,27
 388 1511 388 1511 575 1511 c 128,-1,28
 762 1511 762 1511 894 1380.5 c 128,-1,29
 1026 1250 1026 1250 1026 1066 c 2,18,-1
284 835 m 1,30,-1
 866 835 l 1,31,-1
 866 1069 l 1,32,33
 865 1189 865 1189 780 1273 c 0,34,35
 694 1358 694 1358 575 1358 c 0,36,37
 455 1358 455 1358 369 1273 c 0,38,39
 284 1189 284 1189 284 1072 c 2,40,-1
 284 1069 l 1,41,-1
 284 835 l 1,30,-1
EndSplineSet
Validated: 1
EndChar

StartChar: abreve
Encoding: 259 259 197
Width: 1150
GlyphClass: 2
Flags: W
HStem: 0 162<404.015 664.038> 958 162<444.1 705.032> 1266 148<459.243 703.043>
VStem: 198 160<207.594 383.669 727 872.613> 792 160<70 559 734 871.695>
DStem2: 385 567 463 425 0.925148 0.379606<-100.055 373.498>
LayerCount: 2
Fore
SplineSet
422 1497 m 1,0,1
 424 1491 424 1491 449 1467 c 0,2,3
 504 1414 504 1414 581 1414 c 0,4,5
 659 1414 659 1414 712 1467 c 0,6,7
 729 1484 729 1484 741 1503 c 1,8,-1
 872 1431 l 1,9,10
 850 1395 850 1395 818 1362 c 0,11,12
 721 1266 721 1266 580 1266 c 0,13,14
 438 1266 438 1266 342 1362 c 0,15,16
 306 1398 306 1398 290 1425 c 1,17,-1
 422 1497 l 1,0,1
359 294 m 0,18,19
 359 261 359 261 385 226 c 0,20,21
 433 162 433 162 538 162 c 0,22,23
 602 162 602 162 651 192 c 1,24,-1
 711 41 l 1,25,26
 633 0 633 0 538 0 c 0,27,28
 388 0 388 0 272 110 c 1,29,30
 194 190 194 190 194 294 c 0,31,32
 194 298 194 298 194 302 c 0,33,34
 194 489 194 489 385 567 c 2,35,-1
 792 734 l 1,36,37
 792 829 792 829 729 893.5 c 128,-1,38
 666 958 666 958 570 958 c 0,39,40
 486 958 486 958 422 895 c 0,41,42
 360 834 360 834 358 741 c 1,43,-1
 358 727 l 1,44,-1
 198 656 l 1,45,-1
 198 744 l 2,46,47
 198 884 198 884 318 1012 c 0,48,49
 420 1120 420 1120 576 1120 c 128,-1,50
 732 1120 732 1120 842 1010 c 128,-1,51
 952 900 952 900 952 744 c 2,52,-1
 952 70 l 1,53,-1
 792 0 l 1,54,-1
 792 559 l 1,55,-1
 463 425 l 1,56,57
 359 376 359 376 359 294 c 0,18,19
EndSplineSet
Validated: 1
EndChar

StartChar: Aogonek
Encoding: 260 260 198
Width: 1150
GlyphClass: 2
Flags: W
HStem: -408 175<947 1122> 0 21G<124 169.714> 675 160<284 866> 1358 153<421.686 728.35>
VStem: 124 160<70 675 835 1221.17> 866 160<138 675 835 1221.66>
LayerCount: 2
Fore
SplineSet
284 835 m 1,0,-1
 866 835 l 1,1,-1
 866 1069 l 2,2,3
 866 1188 866 1188 780 1273 c 128,-1,4
 694 1358 694 1358 576 1358 c 0,5,6
 457 1358 457 1358 370 1273 c 0,7,8
 284 1189 284 1189 284 1072 c 2,9,-1
 284 1069 l 1,10,-1
 284 835 l 1,0,-1
1122 -233 m 1,11,-1
 1116 -408 l 1,12,-1
 798 -268 l 1,13,-1
 802 -91 l 1,14,-1
 866 49 l 1,15,-1
 866 675 l 1,16,-1
 284 675 l 1,17,-1
 284 70 l 1,18,-1
 124 0 l 1,19,-1
 124 1066 l 2,20,21
 124 1249 124 1249 256 1380 c 128,-1,22
 388 1511 388 1511 575 1511 c 0,23,24
 761 1511 761 1511 894 1380 c 0,25,26
 1026 1250 1026 1250 1026 1066 c 2,27,-1
 1026 138 l 1,28,-1
 1064 96 l 1,29,-1
 946 -160 l 1,30,-1
 1122 -233 l 1,11,-1
EndSplineSet
Validated: 1
EndChar

StartChar: aogonek
Encoding: 261 261 199
Width: 1150
GlyphClass: 2
Flags: W
HStem: -406 175<869 1044> 1 162<404.015 664.038> 959 162<443.969 705.032>
VStem: 198 160<208.594 384.669 728 873.801> 792 160<135 560 735 872.695>
DStem2: 385 568 463 426 0.925148 0.379606<-100.055 373.498>
LayerCount: 2
Fore
SplineSet
792 735 m 1,0,1
 792 831 792 831 729 895 c 128,-1,2
 666 959 666 959 570 959 c 0,3,4
 485 959 485 959 422 896 c 0,5,6
 360 834 360 834 358 742 c 1,7,-1
 358 728 l 1,8,-1
 198 657 l 1,9,-1
 198 745 l 2,10,11
 198 886 198 886 318 1013 c 0,12,13
 420 1121 420 1121 576 1121 c 128,-1,14
 732 1121 732 1121 842 1011 c 128,-1,15
 952 901 952 901 952 745 c 2,16,-1
 952 135 l 1,17,-1
 986 98 l 1,18,-1
 868 -158 l 1,19,-1
 1044 -231 l 1,20,-1
 1038 -406 l 1,21,-1
 720 -266 l 1,22,-1
 724 -90 l 1,23,-1
 792 59 l 1,24,-1
 792 560 l 1,25,-1
 463 426 l 1,26,27
 359 377 359 377 359 295 c 0,28,29
 359 262 359 262 385 227 c 0,30,31
 433 163 433 163 538 163 c 0,32,33
 602 163 602 163 651 193 c 1,34,-1
 711 42 l 1,35,36
 633 1 633 1 538 1 c 0,37,38
 388 1 388 1 272 111 c 1,39,40
 194 191 194 191 194 295 c 0,41,42
 194 299 194 299 194 303 c 0,43,44
 194 490 194 490 385 568 c 2,45,-1
 792 735 l 1,0,1
EndSplineSet
Validated: 1
EndChar

StartChar: Cacute
Encoding: 262 262 200
Width: 1150
GlyphClass: 2
Flags: W
HStem: 0 153<420.535 728.556> 1358 153<420.781 729.048>
VStem: 124 160<289.132 1221.77> 866 160<289.235 454 1057 1220.67>
DStem2: 511 1744 575 1581 0.717065 0.697007<0 331.128>
LayerCount: 2
Fore
SplineSet
511 1744 m 1,0,-1
 797 2022 l 1,1,-1
 861 1859 l 1,2,-1
 575 1581 l 1,3,-1
 511 1744 l 1,0,-1
1026 528 m 1,4,-1
 1026 445 l 2,5,6
 1026 261 1026 261 894 130.5 c 128,-1,7
 762 0 762 0 575 0 c 0,8,9
 387 0 387 0 256 130 c 0,10,11
 124 261 124 261 124 445 c 2,12,-1
 124 1066 l 2,13,14
 124 1250 124 1250 256 1380.5 c 128,-1,15
 388 1511 388 1511 575 1511 c 0,16,17
 764 1511 764 1511 894 1380 c 0,18,19
 1026 1248 1026 1248 1026 1066 c 2,20,-1
 1026 1057 l 1,21,-1
 866 984 l 1,22,-1
 866 1069 l 2,23,24
 866 1188 866 1188 780 1273 c 128,-1,25
 694 1358 694 1358 575 1358 c 0,26,27
 454 1358 454 1358 369 1273.5 c 128,-1,28
 284 1189 284 1189 284 1069 c 2,29,-1
 284 442 l 2,30,31
 284 323 284 323 369 238 c 128,-1,32
 454 153 454 153 575 153 c 0,33,34
 694 153 694 153 780 238 c 0,35,36
 866 322 866 322 866 442 c 2,37,-1
 866 454 l 1,38,-1
 1026 528 l 1,4,-1
EndSplineSet
Validated: 1
EndChar

StartChar: cacute
Encoding: 263 263 201
Width: 1150
GlyphClass: 2
Flags: W
HStem: 0 162<448.638 705.9> 958 162<444.614 707.283>
VStem: 198 160<249.305 871.695> 792 160<247.387 393 734 871.695>
DStem2: 511 1333 575 1170 0.717065 0.697007<0 331.128>
LayerCount: 2
Fore
SplineSet
511 1333 m 1,0,-1
 797 1611 l 1,1,-1
 861 1448 l 1,2,-1
 575 1170 l 1,3,-1
 511 1333 l 1,0,-1
358 379 m 2,4,5
 358 287 358 287 425 225 c 0,6,7
 493 162 493 162 580 162 c 0,8,9
 664 162 664 162 728 225 c 0,10,11
 790 286 790 286 792 379 c 1,12,-1
 792 393 l 1,13,-1
 952 464 l 1,14,-1
 952 376 l 2,15,16
 952 236 952 236 832 108 c 0,17,18
 730 0 730 0 574 0 c 128,-1,19
 418 0 418 0 308 110 c 128,-1,20
 198 220 198 220 198 376 c 2,21,-1
 198 744 l 2,22,23
 198 900 198 900 308 1010 c 128,-1,24
 418 1120 418 1120 574 1120 c 0,25,26
 732 1120 732 1120 841 1010 c 1,27,28
 952 900 952 900 952 744 c 2,29,-1
 952 734 l 1,30,-1
 792 662 l 1,31,-1
 792 741 l 1,32,33
 790 834 790 834 728 895 c 0,34,35
 664 958 664 958 577 958 c 0,36,37
 487 958 487 958 422 895 c 0,38,39
 358 832 358 832 358 744 c 0,40,41
 358 742 358 742 358 741 c 2,42,-1
 358 379 l 2,4,5
EndSplineSet
Validated: 1
EndChar

StartChar: Ccircumflex
Encoding: 264 264 202
Width: 1150
GlyphClass: 2
Flags: W
HStem: 0 153<420.535 728.556> 1358 153<420.781 729.048>
VStem: 124 160<289.132 1221.77> 866 160<289.235 454 1057 1220.67>
LayerCount: 2
Fore
SplineSet
577 1972 m 1,0,-1
 834 1736 l 1,1,-1
 762 1590 l 1,2,-1
 576 1787 l 1,3,-1
 382 1590 l 1,4,-1
 315 1732 l 1,5,-1
 577 1972 l 1,0,-1
1026 528 m 1,6,-1
 1026 445 l 2,7,8
 1026 261 1026 261 894 130.5 c 128,-1,9
 762 0 762 0 575 0 c 0,10,11
 387 0 387 0 256 130 c 0,12,13
 124 261 124 261 124 445 c 2,14,-1
 124 1066 l 2,15,16
 124 1250 124 1250 256 1380.5 c 128,-1,17
 388 1511 388 1511 575 1511 c 0,18,19
 764 1511 764 1511 894 1380 c 0,20,21
 1026 1248 1026 1248 1026 1066 c 2,22,-1
 1026 1057 l 1,23,-1
 866 984 l 1,24,-1
 866 1069 l 2,25,26
 866 1188 866 1188 780 1273 c 128,-1,27
 694 1358 694 1358 575 1358 c 0,28,29
 454 1358 454 1358 369 1273.5 c 128,-1,30
 284 1189 284 1189 284 1069 c 2,31,-1
 284 442 l 2,32,33
 284 323 284 323 369 238 c 128,-1,34
 454 153 454 153 575 153 c 0,35,36
 694 153 694 153 780 238 c 0,37,38
 866 322 866 322 866 442 c 2,39,-1
 866 454 l 1,40,-1
 1026 528 l 1,6,-1
EndSplineSet
Validated: 1
EndChar

StartChar: ccircumflex
Encoding: 265 265 203
Width: 1150
GlyphClass: 2
Flags: W
HStem: 0 162<448.638 705.9> 958 162<444.614 707.283>
VStem: 198 160<249.305 871.695> 792 160<247.387 393 734 871.695>
LayerCount: 2
Fore
SplineSet
574 1563 m 1,0,-1
 831 1327 l 1,1,-1
 759 1181 l 1,2,-1
 573 1378 l 1,3,-1
 379 1181 l 1,4,-1
 312 1323 l 1,5,-1
 574 1563 l 1,0,-1
358 379 m 2,6,7
 358 287 358 287 425 225 c 0,8,9
 493 162 493 162 580 162 c 0,10,11
 664 162 664 162 728 225 c 0,12,13
 790 286 790 286 792 379 c 1,14,-1
 792 393 l 1,15,-1
 952 464 l 1,16,-1
 952 376 l 2,17,18
 952 236 952 236 832 108 c 0,19,20
 730 0 730 0 574 0 c 128,-1,21
 418 0 418 0 308 110 c 128,-1,22
 198 220 198 220 198 376 c 2,23,-1
 198 744 l 2,24,25
 198 900 198 900 308 1010 c 128,-1,26
 418 1120 418 1120 574 1120 c 0,27,28
 732 1120 732 1120 841 1010 c 1,29,30
 952 900 952 900 952 744 c 2,31,-1
 952 734 l 1,32,-1
 792 662 l 1,33,-1
 792 741 l 1,34,35
 790 834 790 834 728 895 c 0,36,37
 664 958 664 958 577 958 c 0,38,39
 487 958 487 958 422 895 c 0,40,41
 358 832 358 832 358 744 c 0,42,43
 358 742 358 742 358 741 c 2,44,-1
 358 379 l 2,6,7
EndSplineSet
Validated: 1
EndChar

StartChar: Cdotaccent
Encoding: 266 266 204
Width: 1150
GlyphClass: 2
Flags: W
HStem: 0 153<420.535 728.556> 1358 153<420.781 729.048> 1611 264<484.191 665.809>
VStem: 124 160<289.132 1221.77> 445 260<1650.71 1835.29> 866 160<289.235 454 1057 1220.67>
CounterMasks: 1 1c
LayerCount: 2
Fore
SplineSet
445 1743 m 128,-1,1
 445 1798 445 1798 483 1836.5 c 128,-1,2
 521 1875 521 1875 575 1875 c 128,-1,3
 629 1875 629 1875 667 1836.5 c 128,-1,4
 705 1798 705 1798 705 1743 c 128,-1,5
 705 1688 705 1688 667 1649.5 c 128,-1,6
 629 1611 629 1611 575 1611 c 128,-1,7
 521 1611 521 1611 483 1649.5 c 128,-1,0
 445 1688 445 1688 445 1743 c 128,-1,1
1026 528 m 1,8,-1
 1026 445 l 2,9,10
 1026 261 1026 261 894 130.5 c 128,-1,11
 762 0 762 0 575 0 c 0,12,13
 387 0 387 0 256 130 c 0,14,15
 124 261 124 261 124 445 c 2,16,-1
 124 1066 l 2,17,18
 124 1250 124 1250 256 1380.5 c 128,-1,19
 388 1511 388 1511 575 1511 c 0,20,21
 764 1511 764 1511 894 1380 c 0,22,23
 1026 1248 1026 1248 1026 1066 c 2,24,-1
 1026 1057 l 1,25,-1
 866 984 l 1,26,-1
 866 1069 l 2,27,28
 866 1188 866 1188 780 1273 c 128,-1,29
 694 1358 694 1358 575 1358 c 0,30,31
 454 1358 454 1358 369 1273.5 c 128,-1,32
 284 1189 284 1189 284 1069 c 2,33,-1
 284 442 l 2,34,35
 284 323 284 323 369 238 c 128,-1,36
 454 153 454 153 575 153 c 0,37,38
 694 153 694 153 780 238 c 0,39,40
 866 322 866 322 866 442 c 2,41,-1
 866 454 l 1,42,-1
 1026 528 l 1,8,-1
EndSplineSet
Validated: 1
EndChar

StartChar: cdotaccent
Encoding: 267 267 205
Width: 1150
GlyphClass: 2
Flags: W
HStem: 0 162<448.638 705.9> 958 162<444.614 707.283> 1247 264<484.191 665.809>
VStem: 198 160<249.305 871.695> 445 260<1286.71 1471.29> 792 160<247.387 393 734 871.695>
CounterMasks: 1 1c
LayerCount: 2
Fore
SplineSet
445 1379 m 128,-1,1
 445 1434 445 1434 483 1472.5 c 128,-1,2
 521 1511 521 1511 575 1511 c 128,-1,3
 629 1511 629 1511 667 1472.5 c 128,-1,4
 705 1434 705 1434 705 1379 c 128,-1,5
 705 1324 705 1324 667 1285.5 c 128,-1,6
 629 1247 629 1247 575 1247 c 128,-1,7
 521 1247 521 1247 483 1285.5 c 128,-1,0
 445 1324 445 1324 445 1379 c 128,-1,1
358 379 m 2,8,9
 358 287 358 287 425 225 c 0,10,11
 493 162 493 162 580 162 c 0,12,13
 664 162 664 162 728 225 c 0,14,15
 790 286 790 286 792 379 c 1,16,-1
 792 393 l 1,17,-1
 952 464 l 1,18,-1
 952 376 l 2,19,20
 952 236 952 236 832 108 c 0,21,22
 730 0 730 0 574 0 c 128,-1,23
 418 0 418 0 308 110 c 128,-1,24
 198 220 198 220 198 376 c 2,25,-1
 198 744 l 2,26,27
 198 900 198 900 308 1010 c 128,-1,28
 418 1120 418 1120 574 1120 c 0,29,30
 732 1120 732 1120 841 1010 c 1,31,32
 952 900 952 900 952 744 c 2,33,-1
 952 734 l 1,34,-1
 792 662 l 1,35,-1
 792 741 l 1,36,37
 790 834 790 834 728 895 c 0,38,39
 664 958 664 958 577 958 c 0,40,41
 487 958 487 958 422 895 c 0,42,43
 358 832 358 832 358 744 c 0,44,45
 358 742 358 742 358 741 c 2,46,-1
 358 379 l 2,8,9
EndSplineSet
Validated: 1
EndChar

StartChar: Ccaron
Encoding: 268 268 206
Width: 1150
GlyphClass: 2
Flags: W
HStem: 0 153<420.535 728.556> 1358 153<420.781 729.048>
VStem: 124 160<289.132 1221.77> 866 160<289.235 454 1057 1220.67>
LayerCount: 2
Fore
SplineSet
577 1590 m 1,0,-1
 315 1830 l 1,1,-1
 382 1972 l 1,2,-1
 576 1775 l 1,3,-1
 762 1972 l 1,4,-1
 834 1826 l 1,5,-1
 577 1590 l 1,0,-1
1026 528 m 1,6,-1
 1026 445 l 2,7,8
 1026 261 1026 261 894 130.5 c 128,-1,9
 762 0 762 0 575 0 c 0,10,11
 387 0 387 0 256 130 c 0,12,13
 124 261 124 261 124 445 c 2,14,-1
 124 1066 l 2,15,16
 124 1250 124 1250 256 1380.5 c 128,-1,17
 388 1511 388 1511 575 1511 c 0,18,19
 764 1511 764 1511 894 1380 c 0,20,21
 1026 1248 1026 1248 1026 1066 c 2,22,-1
 1026 1057 l 1,23,-1
 866 984 l 1,24,-1
 866 1069 l 2,25,26
 866 1188 866 1188 780 1273 c 128,-1,27
 694 1358 694 1358 575 1358 c 0,28,29
 454 1358 454 1358 369 1273.5 c 128,-1,30
 284 1189 284 1189 284 1069 c 2,31,-1
 284 442 l 2,32,33
 284 323 284 323 369 238 c 128,-1,34
 454 153 454 153 575 153 c 0,35,36
 694 153 694 153 780 238 c 0,37,38
 866 322 866 322 866 442 c 2,39,-1
 866 454 l 1,40,-1
 1026 528 l 1,6,-1
EndSplineSet
Validated: 1
EndChar

StartChar: ccaron
Encoding: 269 269 207
Width: 1150
GlyphClass: 2
Flags: W
HStem: 0 162<448.638 705.9> 958 162<444.614 707.283>
VStem: 198 160<249.305 871.695> 792 160<247.387 393 734 871.695>
LayerCount: 2
Fore
SplineSet
574 1178 m 1,0,-1
 312 1418 l 1,1,-1
 379 1560 l 1,2,-1
 573 1363 l 1,3,-1
 759 1560 l 1,4,-1
 831 1414 l 1,5,-1
 574 1178 l 1,0,-1
358 379 m 2,6,7
 358 287 358 287 425 225 c 0,8,9
 493 162 493 162 580 162 c 0,10,11
 664 162 664 162 728 225 c 0,12,13
 790 286 790 286 792 379 c 1,14,-1
 792 393 l 1,15,-1
 952 464 l 1,16,-1
 952 376 l 2,17,18
 952 236 952 236 832 108 c 0,19,20
 730 0 730 0 574 0 c 128,-1,21
 418 0 418 0 308 110 c 128,-1,22
 198 220 198 220 198 376 c 2,23,-1
 198 744 l 2,24,25
 198 900 198 900 308 1010 c 128,-1,26
 418 1120 418 1120 574 1120 c 0,27,28
 732 1120 732 1120 841 1010 c 1,29,30
 952 900 952 900 952 744 c 2,31,-1
 952 734 l 1,32,-1
 792 662 l 1,33,-1
 792 741 l 1,34,35
 790 834 790 834 728 895 c 0,36,37
 664 958 664 958 577 958 c 0,38,39
 487 958 487 958 422 895 c 0,40,41
 358 832 358 832 358 744 c 0,42,43
 358 742 358 742 358 741 c 2,44,-1
 358 379 l 2,6,7
EndSplineSet
Validated: 1
EndChar

StartChar: Dcaron
Encoding: 270 270 208
Width: 1150
GlyphClass: 2
Flags: W
HStem: 20 153<283 729.098> 1339 153<283 729.098>
VStem: 123 160<173 1338> 867 160<309.235 1202.77>
LayerCount: 2
Fore
SplineSet
577 1590 m 1,0,-1
 315 1830 l 1,1,-1
 382 1972 l 1,2,-1
 576 1775 l 1,3,-1
 762 1972 l 1,4,-1
 834 1826 l 1,5,-1
 577 1590 l 1,0,-1
283 1338 m 1,6,-1
 283 173 l 1,7,-1
 575 173 l 1,8,-1
 576 173 l 2,9,10
 694 173 694 173 781 258 c 0,11,12
 867 342 867 342 867 462 c 2,13,-1
 867 1050 l 2,14,15
 867 1169 867 1169 781 1254 c 128,-1,16
 695 1339 695 1339 576 1339 c 2,17,-1
 575 1339 l 1,18,-1
 283 1338 l 1,6,-1
575 20 m 1,19,-1
 123 20 l 1,20,-1
 123 1422 l 1,21,-1
 283 1492 l 1,22,-1
 575 1492 l 1,23,-1
 576 1492 l 2,24,25
 763 1492 763 1492 895 1361.5 c 128,-1,26
 1027 1231 1027 1231 1027 1047 c 2,27,-1
 1027 465 l 2,28,29
 1027 281 1027 281 895 150.5 c 128,-1,30
 763 20 763 20 576 20 c 2,31,-1
 575 20 l 1,19,-1
EndSplineSet
Validated: 1
EndChar

StartChar: dcaron
Encoding: 271 271 209
Width: 1150
GlyphClass: 2
Flags: W
HStem: 0 162<256.021 516.955> 958 162<251.015 516.664> 1491 20G<716.286 762>
VStem: 8 160<249 871.695> 602 160<248.305 873.371 1052 1441>
DStem2: 792 1330 856 1167 0.717065 0.697007<0 331.128>
LayerCount: 2
Fore
SplineSet
792 1330 m 1,0,-1
 1078 1608 l 1,1,-1
 1142 1445 l 1,2,-1
 856 1167 l 1,3,-1
 792 1330 l 1,0,-1
168 379 m 2,4,5
 168 286 168 286 234 225 c 0,6,7
 302 162 302 162 390 162 c 0,8,9
 475 162 475 162 538 225 c 0,10,11
 600 287 600 287 602 379 c 1,12,-1
 602 741 l 1,13,14
 600 835 600 835 538 895 c 0,15,16
 473 958 473 958 378 958 c 0,17,18
 292 958 292 958 230 895 c 0,19,20
 169 833 169 833 168 747 c 1,21,-1
 168 741 l 1,22,-1
 168 379 l 2,4,5
762 1511 m 1,23,-1
 762 376 l 2,24,25
 762 220 762 220 651 110 c 128,-1,26
 540 0 540 0 384 0 c 128,-1,27
 228 0 228 0 118 110 c 128,-1,28
 8 220 8 220 8 376 c 2,29,-1
 8 744 l 2,30,31
 8 900 8 900 118 1010 c 128,-1,32
 228 1120 228 1120 384 1120 c 0,33,34
 506 1120 506 1120 602 1052 c 1,35,-1
 602 1441 l 1,36,-1
 762 1511 l 1,23,-1
EndSplineSet
Validated: 1
EndChar

StartChar: Dcroat
Encoding: 272 272 210
Width: 1150
GlyphClass: 2
Flags: W
HStem: 20 153<283 729.098> 675 160<98 123 283 613> 1339 153<283 729.098>
VStem: 123 160<173 675 835 1338> 867 160<309.235 1202.77>
LayerCount: 2
Fore
SplineSet
575 1492 m 1,0,-1
 576 1492 l 2,1,2
 763 1492 763 1492 895 1361.5 c 128,-1,3
 1027 1231 1027 1231 1027 1047 c 2,4,-1
 1027 465 l 2,5,6
 1027 281 1027 281 895 150.5 c 128,-1,7
 763 20 763 20 576 20 c 2,8,-1
 575 20 l 1,9,-1
 123 20 l 1,10,-1
 123 675 l 1,11,-1
 28 675 l 1,12,-1
 98 835 l 1,13,-1
 123 835 l 1,14,-1
 123 1422 l 1,15,-1
 283 1492 l 1,16,-1
 575 1492 l 1,0,-1
576 173 m 2,17,18
 694 173 694 173 781 258 c 0,19,20
 867 342 867 342 867 462 c 2,21,-1
 867 1050 l 2,22,23
 867 1169 867 1169 781 1254 c 128,-1,24
 695 1339 695 1339 576 1339 c 2,25,-1
 575 1339 l 1,26,-1
 283 1338 l 1,27,-1
 283 835 l 1,28,-1
 683 835 l 1,29,-1
 613 675 l 1,30,-1
 283 675 l 1,31,-1
 283 173 l 1,32,-1
 575 173 l 1,33,-1
 576 173 l 2,17,18
EndSplineSet
Validated: 1
EndChar

StartChar: dcroat
Encoding: 273 273 211
Width: 1150
GlyphClass: 2
Flags: W
HStem: 0 162<448.638 706.824> 958 162<441.635 707.04> 1263 160<478 792 952 1044> 1491 20G<906.286 952>
VStem: 198 160<249.305 871.695> 792 160<248.305 873.086 1052 1263 1423 1441>
LayerCount: 2
Fore
SplineSet
358 379 m 2,0,1
 358 287 358 287 425 225 c 0,2,3
 493 162 493 162 580 162 c 0,4,5
 664 162 664 162 728 225 c 0,6,7
 790 286 790 286 792 379 c 1,8,-1
 792 741 l 1,9,10
 790 834 790 834 728 895 c 0,11,12
 664 958 664 958 568 958 c 0,13,14
 484 958 484 958 421 895 c 0,15,16
 359 833 359 833 358 747 c 1,17,-1
 358 741 l 1,18,-1
 358 379 l 2,0,1
1114 1423 m 1,19,-1
 1044 1263 l 1,20,-1
 952 1263 l 1,21,-1
 952 376 l 2,22,23
 952 220 952 220 841 110 c 128,-1,24
 730 0 730 0 574 0 c 128,-1,25
 418 0 418 0 308 110 c 128,-1,26
 198 220 198 220 198 376 c 2,27,-1
 198 744 l 2,28,29
 198 900 198 900 308 1010 c 128,-1,30
 418 1120 418 1120 574 1120 c 0,31,32
 697 1120 697 1120 792 1052 c 1,33,-1
 792 1263 l 1,34,-1
 408 1263 l 1,35,-1
 478 1423 l 1,36,-1
 792 1423 l 1,37,-1
 792 1441 l 1,38,-1
 952 1511 l 1,39,-1
 952 1423 l 1,40,-1
 1114 1423 l 1,19,-1
EndSplineSet
Validated: 1
EndChar

